%TF.GenerationSoftware,KiCad,Pcbnew,(5.1.7)-1*%
%TF.CreationDate,2020-11-09T16:27:57-06:00*%
%TF.ProjectId,MCU breakout board,4d435520-6272-4656-916b-6f757420626f,rev?*%
%TF.SameCoordinates,Original*%
%TF.FileFunction,Legend,Top*%
%TF.FilePolarity,Positive*%
%FSLAX46Y46*%
G04 Gerber Fmt 4.6, Leading zero omitted, Abs format (unit mm)*
G04 Created by KiCad (PCBNEW (5.1.7)-1) date 2020-11-09 16:27:57*
%MOMM*%
%LPD*%
G01*
G04 APERTURE LIST*
%ADD10C,0.150000*%
%ADD11C,0.300000*%
%ADD12C,0.120000*%
%ADD13C,0.200000*%
%ADD14C,0.250000*%
%ADD15C,0.254000*%
G04 APERTURE END LIST*
D10*
X155990476Y-110852380D02*
X155990476Y-109852380D01*
X156371428Y-109852380D01*
X156466666Y-109900000D01*
X156514285Y-109947619D01*
X156561904Y-110042857D01*
X156561904Y-110185714D01*
X156514285Y-110280952D01*
X156466666Y-110328571D01*
X156371428Y-110376190D01*
X155990476Y-110376190D01*
X156990476Y-110852380D02*
X156990476Y-110185714D01*
X156990476Y-109852380D02*
X156942857Y-109900000D01*
X156990476Y-109947619D01*
X157038095Y-109900000D01*
X156990476Y-109852380D01*
X156990476Y-109947619D01*
X157466666Y-110185714D02*
X157466666Y-110852380D01*
X157466666Y-110280952D02*
X157514285Y-110233333D01*
X157609523Y-110185714D01*
X157752380Y-110185714D01*
X157847619Y-110233333D01*
X157895238Y-110328571D01*
X157895238Y-110852380D01*
X159657142Y-110852380D02*
X159085714Y-110852380D01*
X159371428Y-110852380D02*
X159371428Y-109852380D01*
X159276190Y-109995238D01*
X159180952Y-110090476D01*
X159085714Y-110138095D01*
X152890476Y-120252380D02*
X152890476Y-119252380D01*
X153271428Y-119252380D01*
X153366666Y-119300000D01*
X153414285Y-119347619D01*
X153461904Y-119442857D01*
X153461904Y-119585714D01*
X153414285Y-119680952D01*
X153366666Y-119728571D01*
X153271428Y-119776190D01*
X152890476Y-119776190D01*
X153890476Y-120252380D02*
X153890476Y-119585714D01*
X153890476Y-119252380D02*
X153842857Y-119300000D01*
X153890476Y-119347619D01*
X153938095Y-119300000D01*
X153890476Y-119252380D01*
X153890476Y-119347619D01*
X154366666Y-119585714D02*
X154366666Y-120252380D01*
X154366666Y-119680952D02*
X154414285Y-119633333D01*
X154509523Y-119585714D01*
X154652380Y-119585714D01*
X154747619Y-119633333D01*
X154795238Y-119728571D01*
X154795238Y-120252380D01*
X156557142Y-120252380D02*
X155985714Y-120252380D01*
X156271428Y-120252380D02*
X156271428Y-119252380D01*
X156176190Y-119395238D01*
X156080952Y-119490476D01*
X155985714Y-119538095D01*
X118090476Y-91752380D02*
X118090476Y-90752380D01*
X118471428Y-90752380D01*
X118566666Y-90800000D01*
X118614285Y-90847619D01*
X118661904Y-90942857D01*
X118661904Y-91085714D01*
X118614285Y-91180952D01*
X118566666Y-91228571D01*
X118471428Y-91276190D01*
X118090476Y-91276190D01*
X119090476Y-91752380D02*
X119090476Y-91085714D01*
X119090476Y-90752380D02*
X119042857Y-90800000D01*
X119090476Y-90847619D01*
X119138095Y-90800000D01*
X119090476Y-90752380D01*
X119090476Y-90847619D01*
X119566666Y-91085714D02*
X119566666Y-91752380D01*
X119566666Y-91180952D02*
X119614285Y-91133333D01*
X119709523Y-91085714D01*
X119852380Y-91085714D01*
X119947619Y-91133333D01*
X119995238Y-91228571D01*
X119995238Y-91752380D01*
X121757142Y-91752380D02*
X121185714Y-91752380D01*
X121471428Y-91752380D02*
X121471428Y-90752380D01*
X121376190Y-90895238D01*
X121280952Y-90990476D01*
X121185714Y-91038095D01*
X122290476Y-143052380D02*
X122290476Y-142052380D01*
X122671428Y-142052380D01*
X122766666Y-142100000D01*
X122814285Y-142147619D01*
X122861904Y-142242857D01*
X122861904Y-142385714D01*
X122814285Y-142480952D01*
X122766666Y-142528571D01*
X122671428Y-142576190D01*
X122290476Y-142576190D01*
X123290476Y-143052380D02*
X123290476Y-142385714D01*
X123290476Y-142052380D02*
X123242857Y-142100000D01*
X123290476Y-142147619D01*
X123338095Y-142100000D01*
X123290476Y-142052380D01*
X123290476Y-142147619D01*
X123766666Y-142385714D02*
X123766666Y-143052380D01*
X123766666Y-142480952D02*
X123814285Y-142433333D01*
X123909523Y-142385714D01*
X124052380Y-142385714D01*
X124147619Y-142433333D01*
X124195238Y-142528571D01*
X124195238Y-143052380D01*
X125957142Y-143052380D02*
X125385714Y-143052380D01*
X125671428Y-143052380D02*
X125671428Y-142052380D01*
X125576190Y-142195238D01*
X125480952Y-142290476D01*
X125385714Y-142338095D01*
D11*
X141437396Y-108919126D02*
X140376736Y-107858466D01*
X140629274Y-107605928D01*
X140831304Y-107504913D01*
X141033335Y-107504913D01*
X141184858Y-107555420D01*
X141437396Y-107706943D01*
X141588919Y-107858466D01*
X141740441Y-108111004D01*
X141790949Y-108262527D01*
X141790949Y-108464558D01*
X141689934Y-108666588D01*
X141437396Y-108919126D01*
X142498056Y-107858466D02*
X141790949Y-107151359D01*
X141437396Y-106797806D02*
X141437396Y-106898821D01*
X141538411Y-106898821D01*
X141538411Y-106797806D01*
X141437396Y-106797806D01*
X141538411Y-106898821D01*
X142750594Y-106191714D02*
X143609224Y-107050344D01*
X143659731Y-107201867D01*
X143659731Y-107302882D01*
X143609224Y-107454405D01*
X143457701Y-107605928D01*
X143306178Y-107656436D01*
X143407193Y-106848314D02*
X143356686Y-106999836D01*
X143154655Y-107201867D01*
X143003132Y-107252375D01*
X142902117Y-107252375D01*
X142750594Y-107201867D01*
X142447548Y-106898821D01*
X142397041Y-106747298D01*
X142397041Y-106646283D01*
X142447548Y-106494760D01*
X142649579Y-106292730D01*
X142801102Y-106242222D01*
X143962777Y-106393745D02*
X143255670Y-105686638D01*
X142902117Y-105333085D02*
X142902117Y-105434100D01*
X143003132Y-105434100D01*
X143003132Y-105333085D01*
X142902117Y-105333085D01*
X143003132Y-105434100D01*
X143609224Y-105333085D02*
X144013285Y-104929024D01*
X143407193Y-104828008D02*
X144316330Y-105737146D01*
X144467853Y-105787653D01*
X144619376Y-105737146D01*
X144720391Y-105636130D01*
X145528513Y-104828008D02*
X144972930Y-104272425D01*
X144821407Y-104221917D01*
X144669884Y-104272425D01*
X144467853Y-104474455D01*
X144417346Y-104625978D01*
X145478006Y-104777501D02*
X145427498Y-104929024D01*
X145174960Y-105181562D01*
X145023437Y-105232069D01*
X144871914Y-105181562D01*
X144770899Y-105080547D01*
X144720391Y-104929024D01*
X144770899Y-104777501D01*
X145023437Y-104524963D01*
X145073945Y-104373440D01*
X146185113Y-104171409D02*
X146033590Y-104221917D01*
X145882067Y-104171409D01*
X144972930Y-103262272D01*
X147397296Y-102959226D02*
X146336636Y-101898566D01*
X147447803Y-102302627D01*
X147043742Y-101191459D01*
X148104402Y-102252119D01*
X149114555Y-101039936D02*
X149114555Y-101140952D01*
X149013540Y-101342982D01*
X148912525Y-101443997D01*
X148710494Y-101545013D01*
X148508463Y-101545013D01*
X148356941Y-101494505D01*
X148104402Y-101342982D01*
X147952880Y-101191459D01*
X147801357Y-100938921D01*
X147750849Y-100787398D01*
X147750849Y-100585368D01*
X147851864Y-100383337D01*
X147952880Y-100282322D01*
X148154910Y-100181307D01*
X148255925Y-100181307D01*
X148609479Y-99625723D02*
X149468108Y-100484352D01*
X149619631Y-100534860D01*
X149720647Y-100534860D01*
X149872169Y-100484352D01*
X150074200Y-100282322D01*
X150124708Y-100130799D01*
X150124708Y-100029784D01*
X150074200Y-99878261D01*
X149215570Y-99019631D01*
X151488414Y-98767093D02*
X151690444Y-98666078D01*
X151942982Y-98413540D01*
X151993490Y-98262017D01*
X151993490Y-98161002D01*
X151942982Y-98009479D01*
X151841967Y-97908463D01*
X151690444Y-97857956D01*
X151589429Y-97857956D01*
X151437906Y-97908463D01*
X151185368Y-98059986D01*
X151033845Y-98110494D01*
X150932830Y-98110494D01*
X150781307Y-98059986D01*
X150680291Y-97958971D01*
X150629784Y-97807448D01*
X150629784Y-97706433D01*
X150680291Y-97554910D01*
X150932830Y-97302372D01*
X151134860Y-97201357D01*
X152599581Y-97756941D02*
X151892475Y-97049834D01*
X151538921Y-96696280D02*
X151538921Y-96797296D01*
X151639936Y-96797296D01*
X151639936Y-96696280D01*
X151538921Y-96696280D01*
X151639936Y-96797296D01*
X153104658Y-97251864D02*
X152397551Y-96544758D01*
X152498566Y-96645773D02*
X152498566Y-96544758D01*
X152549074Y-96393235D01*
X152700597Y-96241712D01*
X152852119Y-96191204D01*
X153003642Y-96241712D01*
X153559226Y-96797296D01*
X153003642Y-96241712D02*
X152953135Y-96090189D01*
X153003642Y-95938666D01*
X153155165Y-95787143D01*
X153306688Y-95736636D01*
X153458211Y-95787143D01*
X154013795Y-96342727D01*
X154266333Y-94675975D02*
X154973440Y-95383082D01*
X153811764Y-95130544D02*
X154367348Y-95686128D01*
X154518871Y-95736636D01*
X154670394Y-95686128D01*
X154821917Y-95534605D01*
X154872425Y-95383082D01*
X154872425Y-95282067D01*
X155630039Y-94726483D02*
X155478516Y-94776991D01*
X155326993Y-94726483D01*
X154417856Y-93817346D01*
X156488669Y-93867853D02*
X155933085Y-93312269D01*
X155781562Y-93261762D01*
X155630039Y-93312269D01*
X155428008Y-93514300D01*
X155377501Y-93665823D01*
X156438161Y-93817346D02*
X156387653Y-93968869D01*
X156135115Y-94221407D01*
X155983592Y-94271914D01*
X155832069Y-94221407D01*
X155731054Y-94120391D01*
X155680547Y-93968869D01*
X155731054Y-93817346D01*
X155983592Y-93564808D01*
X156034100Y-93413285D01*
X156135115Y-92807193D02*
X156539176Y-92403132D01*
X155933085Y-92302117D02*
X156842222Y-93211254D01*
X156993745Y-93261762D01*
X157145268Y-93211254D01*
X157246283Y-93110239D01*
X157751359Y-92605163D02*
X157599836Y-92655670D01*
X157498821Y-92655670D01*
X157347298Y-92605163D01*
X157044252Y-92302117D01*
X156993745Y-92150594D01*
X156993745Y-92049579D01*
X157044252Y-91898056D01*
X157195775Y-91746533D01*
X157347298Y-91696025D01*
X157448314Y-91696025D01*
X157599836Y-91746533D01*
X157902882Y-92049579D01*
X157953390Y-92201102D01*
X157953390Y-92302117D01*
X157902882Y-92453640D01*
X157751359Y-92605163D01*
X158559481Y-91797041D02*
X157852375Y-91089934D01*
X158054405Y-91291964D02*
X158003897Y-91140441D01*
X158003897Y-91039426D01*
X158054405Y-90887903D01*
X158155420Y-90786888D01*
X142861710Y-109989888D02*
X143063741Y-109888872D01*
X143164756Y-109888872D01*
X143316279Y-109939380D01*
X143467802Y-110090903D01*
X143518310Y-110242426D01*
X143518310Y-110343441D01*
X143467802Y-110494964D01*
X143063741Y-110899025D01*
X142003081Y-109838365D01*
X142356634Y-109484811D01*
X142508157Y-109434304D01*
X142609172Y-109434304D01*
X142760695Y-109484811D01*
X142861710Y-109585827D01*
X142912218Y-109737350D01*
X142912218Y-109838365D01*
X142861710Y-109989888D01*
X142508157Y-110343441D01*
X144124401Y-109838365D02*
X143417294Y-109131258D01*
X143619325Y-109333288D02*
X143568817Y-109181766D01*
X143568817Y-109080750D01*
X143619325Y-108929227D01*
X143720340Y-108828212D01*
X145134554Y-108727197D02*
X145084046Y-108878720D01*
X144882016Y-109080750D01*
X144730493Y-109131258D01*
X144578970Y-109080750D01*
X144174909Y-108676689D01*
X144124401Y-108525166D01*
X144174909Y-108373644D01*
X144376939Y-108171613D01*
X144528462Y-108121105D01*
X144679985Y-108171613D01*
X144781000Y-108272628D01*
X144376939Y-108878720D01*
X146144706Y-107818060D02*
X145589122Y-107262476D01*
X145437599Y-107211968D01*
X145286077Y-107262476D01*
X145084046Y-107464506D01*
X145033538Y-107616029D01*
X146094199Y-107767552D02*
X146043691Y-107919075D01*
X145791153Y-108171613D01*
X145639630Y-108222121D01*
X145488107Y-108171613D01*
X145387092Y-108070598D01*
X145336584Y-107919075D01*
X145387092Y-107767552D01*
X145639630Y-107515014D01*
X145690138Y-107363491D01*
X146649783Y-107312983D02*
X145589122Y-106252323D01*
X146346737Y-106807907D02*
X147053844Y-106908922D01*
X146346737Y-106201816D02*
X146346737Y-107009938D01*
X147659935Y-106302831D02*
X147508412Y-106353338D01*
X147407397Y-106353338D01*
X147255874Y-106302831D01*
X146952828Y-105999785D01*
X146902321Y-105848262D01*
X146902321Y-105747247D01*
X146952828Y-105595724D01*
X147104351Y-105444201D01*
X147255874Y-105393694D01*
X147356889Y-105393694D01*
X147508412Y-105444201D01*
X147811458Y-105747247D01*
X147861966Y-105898770D01*
X147861966Y-105999785D01*
X147811458Y-106151308D01*
X147659935Y-106302831D01*
X148215519Y-104333033D02*
X148922626Y-105040140D01*
X147760950Y-104787602D02*
X148316534Y-105343186D01*
X148468057Y-105393694D01*
X148619580Y-105343186D01*
X148771103Y-105191663D01*
X148821610Y-105040140D01*
X148821610Y-104939125D01*
X148569072Y-103979480D02*
X148973133Y-103575419D01*
X148367042Y-103474404D02*
X149276179Y-104383541D01*
X149427702Y-104434049D01*
X149579225Y-104383541D01*
X149680240Y-104282526D01*
X150639885Y-102211713D02*
X150841916Y-102110698D01*
X150942931Y-102110698D01*
X151094454Y-102161205D01*
X151245977Y-102312728D01*
X151296484Y-102464251D01*
X151296484Y-102565266D01*
X151245977Y-102716789D01*
X150841916Y-103120850D01*
X149781255Y-102060190D01*
X150134809Y-101706637D01*
X150286332Y-101656129D01*
X150387347Y-101656129D01*
X150538870Y-101706637D01*
X150639885Y-101807652D01*
X150690393Y-101959175D01*
X150690393Y-102060190D01*
X150639885Y-102211713D01*
X150286332Y-102565266D01*
X152054099Y-101908667D02*
X151902576Y-101959175D01*
X151801561Y-101959175D01*
X151650038Y-101908667D01*
X151346992Y-101605622D01*
X151296484Y-101454099D01*
X151296484Y-101353083D01*
X151346992Y-101201561D01*
X151498515Y-101050038D01*
X151650038Y-100999530D01*
X151751053Y-100999530D01*
X151902576Y-101050038D01*
X152205622Y-101353083D01*
X152256129Y-101504606D01*
X152256129Y-101605622D01*
X152205622Y-101757144D01*
X152054099Y-101908667D01*
X153316789Y-100645977D02*
X152761205Y-100090393D01*
X152609683Y-100039885D01*
X152458160Y-100090393D01*
X152256129Y-100292423D01*
X152205622Y-100443946D01*
X153266282Y-100595469D02*
X153215774Y-100746992D01*
X152963236Y-100999530D01*
X152811713Y-101050038D01*
X152660190Y-100999530D01*
X152559175Y-100898515D01*
X152508667Y-100746992D01*
X152559175Y-100595469D01*
X152811713Y-100342931D01*
X152862221Y-100191408D01*
X153821866Y-100140900D02*
X153114759Y-99433794D01*
X153316789Y-99635824D02*
X153266282Y-99484301D01*
X153266282Y-99383286D01*
X153316789Y-99231763D01*
X153417805Y-99130748D01*
X154933033Y-99029733D02*
X153872373Y-97969072D01*
X154882526Y-98979225D02*
X154832018Y-99130748D01*
X154629988Y-99332778D01*
X154478465Y-99383286D01*
X154377449Y-99383286D01*
X154225927Y-99332778D01*
X153922881Y-99029733D01*
X153872373Y-98878210D01*
X153872373Y-98777194D01*
X153922881Y-98625672D01*
X154124911Y-98423641D01*
X154276434Y-98373133D01*
X155034049Y-96807397D02*
X156448262Y-97514504D01*
X155741155Y-96100290D01*
X158519075Y-95443691D02*
X157912983Y-96049783D01*
X158216029Y-95746737D02*
X157155369Y-94686077D01*
X157205877Y-94938615D01*
X157205877Y-95140645D01*
X157155369Y-95292168D01*
X158872628Y-94888107D02*
X158973644Y-94888107D01*
X158973644Y-94989122D01*
X158872628Y-94989122D01*
X158872628Y-94888107D01*
X158973644Y-94989122D01*
X158620090Y-93221355D02*
X158721105Y-93120340D01*
X158872628Y-93069833D01*
X158973644Y-93069833D01*
X159125166Y-93120340D01*
X159377705Y-93271863D01*
X159630243Y-93524401D01*
X159781766Y-93776939D01*
X159832273Y-93928462D01*
X159832273Y-94029477D01*
X159781766Y-94181000D01*
X159680750Y-94282016D01*
X159529227Y-94332523D01*
X159428212Y-94332523D01*
X159276689Y-94282016D01*
X159024151Y-94130493D01*
X158771613Y-93877955D01*
X158620090Y-93625416D01*
X158569583Y-93473894D01*
X158569583Y-93372878D01*
X158620090Y-93221355D01*
X160387857Y-93372878D02*
X160488872Y-93372878D01*
X160488872Y-93473894D01*
X160387857Y-93473894D01*
X160387857Y-93372878D01*
X160488872Y-93473894D01*
X160135319Y-91706127D02*
X160236334Y-91605111D01*
X160387857Y-91554604D01*
X160488872Y-91554604D01*
X160640395Y-91605111D01*
X160892933Y-91756634D01*
X161145472Y-92009172D01*
X161296994Y-92261710D01*
X161347502Y-92413233D01*
X161347502Y-92514249D01*
X161296994Y-92665771D01*
X161195979Y-92766787D01*
X161044456Y-92817294D01*
X160943441Y-92817294D01*
X160791918Y-92766787D01*
X160539380Y-92615264D01*
X160286842Y-92362726D01*
X160135319Y-92110188D01*
X160084811Y-91958665D01*
X160084811Y-91857649D01*
X160135319Y-91706127D01*
D10*
X165139666Y-141826761D02*
X165139666Y-141350571D01*
X165425380Y-141922000D02*
X164425380Y-141588666D01*
X165425380Y-141255333D01*
X165425380Y-140922000D02*
X164425380Y-140922000D01*
X164425380Y-140683904D01*
X164473000Y-140541047D01*
X164568238Y-140445809D01*
X164663476Y-140398190D01*
X164853952Y-140350571D01*
X164996809Y-140350571D01*
X165187285Y-140398190D01*
X165282523Y-140445809D01*
X165377761Y-140541047D01*
X165425380Y-140683904D01*
X165425380Y-140922000D01*
X165330142Y-139350571D02*
X165377761Y-139398190D01*
X165425380Y-139541047D01*
X165425380Y-139636285D01*
X165377761Y-139779142D01*
X165282523Y-139874380D01*
X165187285Y-139922000D01*
X164996809Y-139969619D01*
X164853952Y-139969619D01*
X164663476Y-139922000D01*
X164568238Y-139874380D01*
X164473000Y-139779142D01*
X164425380Y-139636285D01*
X164425380Y-139541047D01*
X164473000Y-139398190D01*
X164520619Y-139350571D01*
X165425380Y-138160095D02*
X164425380Y-138160095D01*
X164758714Y-137683904D02*
X165425380Y-137683904D01*
X164853952Y-137683904D02*
X164806333Y-137636285D01*
X164758714Y-137541047D01*
X164758714Y-137398190D01*
X164806333Y-137302952D01*
X164901571Y-137255333D01*
X165425380Y-137255333D01*
X164758714Y-136779142D02*
X165758714Y-136779142D01*
X164806333Y-136779142D02*
X164758714Y-136683904D01*
X164758714Y-136493428D01*
X164806333Y-136398190D01*
X164853952Y-136350571D01*
X164949190Y-136302952D01*
X165234904Y-136302952D01*
X165330142Y-136350571D01*
X165377761Y-136398190D01*
X165425380Y-136493428D01*
X165425380Y-136683904D01*
X165377761Y-136779142D01*
X164758714Y-135445809D02*
X165425380Y-135445809D01*
X164758714Y-135874380D02*
X165282523Y-135874380D01*
X165377761Y-135826761D01*
X165425380Y-135731523D01*
X165425380Y-135588666D01*
X165377761Y-135493428D01*
X165330142Y-135445809D01*
X164758714Y-135112476D02*
X164758714Y-134731523D01*
X164425380Y-134969619D02*
X165282523Y-134969619D01*
X165377761Y-134922000D01*
X165425380Y-134826761D01*
X165425380Y-134731523D01*
X165377761Y-134445809D02*
X165425380Y-134350571D01*
X165425380Y-134160095D01*
X165377761Y-134064857D01*
X165282523Y-134017238D01*
X165234904Y-134017238D01*
X165139666Y-134064857D01*
X165092047Y-134160095D01*
X165092047Y-134302952D01*
X165044428Y-134398190D01*
X164949190Y-134445809D01*
X164901571Y-134445809D01*
X164806333Y-134398190D01*
X164758714Y-134302952D01*
X164758714Y-134160095D01*
X164806333Y-134064857D01*
D12*
%TO.C,C16*%
X116732000Y-121012000D02*
X119082000Y-121012000D01*
X123552000Y-121012000D02*
X121202000Y-121012000D01*
X123552000Y-115256437D02*
X123552000Y-121012000D01*
X116732000Y-115256437D02*
X116732000Y-121012000D01*
X117796437Y-114192000D02*
X119082000Y-114192000D01*
X122487563Y-114192000D02*
X121202000Y-114192000D01*
X122487563Y-114192000D02*
X123552000Y-115256437D01*
X117796437Y-114192000D02*
X116732000Y-115256437D01*
X121989500Y-113164500D02*
X121989500Y-113952000D01*
X122383250Y-113558250D02*
X121595750Y-113558250D01*
%TO.C,P2*%
X170494000Y-146110000D02*
X170494000Y-143450000D01*
X170434000Y-146110000D02*
X170494000Y-146110000D01*
X170434000Y-143450000D02*
X170494000Y-143450000D01*
X170434000Y-146110000D02*
X170434000Y-143450000D01*
X169164000Y-146110000D02*
X167834000Y-146110000D01*
X167834000Y-146110000D02*
X167834000Y-144780000D01*
D13*
%TO.C,IC8*%
X119250000Y-93000000D02*
X121050000Y-93000000D01*
X121400000Y-102900000D02*
X121400000Y-92700000D01*
X126000000Y-102900000D02*
X121400000Y-102900000D01*
X126000000Y-92700000D02*
X126000000Y-102900000D01*
X121400000Y-92700000D02*
X126000000Y-92700000D01*
D12*
%TO.C,C6*%
X101287252Y-102135000D02*
X100764748Y-102135000D01*
X101287252Y-103605000D02*
X100764748Y-103605000D01*
%TO.C,C7*%
X95242748Y-102135000D02*
X95765252Y-102135000D01*
X95242748Y-103605000D02*
X95765252Y-103605000D01*
%TO.C,C13*%
X149887000Y-134104748D02*
X149887000Y-134627252D01*
X151357000Y-134104748D02*
X151357000Y-134627252D01*
%TO.C,C15*%
X60265000Y-106738748D02*
X60265000Y-107261252D01*
X61735000Y-106738748D02*
X61735000Y-107261252D01*
%TO.C,C21*%
X58035000Y-106738748D02*
X58035000Y-107261252D01*
X56565000Y-106738748D02*
X56565000Y-107261252D01*
D13*
%TO.C,IC4*%
X153522000Y-130516000D02*
X155022000Y-130516000D01*
X155372000Y-135546000D02*
X155372000Y-130646000D01*
X158572000Y-135546000D02*
X155372000Y-135546000D01*
X158572000Y-130646000D02*
X158572000Y-135546000D01*
X155372000Y-130646000D02*
X158572000Y-130646000D01*
%TO.C,IC5*%
X73350000Y-116450000D02*
X82650000Y-116450000D01*
X82650000Y-116450000D02*
X82650000Y-125750000D01*
X82650000Y-125750000D02*
X73350000Y-125750000D01*
X73350000Y-125750000D02*
X73350000Y-116450000D01*
D14*
X71875000Y-116600000D02*
G75*
G03*
X71875000Y-116600000I-125000J0D01*
G01*
D13*
%TO.C,IC6*%
X159440000Y-119940000D02*
X163140000Y-119940000D01*
X163140000Y-119940000D02*
X163140000Y-126440000D01*
X163140000Y-126440000D02*
X159440000Y-126440000D01*
X159440000Y-126440000D02*
X159440000Y-119940000D01*
X157615000Y-119690000D02*
X159090000Y-119690000D01*
%TO.C,IC7*%
X122950000Y-141290000D02*
X118350000Y-141290000D01*
X118350000Y-141290000D02*
X118350000Y-131090000D01*
X118350000Y-131090000D02*
X122950000Y-131090000D01*
X122950000Y-131090000D02*
X122950000Y-141290000D01*
X125100000Y-140990000D02*
X123300000Y-140990000D01*
D12*
%TO.C,J1*%
X56360000Y-96800000D02*
X56360000Y-87800000D01*
X56360000Y-87800000D02*
X65560000Y-87800000D01*
X65560000Y-87800000D02*
X65560000Y-102400000D01*
X65560000Y-102400000D02*
X62760000Y-102400000D01*
X59160000Y-102400000D02*
X56360000Y-102400000D01*
X56360000Y-102400000D02*
X56360000Y-100400000D01*
X65800000Y-100900000D02*
X65800000Y-102640000D01*
X65800000Y-102640000D02*
X64060000Y-102640000D01*
%TO.C,J2*%
X56372500Y-116750000D02*
X56372500Y-117200000D01*
X54522500Y-116750000D02*
X56372500Y-116750000D01*
X51972500Y-124550000D02*
X52222500Y-124550000D01*
X51972500Y-116750000D02*
X52222500Y-116750000D01*
X54522500Y-124550000D02*
X56372500Y-124550000D01*
X56372500Y-124550000D02*
X56372500Y-124100000D01*
X56922500Y-118950000D02*
X56922500Y-119400000D01*
X56922500Y-118950000D02*
X56472500Y-118950000D01*
%TO.C,R13*%
X54837064Y-129005000D02*
X54382936Y-129005000D01*
X54837064Y-127535000D02*
X54382936Y-127535000D01*
%TO.C,R18*%
X64439564Y-122035000D02*
X63985436Y-122035000D01*
X64439564Y-120565000D02*
X63985436Y-120565000D01*
%TO.C,Y1*%
X101605000Y-109605000D02*
X95355000Y-109605000D01*
X101605000Y-104555000D02*
X95355000Y-104555000D01*
X101605000Y-104555000D02*
G75*
G02*
X101605000Y-109605000I0J-2525000D01*
G01*
X95355000Y-104555000D02*
G75*
G03*
X95355000Y-109605000I0J-2525000D01*
G01*
D13*
%TO.C,IC2*%
X161156000Y-111530000D02*
X163456000Y-111530000D01*
X163456000Y-111530000D02*
X163456000Y-114530000D01*
X163456000Y-114530000D02*
X161156000Y-114530000D01*
X161156000Y-114530000D02*
X161156000Y-111530000D01*
X159356000Y-111530000D02*
X160806000Y-111530000D01*
D12*
%TO.C,P1*%
X172660000Y-104200000D02*
X175320000Y-104200000D01*
X172660000Y-104140000D02*
X172660000Y-104200000D01*
X175320000Y-104140000D02*
X175320000Y-104200000D01*
X172660000Y-104140000D02*
X175320000Y-104140000D01*
X172660000Y-102870000D02*
X172660000Y-101540000D01*
X172660000Y-101540000D02*
X173990000Y-101540000D01*
%TO.C,P12*%
X172660000Y-146110000D02*
X172660000Y-144780000D01*
X173990000Y-146110000D02*
X172660000Y-146110000D01*
X175260000Y-146110000D02*
X175260000Y-143450000D01*
X175260000Y-143450000D02*
X175320000Y-143450000D01*
X175260000Y-146110000D02*
X175320000Y-146110000D01*
X175320000Y-146110000D02*
X175320000Y-143450000D01*
%TO.C,P45*%
X172660000Y-141792000D02*
X172660000Y-140462000D01*
X173990000Y-141792000D02*
X172660000Y-141792000D01*
X175260000Y-141792000D02*
X175260000Y-139132000D01*
X175260000Y-139132000D02*
X175320000Y-139132000D01*
X175260000Y-141792000D02*
X175320000Y-141792000D01*
X175320000Y-141792000D02*
X175320000Y-139132000D01*
%TO.C,P46*%
X170494000Y-141792000D02*
X170494000Y-139132000D01*
X170434000Y-141792000D02*
X170494000Y-141792000D01*
X170434000Y-139132000D02*
X170494000Y-139132000D01*
X170434000Y-141792000D02*
X170434000Y-139132000D01*
X169164000Y-141792000D02*
X167834000Y-141792000D01*
X167834000Y-141792000D02*
X167834000Y-140462000D01*
%TO.C,P47*%
X175320000Y-132140000D02*
X175320000Y-129480000D01*
X175260000Y-132140000D02*
X175320000Y-132140000D01*
X175260000Y-129480000D02*
X175320000Y-129480000D01*
X175260000Y-132140000D02*
X175260000Y-129480000D01*
X173990000Y-132140000D02*
X172660000Y-132140000D01*
X172660000Y-132140000D02*
X172660000Y-130810000D01*
%TO.C,P48*%
X172660000Y-136712000D02*
X172660000Y-135382000D01*
X173990000Y-136712000D02*
X172660000Y-136712000D01*
X175260000Y-136712000D02*
X175260000Y-134052000D01*
X175260000Y-134052000D02*
X175320000Y-134052000D01*
X175260000Y-136712000D02*
X175320000Y-136712000D01*
X175320000Y-136712000D02*
X175320000Y-134052000D01*
%TO.C,P49*%
X170494000Y-132140000D02*
X170494000Y-129480000D01*
X170434000Y-132140000D02*
X170494000Y-132140000D01*
X170434000Y-129480000D02*
X170494000Y-129480000D01*
X170434000Y-132140000D02*
X170434000Y-129480000D01*
X169164000Y-132140000D02*
X167834000Y-132140000D01*
X167834000Y-132140000D02*
X167834000Y-130810000D01*
%TO.C,P50*%
X170494000Y-136712000D02*
X170494000Y-134052000D01*
X170434000Y-136712000D02*
X170494000Y-136712000D01*
X170434000Y-134052000D02*
X170494000Y-134052000D01*
X170434000Y-136712000D02*
X170434000Y-134052000D01*
X169164000Y-136712000D02*
X167834000Y-136712000D01*
X167834000Y-136712000D02*
X167834000Y-135382000D01*
%TO.C,C16*%
D10*
X124849142Y-118244857D02*
X124896761Y-118292476D01*
X124944380Y-118435333D01*
X124944380Y-118530571D01*
X124896761Y-118673428D01*
X124801523Y-118768666D01*
X124706285Y-118816285D01*
X124515809Y-118863904D01*
X124372952Y-118863904D01*
X124182476Y-118816285D01*
X124087238Y-118768666D01*
X123992000Y-118673428D01*
X123944380Y-118530571D01*
X123944380Y-118435333D01*
X123992000Y-118292476D01*
X124039619Y-118244857D01*
X124944380Y-117292476D02*
X124944380Y-117863904D01*
X124944380Y-117578190D02*
X123944380Y-117578190D01*
X124087238Y-117673428D01*
X124182476Y-117768666D01*
X124230095Y-117863904D01*
X123944380Y-116435333D02*
X123944380Y-116625809D01*
X123992000Y-116721047D01*
X124039619Y-116768666D01*
X124182476Y-116863904D01*
X124372952Y-116911523D01*
X124753904Y-116911523D01*
X124849142Y-116863904D01*
X124896761Y-116816285D01*
X124944380Y-116721047D01*
X124944380Y-116530571D01*
X124896761Y-116435333D01*
X124849142Y-116387714D01*
X124753904Y-116340095D01*
X124515809Y-116340095D01*
X124420571Y-116387714D01*
X124372952Y-116435333D01*
X124325333Y-116530571D01*
X124325333Y-116721047D01*
X124372952Y-116816285D01*
X124420571Y-116863904D01*
X124515809Y-116911523D01*
%TO.C,P2*%
X167286380Y-145518095D02*
X166286380Y-145518095D01*
X166286380Y-145137142D01*
X166334000Y-145041904D01*
X166381619Y-144994285D01*
X166476857Y-144946666D01*
X166619714Y-144946666D01*
X166714952Y-144994285D01*
X166762571Y-145041904D01*
X166810190Y-145137142D01*
X166810190Y-145518095D01*
X166381619Y-144565714D02*
X166334000Y-144518095D01*
X166286380Y-144422857D01*
X166286380Y-144184761D01*
X166334000Y-144089523D01*
X166381619Y-144041904D01*
X166476857Y-143994285D01*
X166572095Y-143994285D01*
X166714952Y-144041904D01*
X167286380Y-144613333D01*
X167286380Y-143994285D01*
%TO.C,IC8*%
D15*
X124274523Y-99039761D02*
X123004523Y-99039761D01*
X124153571Y-97709285D02*
X124214047Y-97769761D01*
X124274523Y-97951190D01*
X124274523Y-98072142D01*
X124214047Y-98253571D01*
X124093095Y-98374523D01*
X123972142Y-98435000D01*
X123730238Y-98495476D01*
X123548809Y-98495476D01*
X123306904Y-98435000D01*
X123185952Y-98374523D01*
X123065000Y-98253571D01*
X123004523Y-98072142D01*
X123004523Y-97951190D01*
X123065000Y-97769761D01*
X123125476Y-97709285D01*
X123548809Y-96983571D02*
X123488333Y-97104523D01*
X123427857Y-97165000D01*
X123306904Y-97225476D01*
X123246428Y-97225476D01*
X123125476Y-97165000D01*
X123065000Y-97104523D01*
X123004523Y-96983571D01*
X123004523Y-96741666D01*
X123065000Y-96620714D01*
X123125476Y-96560238D01*
X123246428Y-96499761D01*
X123306904Y-96499761D01*
X123427857Y-96560238D01*
X123488333Y-96620714D01*
X123548809Y-96741666D01*
X123548809Y-96983571D01*
X123609285Y-97104523D01*
X123669761Y-97165000D01*
X123790714Y-97225476D01*
X124032619Y-97225476D01*
X124153571Y-97165000D01*
X124214047Y-97104523D01*
X124274523Y-96983571D01*
X124274523Y-96741666D01*
X124214047Y-96620714D01*
X124153571Y-96560238D01*
X124032619Y-96499761D01*
X123790714Y-96499761D01*
X123669761Y-96560238D01*
X123609285Y-96620714D01*
X123548809Y-96741666D01*
%TO.C,C6*%
D10*
X100833333Y-101557142D02*
X100785714Y-101604761D01*
X100642857Y-101652380D01*
X100547619Y-101652380D01*
X100404761Y-101604761D01*
X100309523Y-101509523D01*
X100261904Y-101414285D01*
X100214285Y-101223809D01*
X100214285Y-101080952D01*
X100261904Y-100890476D01*
X100309523Y-100795238D01*
X100404761Y-100700000D01*
X100547619Y-100652380D01*
X100642857Y-100652380D01*
X100785714Y-100700000D01*
X100833333Y-100747619D01*
X101690476Y-100652380D02*
X101500000Y-100652380D01*
X101404761Y-100700000D01*
X101357142Y-100747619D01*
X101261904Y-100890476D01*
X101214285Y-101080952D01*
X101214285Y-101461904D01*
X101261904Y-101557142D01*
X101309523Y-101604761D01*
X101404761Y-101652380D01*
X101595238Y-101652380D01*
X101690476Y-101604761D01*
X101738095Y-101557142D01*
X101785714Y-101461904D01*
X101785714Y-101223809D01*
X101738095Y-101128571D01*
X101690476Y-101080952D01*
X101595238Y-101033333D01*
X101404761Y-101033333D01*
X101309523Y-101080952D01*
X101261904Y-101128571D01*
X101214285Y-101223809D01*
%TO.C,C7*%
X95337333Y-101547142D02*
X95289714Y-101594761D01*
X95146857Y-101642380D01*
X95051619Y-101642380D01*
X94908761Y-101594761D01*
X94813523Y-101499523D01*
X94765904Y-101404285D01*
X94718285Y-101213809D01*
X94718285Y-101070952D01*
X94765904Y-100880476D01*
X94813523Y-100785238D01*
X94908761Y-100690000D01*
X95051619Y-100642380D01*
X95146857Y-100642380D01*
X95289714Y-100690000D01*
X95337333Y-100737619D01*
X95670666Y-100642380D02*
X96337333Y-100642380D01*
X95908761Y-101642380D01*
%TO.C,C13*%
X149157142Y-135042857D02*
X149204761Y-135090476D01*
X149252380Y-135233333D01*
X149252380Y-135328571D01*
X149204761Y-135471428D01*
X149109523Y-135566666D01*
X149014285Y-135614285D01*
X148823809Y-135661904D01*
X148680952Y-135661904D01*
X148490476Y-135614285D01*
X148395238Y-135566666D01*
X148300000Y-135471428D01*
X148252380Y-135328571D01*
X148252380Y-135233333D01*
X148300000Y-135090476D01*
X148347619Y-135042857D01*
X149252380Y-134090476D02*
X149252380Y-134661904D01*
X149252380Y-134376190D02*
X148252380Y-134376190D01*
X148395238Y-134471428D01*
X148490476Y-134566666D01*
X148538095Y-134661904D01*
X148252380Y-133757142D02*
X148252380Y-133138095D01*
X148633333Y-133471428D01*
X148633333Y-133328571D01*
X148680952Y-133233333D01*
X148728571Y-133185714D01*
X148823809Y-133138095D01*
X149061904Y-133138095D01*
X149157142Y-133185714D01*
X149204761Y-133233333D01*
X149252380Y-133328571D01*
X149252380Y-133614285D01*
X149204761Y-133709523D01*
X149157142Y-133757142D01*
%TO.C,C15*%
X61357142Y-110842857D02*
X61404761Y-110890476D01*
X61452380Y-111033333D01*
X61452380Y-111128571D01*
X61404761Y-111271428D01*
X61309523Y-111366666D01*
X61214285Y-111414285D01*
X61023809Y-111461904D01*
X60880952Y-111461904D01*
X60690476Y-111414285D01*
X60595238Y-111366666D01*
X60500000Y-111271428D01*
X60452380Y-111128571D01*
X60452380Y-111033333D01*
X60500000Y-110890476D01*
X60547619Y-110842857D01*
X61452380Y-109890476D02*
X61452380Y-110461904D01*
X61452380Y-110176190D02*
X60452380Y-110176190D01*
X60595238Y-110271428D01*
X60690476Y-110366666D01*
X60738095Y-110461904D01*
X60452380Y-108985714D02*
X60452380Y-109461904D01*
X60928571Y-109509523D01*
X60880952Y-109461904D01*
X60833333Y-109366666D01*
X60833333Y-109128571D01*
X60880952Y-109033333D01*
X60928571Y-108985714D01*
X61023809Y-108938095D01*
X61261904Y-108938095D01*
X61357142Y-108985714D01*
X61404761Y-109033333D01*
X61452380Y-109128571D01*
X61452380Y-109366666D01*
X61404761Y-109461904D01*
X61357142Y-109509523D01*
%TO.C,C21*%
X57657142Y-110842857D02*
X57704761Y-110890476D01*
X57752380Y-111033333D01*
X57752380Y-111128571D01*
X57704761Y-111271428D01*
X57609523Y-111366666D01*
X57514285Y-111414285D01*
X57323809Y-111461904D01*
X57180952Y-111461904D01*
X56990476Y-111414285D01*
X56895238Y-111366666D01*
X56800000Y-111271428D01*
X56752380Y-111128571D01*
X56752380Y-111033333D01*
X56800000Y-110890476D01*
X56847619Y-110842857D01*
X56847619Y-110461904D02*
X56800000Y-110414285D01*
X56752380Y-110319047D01*
X56752380Y-110080952D01*
X56800000Y-109985714D01*
X56847619Y-109938095D01*
X56942857Y-109890476D01*
X57038095Y-109890476D01*
X57180952Y-109938095D01*
X57752380Y-110509523D01*
X57752380Y-109890476D01*
X57752380Y-108938095D02*
X57752380Y-109509523D01*
X57752380Y-109223809D02*
X56752380Y-109223809D01*
X56895238Y-109319047D01*
X56990476Y-109414285D01*
X57038095Y-109509523D01*
%TO.C,IC4*%
D15*
X155732238Y-133670523D02*
X155732238Y-132400523D01*
X157062714Y-133549571D02*
X157002238Y-133610047D01*
X156820809Y-133670523D01*
X156699857Y-133670523D01*
X156518428Y-133610047D01*
X156397476Y-133489095D01*
X156337000Y-133368142D01*
X156276523Y-133126238D01*
X156276523Y-132944809D01*
X156337000Y-132702904D01*
X156397476Y-132581952D01*
X156518428Y-132461000D01*
X156699857Y-132400523D01*
X156820809Y-132400523D01*
X157002238Y-132461000D01*
X157062714Y-132521476D01*
X158151285Y-132823857D02*
X158151285Y-133670523D01*
X157848904Y-132340047D02*
X157546523Y-133247190D01*
X158332714Y-133247190D01*
%TO.C,IC6*%
X160050238Y-123764523D02*
X160050238Y-122494523D01*
X161380714Y-123643571D02*
X161320238Y-123704047D01*
X161138809Y-123764523D01*
X161017857Y-123764523D01*
X160836428Y-123704047D01*
X160715476Y-123583095D01*
X160655000Y-123462142D01*
X160594523Y-123220238D01*
X160594523Y-123038809D01*
X160655000Y-122796904D01*
X160715476Y-122675952D01*
X160836428Y-122555000D01*
X161017857Y-122494523D01*
X161138809Y-122494523D01*
X161320238Y-122555000D01*
X161380714Y-122615476D01*
X162469285Y-122494523D02*
X162227380Y-122494523D01*
X162106428Y-122555000D01*
X162045952Y-122615476D01*
X161925000Y-122796904D01*
X161864523Y-123038809D01*
X161864523Y-123522619D01*
X161925000Y-123643571D01*
X161985476Y-123704047D01*
X162106428Y-123764523D01*
X162348333Y-123764523D01*
X162469285Y-123704047D01*
X162529761Y-123643571D01*
X162590238Y-123522619D01*
X162590238Y-123220238D01*
X162529761Y-123099285D01*
X162469285Y-123038809D01*
X162348333Y-122978333D01*
X162106428Y-122978333D01*
X161985476Y-123038809D01*
X161925000Y-123099285D01*
X161864523Y-123220238D01*
%TO.C,IC7*%
X121224523Y-137429761D02*
X119954523Y-137429761D01*
X121103571Y-136099285D02*
X121164047Y-136159761D01*
X121224523Y-136341190D01*
X121224523Y-136462142D01*
X121164047Y-136643571D01*
X121043095Y-136764523D01*
X120922142Y-136825000D01*
X120680238Y-136885476D01*
X120498809Y-136885476D01*
X120256904Y-136825000D01*
X120135952Y-136764523D01*
X120015000Y-136643571D01*
X119954523Y-136462142D01*
X119954523Y-136341190D01*
X120015000Y-136159761D01*
X120075476Y-136099285D01*
X119954523Y-135675952D02*
X119954523Y-134829285D01*
X121224523Y-135373571D01*
%TO.C,J1*%
D10*
X54662380Y-93483333D02*
X55376666Y-93483333D01*
X55519523Y-93530952D01*
X55614761Y-93626190D01*
X55662380Y-93769047D01*
X55662380Y-93864285D01*
X55662380Y-92483333D02*
X55662380Y-93054761D01*
X55662380Y-92769047D02*
X54662380Y-92769047D01*
X54805238Y-92864285D01*
X54900476Y-92959523D01*
X54948095Y-93054761D01*
%TO.C,J2*%
X57174880Y-120983333D02*
X57889166Y-120983333D01*
X58032023Y-121030952D01*
X58127261Y-121126190D01*
X58174880Y-121269047D01*
X58174880Y-121364285D01*
X57270119Y-120554761D02*
X57222500Y-120507142D01*
X57174880Y-120411904D01*
X57174880Y-120173809D01*
X57222500Y-120078571D01*
X57270119Y-120030952D01*
X57365357Y-119983333D01*
X57460595Y-119983333D01*
X57603452Y-120030952D01*
X58174880Y-120602380D01*
X58174880Y-119983333D01*
%TO.C,R13*%
X53967142Y-130372380D02*
X53633809Y-129896190D01*
X53395714Y-130372380D02*
X53395714Y-129372380D01*
X53776666Y-129372380D01*
X53871904Y-129420000D01*
X53919523Y-129467619D01*
X53967142Y-129562857D01*
X53967142Y-129705714D01*
X53919523Y-129800952D01*
X53871904Y-129848571D01*
X53776666Y-129896190D01*
X53395714Y-129896190D01*
X54919523Y-130372380D02*
X54348095Y-130372380D01*
X54633809Y-130372380D02*
X54633809Y-129372380D01*
X54538571Y-129515238D01*
X54443333Y-129610476D01*
X54348095Y-129658095D01*
X55252857Y-129372380D02*
X55871904Y-129372380D01*
X55538571Y-129753333D01*
X55681428Y-129753333D01*
X55776666Y-129800952D01*
X55824285Y-129848571D01*
X55871904Y-129943809D01*
X55871904Y-130181904D01*
X55824285Y-130277142D01*
X55776666Y-130324761D01*
X55681428Y-130372380D01*
X55395714Y-130372380D01*
X55300476Y-130324761D01*
X55252857Y-130277142D01*
%TO.C,R18*%
X63569642Y-123402380D02*
X63236309Y-122926190D01*
X62998214Y-123402380D02*
X62998214Y-122402380D01*
X63379166Y-122402380D01*
X63474404Y-122450000D01*
X63522023Y-122497619D01*
X63569642Y-122592857D01*
X63569642Y-122735714D01*
X63522023Y-122830952D01*
X63474404Y-122878571D01*
X63379166Y-122926190D01*
X62998214Y-122926190D01*
X64522023Y-123402380D02*
X63950595Y-123402380D01*
X64236309Y-123402380D02*
X64236309Y-122402380D01*
X64141071Y-122545238D01*
X64045833Y-122640476D01*
X63950595Y-122688095D01*
X65093452Y-122830952D02*
X64998214Y-122783333D01*
X64950595Y-122735714D01*
X64902976Y-122640476D01*
X64902976Y-122592857D01*
X64950595Y-122497619D01*
X64998214Y-122450000D01*
X65093452Y-122402380D01*
X65283928Y-122402380D01*
X65379166Y-122450000D01*
X65426785Y-122497619D01*
X65474404Y-122592857D01*
X65474404Y-122640476D01*
X65426785Y-122735714D01*
X65379166Y-122783333D01*
X65283928Y-122830952D01*
X65093452Y-122830952D01*
X64998214Y-122878571D01*
X64950595Y-122926190D01*
X64902976Y-123021428D01*
X64902976Y-123211904D01*
X64950595Y-123307142D01*
X64998214Y-123354761D01*
X65093452Y-123402380D01*
X65283928Y-123402380D01*
X65379166Y-123354761D01*
X65426785Y-123307142D01*
X65474404Y-123211904D01*
X65474404Y-123021428D01*
X65426785Y-122926190D01*
X65379166Y-122878571D01*
X65283928Y-122830952D01*
%TO.C,Y1*%
X98003809Y-110581190D02*
X98003809Y-111057380D01*
X97670476Y-110057380D02*
X98003809Y-110581190D01*
X98337142Y-110057380D01*
X99194285Y-111057380D02*
X98622857Y-111057380D01*
X98908571Y-111057380D02*
X98908571Y-110057380D01*
X98813333Y-110200238D01*
X98718095Y-110295476D01*
X98622857Y-110343095D01*
%TO.C,IC2*%
D15*
X161060238Y-110874523D02*
X161060238Y-109604523D01*
X162390714Y-110753571D02*
X162330238Y-110814047D01*
X162148809Y-110874523D01*
X162027857Y-110874523D01*
X161846428Y-110814047D01*
X161725476Y-110693095D01*
X161665000Y-110572142D01*
X161604523Y-110330238D01*
X161604523Y-110148809D01*
X161665000Y-109906904D01*
X161725476Y-109785952D01*
X161846428Y-109665000D01*
X162027857Y-109604523D01*
X162148809Y-109604523D01*
X162330238Y-109665000D01*
X162390714Y-109725476D01*
X162874523Y-109725476D02*
X162935000Y-109665000D01*
X163055952Y-109604523D01*
X163358333Y-109604523D01*
X163479285Y-109665000D01*
X163539761Y-109725476D01*
X163600238Y-109846428D01*
X163600238Y-109967380D01*
X163539761Y-110148809D01*
X162814047Y-110874523D01*
X163600238Y-110874523D01*
%TO.C,P1*%
D10*
X172003980Y-103608095D02*
X171003980Y-103608095D01*
X171003980Y-103227142D01*
X171051600Y-103131904D01*
X171099219Y-103084285D01*
X171194457Y-103036666D01*
X171337314Y-103036666D01*
X171432552Y-103084285D01*
X171480171Y-103131904D01*
X171527790Y-103227142D01*
X171527790Y-103608095D01*
X172003980Y-102084285D02*
X172003980Y-102655714D01*
X172003980Y-102370000D02*
X171003980Y-102370000D01*
X171146838Y-102465238D01*
X171242076Y-102560476D01*
X171289695Y-102655714D01*
%TO.C,P12*%
X172112380Y-145994285D02*
X171112380Y-145994285D01*
X171112380Y-145613333D01*
X171160000Y-145518095D01*
X171207619Y-145470476D01*
X171302857Y-145422857D01*
X171445714Y-145422857D01*
X171540952Y-145470476D01*
X171588571Y-145518095D01*
X171636190Y-145613333D01*
X171636190Y-145994285D01*
X172112380Y-144470476D02*
X172112380Y-145041904D01*
X172112380Y-144756190D02*
X171112380Y-144756190D01*
X171255238Y-144851428D01*
X171350476Y-144946666D01*
X171398095Y-145041904D01*
X171207619Y-144089523D02*
X171160000Y-144041904D01*
X171112380Y-143946666D01*
X171112380Y-143708571D01*
X171160000Y-143613333D01*
X171207619Y-143565714D01*
X171302857Y-143518095D01*
X171398095Y-143518095D01*
X171540952Y-143565714D01*
X172112380Y-144137142D01*
X172112380Y-143518095D01*
%TO.C,P45*%
X172112380Y-141676285D02*
X171112380Y-141676285D01*
X171112380Y-141295333D01*
X171160000Y-141200095D01*
X171207619Y-141152476D01*
X171302857Y-141104857D01*
X171445714Y-141104857D01*
X171540952Y-141152476D01*
X171588571Y-141200095D01*
X171636190Y-141295333D01*
X171636190Y-141676285D01*
X171445714Y-140247714D02*
X172112380Y-140247714D01*
X171064761Y-140485809D02*
X171779047Y-140723904D01*
X171779047Y-140104857D01*
X171112380Y-139247714D02*
X171112380Y-139723904D01*
X171588571Y-139771523D01*
X171540952Y-139723904D01*
X171493333Y-139628666D01*
X171493333Y-139390571D01*
X171540952Y-139295333D01*
X171588571Y-139247714D01*
X171683809Y-139200095D01*
X171921904Y-139200095D01*
X172017142Y-139247714D01*
X172064761Y-139295333D01*
X172112380Y-139390571D01*
X172112380Y-139628666D01*
X172064761Y-139723904D01*
X172017142Y-139771523D01*
%TO.C,P46*%
X167286380Y-141676285D02*
X166286380Y-141676285D01*
X166286380Y-141295333D01*
X166334000Y-141200095D01*
X166381619Y-141152476D01*
X166476857Y-141104857D01*
X166619714Y-141104857D01*
X166714952Y-141152476D01*
X166762571Y-141200095D01*
X166810190Y-141295333D01*
X166810190Y-141676285D01*
X166619714Y-140247714D02*
X167286380Y-140247714D01*
X166238761Y-140485809D02*
X166953047Y-140723904D01*
X166953047Y-140104857D01*
X166286380Y-139295333D02*
X166286380Y-139485809D01*
X166334000Y-139581047D01*
X166381619Y-139628666D01*
X166524476Y-139723904D01*
X166714952Y-139771523D01*
X167095904Y-139771523D01*
X167191142Y-139723904D01*
X167238761Y-139676285D01*
X167286380Y-139581047D01*
X167286380Y-139390571D01*
X167238761Y-139295333D01*
X167191142Y-139247714D01*
X167095904Y-139200095D01*
X166857809Y-139200095D01*
X166762571Y-139247714D01*
X166714952Y-139295333D01*
X166667333Y-139390571D01*
X166667333Y-139581047D01*
X166714952Y-139676285D01*
X166762571Y-139723904D01*
X166857809Y-139771523D01*
%TO.C,P47*%
X172112380Y-132024285D02*
X171112380Y-132024285D01*
X171112380Y-131643333D01*
X171160000Y-131548095D01*
X171207619Y-131500476D01*
X171302857Y-131452857D01*
X171445714Y-131452857D01*
X171540952Y-131500476D01*
X171588571Y-131548095D01*
X171636190Y-131643333D01*
X171636190Y-132024285D01*
X171445714Y-130595714D02*
X172112380Y-130595714D01*
X171064761Y-130833809D02*
X171779047Y-131071904D01*
X171779047Y-130452857D01*
X171112380Y-130167142D02*
X171112380Y-129500476D01*
X172112380Y-129929047D01*
%TO.C,P48*%
X172112380Y-136596285D02*
X171112380Y-136596285D01*
X171112380Y-136215333D01*
X171160000Y-136120095D01*
X171207619Y-136072476D01*
X171302857Y-136024857D01*
X171445714Y-136024857D01*
X171540952Y-136072476D01*
X171588571Y-136120095D01*
X171636190Y-136215333D01*
X171636190Y-136596285D01*
X171445714Y-135167714D02*
X172112380Y-135167714D01*
X171064761Y-135405809D02*
X171779047Y-135643904D01*
X171779047Y-135024857D01*
X171540952Y-134501047D02*
X171493333Y-134596285D01*
X171445714Y-134643904D01*
X171350476Y-134691523D01*
X171302857Y-134691523D01*
X171207619Y-134643904D01*
X171160000Y-134596285D01*
X171112380Y-134501047D01*
X171112380Y-134310571D01*
X171160000Y-134215333D01*
X171207619Y-134167714D01*
X171302857Y-134120095D01*
X171350476Y-134120095D01*
X171445714Y-134167714D01*
X171493333Y-134215333D01*
X171540952Y-134310571D01*
X171540952Y-134501047D01*
X171588571Y-134596285D01*
X171636190Y-134643904D01*
X171731428Y-134691523D01*
X171921904Y-134691523D01*
X172017142Y-134643904D01*
X172064761Y-134596285D01*
X172112380Y-134501047D01*
X172112380Y-134310571D01*
X172064761Y-134215333D01*
X172017142Y-134167714D01*
X171921904Y-134120095D01*
X171731428Y-134120095D01*
X171636190Y-134167714D01*
X171588571Y-134215333D01*
X171540952Y-134310571D01*
%TO.C,P49*%
X167286380Y-132024285D02*
X166286380Y-132024285D01*
X166286380Y-131643333D01*
X166334000Y-131548095D01*
X166381619Y-131500476D01*
X166476857Y-131452857D01*
X166619714Y-131452857D01*
X166714952Y-131500476D01*
X166762571Y-131548095D01*
X166810190Y-131643333D01*
X166810190Y-132024285D01*
X166619714Y-130595714D02*
X167286380Y-130595714D01*
X166238761Y-130833809D02*
X166953047Y-131071904D01*
X166953047Y-130452857D01*
X167286380Y-130024285D02*
X167286380Y-129833809D01*
X167238761Y-129738571D01*
X167191142Y-129690952D01*
X167048285Y-129595714D01*
X166857809Y-129548095D01*
X166476857Y-129548095D01*
X166381619Y-129595714D01*
X166334000Y-129643333D01*
X166286380Y-129738571D01*
X166286380Y-129929047D01*
X166334000Y-130024285D01*
X166381619Y-130071904D01*
X166476857Y-130119523D01*
X166714952Y-130119523D01*
X166810190Y-130071904D01*
X166857809Y-130024285D01*
X166905428Y-129929047D01*
X166905428Y-129738571D01*
X166857809Y-129643333D01*
X166810190Y-129595714D01*
X166714952Y-129548095D01*
%TO.C,P50*%
X167286380Y-136596285D02*
X166286380Y-136596285D01*
X166286380Y-136215333D01*
X166334000Y-136120095D01*
X166381619Y-136072476D01*
X166476857Y-136024857D01*
X166619714Y-136024857D01*
X166714952Y-136072476D01*
X166762571Y-136120095D01*
X166810190Y-136215333D01*
X166810190Y-136596285D01*
X166286380Y-135120095D02*
X166286380Y-135596285D01*
X166762571Y-135643904D01*
X166714952Y-135596285D01*
X166667333Y-135501047D01*
X166667333Y-135262952D01*
X166714952Y-135167714D01*
X166762571Y-135120095D01*
X166857809Y-135072476D01*
X167095904Y-135072476D01*
X167191142Y-135120095D01*
X167238761Y-135167714D01*
X167286380Y-135262952D01*
X167286380Y-135501047D01*
X167238761Y-135596285D01*
X167191142Y-135643904D01*
X166286380Y-134453428D02*
X166286380Y-134358190D01*
X166334000Y-134262952D01*
X166381619Y-134215333D01*
X166476857Y-134167714D01*
X166667333Y-134120095D01*
X166905428Y-134120095D01*
X167095904Y-134167714D01*
X167191142Y-134215333D01*
X167238761Y-134262952D01*
X167286380Y-134358190D01*
X167286380Y-134453428D01*
X167238761Y-134548666D01*
X167191142Y-134596285D01*
X167095904Y-134643904D01*
X166905428Y-134691523D01*
X166667333Y-134691523D01*
X166476857Y-134643904D01*
X166381619Y-134596285D01*
X166334000Y-134548666D01*
X166286380Y-134453428D01*
%TD*%
M02*
