G04 #@! TF.GenerationSoftware,KiCad,Pcbnew,(5.1.7)-1*
G04 #@! TF.CreationDate,2020-11-10T12:14:26-06:00*
G04 #@! TF.ProjectId,MCU breakout board,4d435520-6272-4656-916b-6f757420626f,rev?*
G04 #@! TF.SameCoordinates,Original*
G04 #@! TF.FileFunction,Soldermask,Bot*
G04 #@! TF.FilePolarity,Negative*
%FSLAX46Y46*%
G04 Gerber Fmt 4.6, Leading zero omitted, Abs format (unit mm)*
G04 Created by KiCad (PCBNEW (5.1.7)-1) date 2020-11-10 12:14:26*
%MOMM*%
%LPD*%
G01*
G04 APERTURE LIST*
%ADD10R,1.700000X1.700000*%
%ADD11R,1.600000X1.600000*%
%ADD12O,1.600000X1.600000*%
%ADD13R,2.200000X2.200000*%
%ADD14O,2.200000X2.200000*%
%ADD15R,1.425000X0.300000*%
%ADD16R,1.680000X1.880000*%
%ADD17R,2.600000X2.600000*%
%ADD18C,2.600000*%
%ADD19C,1.450000*%
%ADD20O,1.900000X1.200000*%
%ADD21C,1.500000*%
%ADD22O,6.000000X6.000000*%
%ADD23R,1.800000X1.275000*%
%ADD24O,1.800000X1.275000*%
G04 APERTURE END LIST*
D10*
G04 #@! TO.C,P2*
X169164000Y-144780000D03*
G04 #@! TD*
D11*
G04 #@! TO.C,U2*
X65510000Y-144630000D03*
D12*
X73130000Y-137010000D03*
X65510000Y-142090000D03*
X73130000Y-139550000D03*
X65510000Y-139550000D03*
X73130000Y-142090000D03*
X65510000Y-137010000D03*
X73130000Y-144630000D03*
G04 #@! TD*
G04 #@! TO.C,C1*
G36*
G01*
X79575000Y-120740000D02*
X78625000Y-120740000D01*
G75*
G02*
X78375000Y-120490000I0J250000D01*
G01*
X78375000Y-119990000D01*
G75*
G02*
X78625000Y-119740000I250000J0D01*
G01*
X79575000Y-119740000D01*
G75*
G02*
X79825000Y-119990000I0J-250000D01*
G01*
X79825000Y-120490000D01*
G75*
G02*
X79575000Y-120740000I-250000J0D01*
G01*
G37*
G36*
G01*
X79575000Y-122640000D02*
X78625000Y-122640000D01*
G75*
G02*
X78375000Y-122390000I0J250000D01*
G01*
X78375000Y-121890000D01*
G75*
G02*
X78625000Y-121640000I250000J0D01*
G01*
X79575000Y-121640000D01*
G75*
G02*
X79825000Y-121890000I0J-250000D01*
G01*
X79825000Y-122390000D01*
G75*
G02*
X79575000Y-122640000I-250000J0D01*
G01*
G37*
G04 #@! TD*
G04 #@! TO.C,C2*
G36*
G01*
X81975000Y-120750000D02*
X81025000Y-120750000D01*
G75*
G02*
X80775000Y-120500000I0J250000D01*
G01*
X80775000Y-120000000D01*
G75*
G02*
X81025000Y-119750000I250000J0D01*
G01*
X81975000Y-119750000D01*
G75*
G02*
X82225000Y-120000000I0J-250000D01*
G01*
X82225000Y-120500000D01*
G75*
G02*
X81975000Y-120750000I-250000J0D01*
G01*
G37*
G36*
G01*
X81975000Y-122650000D02*
X81025000Y-122650000D01*
G75*
G02*
X80775000Y-122400000I0J250000D01*
G01*
X80775000Y-121900000D01*
G75*
G02*
X81025000Y-121650000I250000J0D01*
G01*
X81975000Y-121650000D01*
G75*
G02*
X82225000Y-121900000I0J-250000D01*
G01*
X82225000Y-122400000D01*
G75*
G02*
X81975000Y-122650000I-250000J0D01*
G01*
G37*
G04 #@! TD*
G04 #@! TO.C,C3*
G36*
G01*
X171610000Y-122250000D02*
X170660000Y-122250000D01*
G75*
G02*
X170410000Y-122000000I0J250000D01*
G01*
X170410000Y-121500000D01*
G75*
G02*
X170660000Y-121250000I250000J0D01*
G01*
X171610000Y-121250000D01*
G75*
G02*
X171860000Y-121500000I0J-250000D01*
G01*
X171860000Y-122000000D01*
G75*
G02*
X171610000Y-122250000I-250000J0D01*
G01*
G37*
G36*
G01*
X171610000Y-120350000D02*
X170660000Y-120350000D01*
G75*
G02*
X170410000Y-120100000I0J250000D01*
G01*
X170410000Y-119600000D01*
G75*
G02*
X170660000Y-119350000I250000J0D01*
G01*
X171610000Y-119350000D01*
G75*
G02*
X171860000Y-119600000I0J-250000D01*
G01*
X171860000Y-120100000D01*
G75*
G02*
X171610000Y-120350000I-250000J0D01*
G01*
G37*
G04 #@! TD*
G04 #@! TO.C,C4*
G36*
G01*
X77175000Y-122640000D02*
X76225000Y-122640000D01*
G75*
G02*
X75975000Y-122390000I0J250000D01*
G01*
X75975000Y-121890000D01*
G75*
G02*
X76225000Y-121640000I250000J0D01*
G01*
X77175000Y-121640000D01*
G75*
G02*
X77425000Y-121890000I0J-250000D01*
G01*
X77425000Y-122390000D01*
G75*
G02*
X77175000Y-122640000I-250000J0D01*
G01*
G37*
G36*
G01*
X77175000Y-120740000D02*
X76225000Y-120740000D01*
G75*
G02*
X75975000Y-120490000I0J250000D01*
G01*
X75975000Y-119990000D01*
G75*
G02*
X76225000Y-119740000I250000J0D01*
G01*
X77175000Y-119740000D01*
G75*
G02*
X77425000Y-119990000I0J-250000D01*
G01*
X77425000Y-120490000D01*
G75*
G02*
X77175000Y-120740000I-250000J0D01*
G01*
G37*
G04 #@! TD*
G04 #@! TO.C,C5*
G36*
G01*
X74875000Y-120740000D02*
X73925000Y-120740000D01*
G75*
G02*
X73675000Y-120490000I0J250000D01*
G01*
X73675000Y-119990000D01*
G75*
G02*
X73925000Y-119740000I250000J0D01*
G01*
X74875000Y-119740000D01*
G75*
G02*
X75125000Y-119990000I0J-250000D01*
G01*
X75125000Y-120490000D01*
G75*
G02*
X74875000Y-120740000I-250000J0D01*
G01*
G37*
G36*
G01*
X74875000Y-122640000D02*
X73925000Y-122640000D01*
G75*
G02*
X73675000Y-122390000I0J250000D01*
G01*
X73675000Y-121890000D01*
G75*
G02*
X73925000Y-121640000I250000J0D01*
G01*
X74875000Y-121640000D01*
G75*
G02*
X75125000Y-121890000I0J-250000D01*
G01*
X75125000Y-122390000D01*
G75*
G02*
X74875000Y-122640000I-250000J0D01*
G01*
G37*
G04 #@! TD*
G04 #@! TO.C,C8*
G36*
G01*
X103812000Y-122207000D02*
X103812000Y-123157000D01*
G75*
G02*
X103562000Y-123407000I-250000J0D01*
G01*
X103062000Y-123407000D01*
G75*
G02*
X102812000Y-123157000I0J250000D01*
G01*
X102812000Y-122207000D01*
G75*
G02*
X103062000Y-121957000I250000J0D01*
G01*
X103562000Y-121957000D01*
G75*
G02*
X103812000Y-122207000I0J-250000D01*
G01*
G37*
G36*
G01*
X101912000Y-122207000D02*
X101912000Y-123157000D01*
G75*
G02*
X101662000Y-123407000I-250000J0D01*
G01*
X101162000Y-123407000D01*
G75*
G02*
X100912000Y-123157000I0J250000D01*
G01*
X100912000Y-122207000D01*
G75*
G02*
X101162000Y-121957000I250000J0D01*
G01*
X101662000Y-121957000D01*
G75*
G02*
X101912000Y-122207000I0J-250000D01*
G01*
G37*
G04 #@! TD*
G04 #@! TO.C,C9*
G36*
G01*
X78825000Y-139650000D02*
X79775000Y-139650000D01*
G75*
G02*
X80025000Y-139900000I0J-250000D01*
G01*
X80025000Y-140400000D01*
G75*
G02*
X79775000Y-140650000I-250000J0D01*
G01*
X78825000Y-140650000D01*
G75*
G02*
X78575000Y-140400000I0J250000D01*
G01*
X78575000Y-139900000D01*
G75*
G02*
X78825000Y-139650000I250000J0D01*
G01*
G37*
G36*
G01*
X78825000Y-141550000D02*
X79775000Y-141550000D01*
G75*
G02*
X80025000Y-141800000I0J-250000D01*
G01*
X80025000Y-142300000D01*
G75*
G02*
X79775000Y-142550000I-250000J0D01*
G01*
X78825000Y-142550000D01*
G75*
G02*
X78575000Y-142300000I0J250000D01*
G01*
X78575000Y-141800000D01*
G75*
G02*
X78825000Y-141550000I250000J0D01*
G01*
G37*
G04 #@! TD*
G04 #@! TO.C,C10*
G36*
G01*
X172245000Y-115520000D02*
X173195000Y-115520000D01*
G75*
G02*
X173445000Y-115770000I0J-250000D01*
G01*
X173445000Y-116270000D01*
G75*
G02*
X173195000Y-116520000I-250000J0D01*
G01*
X172245000Y-116520000D01*
G75*
G02*
X171995000Y-116270000I0J250000D01*
G01*
X171995000Y-115770000D01*
G75*
G02*
X172245000Y-115520000I250000J0D01*
G01*
G37*
G36*
G01*
X172245000Y-117420000D02*
X173195000Y-117420000D01*
G75*
G02*
X173445000Y-117670000I0J-250000D01*
G01*
X173445000Y-118170000D01*
G75*
G02*
X173195000Y-118420000I-250000J0D01*
G01*
X172245000Y-118420000D01*
G75*
G02*
X171995000Y-118170000I0J250000D01*
G01*
X171995000Y-117670000D01*
G75*
G02*
X172245000Y-117420000I250000J0D01*
G01*
G37*
G04 #@! TD*
G04 #@! TO.C,C11*
G36*
G01*
X78299999Y-130975000D02*
X80500001Y-130975000D01*
G75*
G02*
X80750000Y-131224999I0J-249999D01*
G01*
X80750000Y-131875001D01*
G75*
G02*
X80500001Y-132125000I-249999J0D01*
G01*
X78299999Y-132125000D01*
G75*
G02*
X78050000Y-131875001I0J249999D01*
G01*
X78050000Y-131224999D01*
G75*
G02*
X78299999Y-130975000I249999J0D01*
G01*
G37*
G36*
G01*
X78299999Y-133925000D02*
X80500001Y-133925000D01*
G75*
G02*
X80750000Y-134174999I0J-249999D01*
G01*
X80750000Y-134825001D01*
G75*
G02*
X80500001Y-135075000I-249999J0D01*
G01*
X78299999Y-135075000D01*
G75*
G02*
X78050000Y-134825001I0J249999D01*
G01*
X78050000Y-134174999D01*
G75*
G02*
X78299999Y-133925000I249999J0D01*
G01*
G37*
G04 #@! TD*
G04 #@! TO.C,C12*
G36*
G01*
X62125000Y-138500000D02*
X63075000Y-138500000D01*
G75*
G02*
X63325000Y-138750000I0J-250000D01*
G01*
X63325000Y-139250000D01*
G75*
G02*
X63075000Y-139500000I-250000J0D01*
G01*
X62125000Y-139500000D01*
G75*
G02*
X61875000Y-139250000I0J250000D01*
G01*
X61875000Y-138750000D01*
G75*
G02*
X62125000Y-138500000I250000J0D01*
G01*
G37*
G36*
G01*
X62125000Y-136600000D02*
X63075000Y-136600000D01*
G75*
G02*
X63325000Y-136850000I0J-250000D01*
G01*
X63325000Y-137350000D01*
G75*
G02*
X63075000Y-137600000I-250000J0D01*
G01*
X62125000Y-137600000D01*
G75*
G02*
X61875000Y-137350000I0J250000D01*
G01*
X61875000Y-136850000D01*
G75*
G02*
X62125000Y-136600000I250000J0D01*
G01*
G37*
G04 #@! TD*
G04 #@! TO.C,C14*
G36*
G01*
X74525000Y-91850000D02*
X75475000Y-91850000D01*
G75*
G02*
X75725000Y-92100000I0J-250000D01*
G01*
X75725000Y-92600000D01*
G75*
G02*
X75475000Y-92850000I-250000J0D01*
G01*
X74525000Y-92850000D01*
G75*
G02*
X74275000Y-92600000I0J250000D01*
G01*
X74275000Y-92100000D01*
G75*
G02*
X74525000Y-91850000I250000J0D01*
G01*
G37*
G36*
G01*
X74525000Y-93750000D02*
X75475000Y-93750000D01*
G75*
G02*
X75725000Y-94000000I0J-250000D01*
G01*
X75725000Y-94500000D01*
G75*
G02*
X75475000Y-94750000I-250000J0D01*
G01*
X74525000Y-94750000D01*
G75*
G02*
X74275000Y-94500000I0J250000D01*
G01*
X74275000Y-94000000D01*
G75*
G02*
X74525000Y-93750000I250000J0D01*
G01*
G37*
G04 #@! TD*
G04 #@! TO.C,C17*
G36*
G01*
X97930000Y-133825000D02*
X97930000Y-132875000D01*
G75*
G02*
X98180000Y-132625000I250000J0D01*
G01*
X98680000Y-132625000D01*
G75*
G02*
X98930000Y-132875000I0J-250000D01*
G01*
X98930000Y-133825000D01*
G75*
G02*
X98680000Y-134075000I-250000J0D01*
G01*
X98180000Y-134075000D01*
G75*
G02*
X97930000Y-133825000I0J250000D01*
G01*
G37*
G36*
G01*
X99830000Y-133825000D02*
X99830000Y-132875000D01*
G75*
G02*
X100080000Y-132625000I250000J0D01*
G01*
X100580000Y-132625000D01*
G75*
G02*
X100830000Y-132875000I0J-250000D01*
G01*
X100830000Y-133825000D01*
G75*
G02*
X100580000Y-134075000I-250000J0D01*
G01*
X100080000Y-134075000D01*
G75*
G02*
X99830000Y-133825000I0J250000D01*
G01*
G37*
G04 #@! TD*
G04 #@! TO.C,C18*
G36*
G01*
X99830000Y-136475000D02*
X99830000Y-135525000D01*
G75*
G02*
X100080000Y-135275000I250000J0D01*
G01*
X100580000Y-135275000D01*
G75*
G02*
X100830000Y-135525000I0J-250000D01*
G01*
X100830000Y-136475000D01*
G75*
G02*
X100580000Y-136725000I-250000J0D01*
G01*
X100080000Y-136725000D01*
G75*
G02*
X99830000Y-136475000I0J250000D01*
G01*
G37*
G36*
G01*
X97930000Y-136475000D02*
X97930000Y-135525000D01*
G75*
G02*
X98180000Y-135275000I250000J0D01*
G01*
X98680000Y-135275000D01*
G75*
G02*
X98930000Y-135525000I0J-250000D01*
G01*
X98930000Y-136475000D01*
G75*
G02*
X98680000Y-136725000I-250000J0D01*
G01*
X98180000Y-136725000D01*
G75*
G02*
X97930000Y-136475000I0J250000D01*
G01*
G37*
G04 #@! TD*
G04 #@! TO.C,C19*
G36*
G01*
X98000000Y-139275000D02*
X98000000Y-138325000D01*
G75*
G02*
X98250000Y-138075000I250000J0D01*
G01*
X98750000Y-138075000D01*
G75*
G02*
X99000000Y-138325000I0J-250000D01*
G01*
X99000000Y-139275000D01*
G75*
G02*
X98750000Y-139525000I-250000J0D01*
G01*
X98250000Y-139525000D01*
G75*
G02*
X98000000Y-139275000I0J250000D01*
G01*
G37*
G36*
G01*
X99900000Y-139275000D02*
X99900000Y-138325000D01*
G75*
G02*
X100150000Y-138075000I250000J0D01*
G01*
X100650000Y-138075000D01*
G75*
G02*
X100900000Y-138325000I0J-250000D01*
G01*
X100900000Y-139275000D01*
G75*
G02*
X100650000Y-139525000I-250000J0D01*
G01*
X100150000Y-139525000D01*
G75*
G02*
X99900000Y-139275000I0J250000D01*
G01*
G37*
G04 #@! TD*
G04 #@! TO.C,C20*
G36*
G01*
X99900000Y-141975000D02*
X99900000Y-141025000D01*
G75*
G02*
X100150000Y-140775000I250000J0D01*
G01*
X100650000Y-140775000D01*
G75*
G02*
X100900000Y-141025000I0J-250000D01*
G01*
X100900000Y-141975000D01*
G75*
G02*
X100650000Y-142225000I-250000J0D01*
G01*
X100150000Y-142225000D01*
G75*
G02*
X99900000Y-141975000I0J250000D01*
G01*
G37*
G36*
G01*
X98000000Y-141975000D02*
X98000000Y-141025000D01*
G75*
G02*
X98250000Y-140775000I250000J0D01*
G01*
X98750000Y-140775000D01*
G75*
G02*
X99000000Y-141025000I0J-250000D01*
G01*
X99000000Y-141975000D01*
G75*
G02*
X98750000Y-142225000I-250000J0D01*
G01*
X98250000Y-142225000D01*
G75*
G02*
X98000000Y-141975000I0J250000D01*
G01*
G37*
G04 #@! TD*
D13*
G04 #@! TO.C,D1*
X55300000Y-143100000D03*
D14*
X55300000Y-132940000D03*
G04 #@! TD*
D15*
G04 #@! TO.C,IC1*
X160348000Y-119110000D03*
X160348000Y-118610000D03*
X160348000Y-118110000D03*
X160348000Y-117610000D03*
X160348000Y-117110000D03*
X164772000Y-117110000D03*
X164772000Y-117610000D03*
X164772000Y-118110000D03*
X164772000Y-118610000D03*
X164772000Y-119110000D03*
D16*
X162560000Y-118110000D03*
G04 #@! TD*
D17*
G04 #@! TO.C,J1*
X60960000Y-101600000D03*
D18*
X60960000Y-95600000D03*
X56260000Y-98600000D03*
G04 #@! TD*
D19*
G04 #@! TO.C,J2*
X56072500Y-118150000D03*
X56072500Y-123150000D03*
D20*
X53372500Y-117150000D03*
X53372500Y-124150000D03*
G04 #@! TD*
D10*
G04 #@! TO.C,P3*
X111760000Y-152400000D03*
G04 #@! TD*
G04 #@! TO.C,P4*
X106680000Y-152400000D03*
G04 #@! TD*
G04 #@! TO.C,P5*
X71120000Y-152400000D03*
G04 #@! TD*
G04 #@! TO.C,P6*
X76200000Y-152400000D03*
G04 #@! TD*
G04 #@! TO.C,P7*
X81280000Y-152400000D03*
G04 #@! TD*
G04 #@! TO.C,P8*
X86360000Y-152400000D03*
G04 #@! TD*
G04 #@! TO.C,P9*
X91440000Y-152400000D03*
G04 #@! TD*
G04 #@! TO.C,P10*
X96520000Y-152400000D03*
G04 #@! TD*
G04 #@! TO.C,P11*
X101600000Y-152400000D03*
G04 #@! TD*
G04 #@! TO.C,P13*
X162560000Y-152400000D03*
G04 #@! TD*
G04 #@! TO.C,P15*
X172720000Y-152400000D03*
G04 #@! TD*
G04 #@! TO.C,P16*
X172720000Y-83820000D03*
G04 #@! TD*
G04 #@! TO.C,P17*
X167640000Y-83820000D03*
G04 #@! TD*
G04 #@! TO.C,P18*
X162560000Y-83820000D03*
G04 #@! TD*
G04 #@! TO.C,P19*
X157480000Y-152400000D03*
G04 #@! TD*
G04 #@! TO.C,P20*
X157480000Y-83820000D03*
G04 #@! TD*
G04 #@! TO.C,P21*
X152400000Y-152400000D03*
G04 #@! TD*
G04 #@! TO.C,P22*
X152400000Y-83820000D03*
G04 #@! TD*
G04 #@! TO.C,P23*
X147320000Y-152400000D03*
G04 #@! TD*
G04 #@! TO.C,P24*
X142240000Y-152400000D03*
G04 #@! TD*
G04 #@! TO.C,P25*
X137160000Y-152400000D03*
G04 #@! TD*
G04 #@! TO.C,P26*
X132080000Y-152400000D03*
G04 #@! TD*
G04 #@! TO.C,P27*
X127000000Y-152400000D03*
G04 #@! TD*
G04 #@! TO.C,P28*
X121920000Y-152400000D03*
G04 #@! TD*
G04 #@! TO.C,P29*
X106680000Y-83820000D03*
G04 #@! TD*
G04 #@! TO.C,P30*
X101600000Y-83820000D03*
G04 #@! TD*
G04 #@! TO.C,P31*
X96520000Y-83820000D03*
G04 #@! TD*
G04 #@! TO.C,P32*
X91440000Y-83820000D03*
G04 #@! TD*
G04 #@! TO.C,P33*
X86360000Y-83820000D03*
G04 #@! TD*
G04 #@! TO.C,P34*
X81280000Y-83820000D03*
G04 #@! TD*
G04 #@! TO.C,P35*
X111760000Y-83820000D03*
G04 #@! TD*
G04 #@! TO.C,P36*
X76200000Y-83820000D03*
G04 #@! TD*
G04 #@! TO.C,P37*
X116840000Y-83820000D03*
G04 #@! TD*
G04 #@! TO.C,P38*
X71120000Y-83820000D03*
G04 #@! TD*
G04 #@! TO.C,P39*
X121920000Y-83820000D03*
G04 #@! TD*
G04 #@! TO.C,P40*
X127000000Y-83820000D03*
G04 #@! TD*
G04 #@! TO.C,P41*
X132080000Y-83820000D03*
G04 #@! TD*
G04 #@! TO.C,P42*
X137160000Y-83820000D03*
G04 #@! TD*
G04 #@! TO.C,P43*
X142240000Y-83820000D03*
G04 #@! TD*
G04 #@! TO.C,P44*
X147320000Y-83820000D03*
G04 #@! TD*
G04 #@! TO.C,R1*
G36*
G01*
X93849998Y-118500000D02*
X94750002Y-118500000D01*
G75*
G02*
X95000000Y-118749998I0J-249998D01*
G01*
X95000000Y-119275002D01*
G75*
G02*
X94750002Y-119525000I-249998J0D01*
G01*
X93849998Y-119525000D01*
G75*
G02*
X93600000Y-119275002I0J249998D01*
G01*
X93600000Y-118749998D01*
G75*
G02*
X93849998Y-118500000I249998J0D01*
G01*
G37*
G36*
G01*
X93849998Y-116675000D02*
X94750002Y-116675000D01*
G75*
G02*
X95000000Y-116924998I0J-249998D01*
G01*
X95000000Y-117450002D01*
G75*
G02*
X94750002Y-117700000I-249998J0D01*
G01*
X93849998Y-117700000D01*
G75*
G02*
X93600000Y-117450002I0J249998D01*
G01*
X93600000Y-116924998D01*
G75*
G02*
X93849998Y-116675000I249998J0D01*
G01*
G37*
G04 #@! TD*
G04 #@! TO.C,R3*
G36*
G01*
X172904998Y-119372500D02*
X173805002Y-119372500D01*
G75*
G02*
X174055000Y-119622498I0J-249998D01*
G01*
X174055000Y-120147502D01*
G75*
G02*
X173805002Y-120397500I-249998J0D01*
G01*
X172904998Y-120397500D01*
G75*
G02*
X172655000Y-120147502I0J249998D01*
G01*
X172655000Y-119622498D01*
G75*
G02*
X172904998Y-119372500I249998J0D01*
G01*
G37*
G36*
G01*
X172904998Y-121197500D02*
X173805002Y-121197500D01*
G75*
G02*
X174055000Y-121447498I0J-249998D01*
G01*
X174055000Y-121972502D01*
G75*
G02*
X173805002Y-122222500I-249998J0D01*
G01*
X172904998Y-122222500D01*
G75*
G02*
X172655000Y-121972502I0J249998D01*
G01*
X172655000Y-121447498D01*
G75*
G02*
X172904998Y-121197500I249998J0D01*
G01*
G37*
G04 #@! TD*
G04 #@! TO.C,R4*
G36*
G01*
X76750002Y-142525000D02*
X75849998Y-142525000D01*
G75*
G02*
X75600000Y-142275002I0J249998D01*
G01*
X75600000Y-141749998D01*
G75*
G02*
X75849998Y-141500000I249998J0D01*
G01*
X76750002Y-141500000D01*
G75*
G02*
X77000000Y-141749998I0J-249998D01*
G01*
X77000000Y-142275002D01*
G75*
G02*
X76750002Y-142525000I-249998J0D01*
G01*
G37*
G36*
G01*
X76750002Y-140700000D02*
X75849998Y-140700000D01*
G75*
G02*
X75600000Y-140450002I0J249998D01*
G01*
X75600000Y-139924998D01*
G75*
G02*
X75849998Y-139675000I249998J0D01*
G01*
X76750002Y-139675000D01*
G75*
G02*
X77000000Y-139924998I0J-249998D01*
G01*
X77000000Y-140450002D01*
G75*
G02*
X76750002Y-140700000I-249998J0D01*
G01*
G37*
G04 #@! TD*
G04 #@! TO.C,R5*
G36*
G01*
X104649998Y-118462500D02*
X105550002Y-118462500D01*
G75*
G02*
X105800000Y-118712498I0J-249998D01*
G01*
X105800000Y-119237502D01*
G75*
G02*
X105550002Y-119487500I-249998J0D01*
G01*
X104649998Y-119487500D01*
G75*
G02*
X104400000Y-119237502I0J249998D01*
G01*
X104400000Y-118712498D01*
G75*
G02*
X104649998Y-118462500I249998J0D01*
G01*
G37*
G36*
G01*
X104649998Y-120287500D02*
X105550002Y-120287500D01*
G75*
G02*
X105800000Y-120537498I0J-249998D01*
G01*
X105800000Y-121062502D01*
G75*
G02*
X105550002Y-121312500I-249998J0D01*
G01*
X104649998Y-121312500D01*
G75*
G02*
X104400000Y-121062502I0J249998D01*
G01*
X104400000Y-120537498D01*
G75*
G02*
X104649998Y-120287500I249998J0D01*
G01*
G37*
G04 #@! TD*
G04 #@! TO.C,R6*
G36*
G01*
X91549998Y-118500000D02*
X92450002Y-118500000D01*
G75*
G02*
X92700000Y-118749998I0J-249998D01*
G01*
X92700000Y-119275002D01*
G75*
G02*
X92450002Y-119525000I-249998J0D01*
G01*
X91549998Y-119525000D01*
G75*
G02*
X91300000Y-119275002I0J249998D01*
G01*
X91300000Y-118749998D01*
G75*
G02*
X91549998Y-118500000I249998J0D01*
G01*
G37*
G36*
G01*
X91549998Y-116675000D02*
X92450002Y-116675000D01*
G75*
G02*
X92700000Y-116924998I0J-249998D01*
G01*
X92700000Y-117450002D01*
G75*
G02*
X92450002Y-117700000I-249998J0D01*
G01*
X91549998Y-117700000D01*
G75*
G02*
X91300000Y-117450002I0J249998D01*
G01*
X91300000Y-116924998D01*
G75*
G02*
X91549998Y-116675000I249998J0D01*
G01*
G37*
G04 #@! TD*
G04 #@! TO.C,R7*
G36*
G01*
X93160002Y-138585000D02*
X92259998Y-138585000D01*
G75*
G02*
X92010000Y-138335002I0J249998D01*
G01*
X92010000Y-137809998D01*
G75*
G02*
X92259998Y-137560000I249998J0D01*
G01*
X93160002Y-137560000D01*
G75*
G02*
X93410000Y-137809998I0J-249998D01*
G01*
X93410000Y-138335002D01*
G75*
G02*
X93160002Y-138585000I-249998J0D01*
G01*
G37*
G36*
G01*
X93160002Y-136760000D02*
X92259998Y-136760000D01*
G75*
G02*
X92010000Y-136510002I0J249998D01*
G01*
X92010000Y-135984998D01*
G75*
G02*
X92259998Y-135735000I249998J0D01*
G01*
X93160002Y-135735000D01*
G75*
G02*
X93410000Y-135984998I0J-249998D01*
G01*
X93410000Y-136510002D01*
G75*
G02*
X93160002Y-136760000I-249998J0D01*
G01*
G37*
G04 #@! TD*
G04 #@! TO.C,R8*
G36*
G01*
X104649998Y-116512500D02*
X105550002Y-116512500D01*
G75*
G02*
X105800000Y-116762498I0J-249998D01*
G01*
X105800000Y-117287502D01*
G75*
G02*
X105550002Y-117537500I-249998J0D01*
G01*
X104649998Y-117537500D01*
G75*
G02*
X104400000Y-117287502I0J249998D01*
G01*
X104400000Y-116762498D01*
G75*
G02*
X104649998Y-116512500I249998J0D01*
G01*
G37*
G36*
G01*
X104649998Y-114687500D02*
X105550002Y-114687500D01*
G75*
G02*
X105800000Y-114937498I0J-249998D01*
G01*
X105800000Y-115462502D01*
G75*
G02*
X105550002Y-115712500I-249998J0D01*
G01*
X104649998Y-115712500D01*
G75*
G02*
X104400000Y-115462502I0J249998D01*
G01*
X104400000Y-114937498D01*
G75*
G02*
X104649998Y-114687500I249998J0D01*
G01*
G37*
G04 #@! TD*
G04 #@! TO.C,R9*
G36*
G01*
X87849998Y-137600000D02*
X88750002Y-137600000D01*
G75*
G02*
X89000000Y-137849998I0J-249998D01*
G01*
X89000000Y-138375002D01*
G75*
G02*
X88750002Y-138625000I-249998J0D01*
G01*
X87849998Y-138625000D01*
G75*
G02*
X87600000Y-138375002I0J249998D01*
G01*
X87600000Y-137849998D01*
G75*
G02*
X87849998Y-137600000I249998J0D01*
G01*
G37*
G36*
G01*
X87849998Y-135775000D02*
X88750002Y-135775000D01*
G75*
G02*
X89000000Y-136024998I0J-249998D01*
G01*
X89000000Y-136550002D01*
G75*
G02*
X88750002Y-136800000I-249998J0D01*
G01*
X87849998Y-136800000D01*
G75*
G02*
X87600000Y-136550002I0J249998D01*
G01*
X87600000Y-136024998D01*
G75*
G02*
X87849998Y-135775000I249998J0D01*
G01*
G37*
G04 #@! TD*
G04 #@! TO.C,R10*
G36*
G01*
X72750002Y-93025000D02*
X71849998Y-93025000D01*
G75*
G02*
X71600000Y-92775002I0J249998D01*
G01*
X71600000Y-92249998D01*
G75*
G02*
X71849998Y-92000000I249998J0D01*
G01*
X72750002Y-92000000D01*
G75*
G02*
X73000000Y-92249998I0J-249998D01*
G01*
X73000000Y-92775002D01*
G75*
G02*
X72750002Y-93025000I-249998J0D01*
G01*
G37*
G36*
G01*
X72750002Y-91200000D02*
X71849998Y-91200000D01*
G75*
G02*
X71600000Y-90950002I0J249998D01*
G01*
X71600000Y-90424998D01*
G75*
G02*
X71849998Y-90175000I249998J0D01*
G01*
X72750002Y-90175000D01*
G75*
G02*
X73000000Y-90424998I0J-249998D01*
G01*
X73000000Y-90950002D01*
G75*
G02*
X72750002Y-91200000I-249998J0D01*
G01*
G37*
G04 #@! TD*
G04 #@! TO.C,R11*
G36*
G01*
X66849998Y-124387500D02*
X67750002Y-124387500D01*
G75*
G02*
X68000000Y-124637498I0J-249998D01*
G01*
X68000000Y-125162502D01*
G75*
G02*
X67750002Y-125412500I-249998J0D01*
G01*
X66849998Y-125412500D01*
G75*
G02*
X66600000Y-125162502I0J249998D01*
G01*
X66600000Y-124637498D01*
G75*
G02*
X66849998Y-124387500I249998J0D01*
G01*
G37*
G36*
G01*
X66849998Y-126212500D02*
X67750002Y-126212500D01*
G75*
G02*
X68000000Y-126462498I0J-249998D01*
G01*
X68000000Y-126987502D01*
G75*
G02*
X67750002Y-127237500I-249998J0D01*
G01*
X66849998Y-127237500D01*
G75*
G02*
X66600000Y-126987502I0J249998D01*
G01*
X66600000Y-126462498D01*
G75*
G02*
X66849998Y-126212500I249998J0D01*
G01*
G37*
G04 #@! TD*
G04 #@! TO.C,R12*
G36*
G01*
X69549998Y-92000000D02*
X70450002Y-92000000D01*
G75*
G02*
X70700000Y-92249998I0J-249998D01*
G01*
X70700000Y-92775002D01*
G75*
G02*
X70450002Y-93025000I-249998J0D01*
G01*
X69549998Y-93025000D01*
G75*
G02*
X69300000Y-92775002I0J249998D01*
G01*
X69300000Y-92249998D01*
G75*
G02*
X69549998Y-92000000I249998J0D01*
G01*
G37*
G36*
G01*
X69549998Y-90175000D02*
X70450002Y-90175000D01*
G75*
G02*
X70700000Y-90424998I0J-249998D01*
G01*
X70700000Y-90950002D01*
G75*
G02*
X70450002Y-91200000I-249998J0D01*
G01*
X69549998Y-91200000D01*
G75*
G02*
X69300000Y-90950002I0J249998D01*
G01*
X69300000Y-90424998D01*
G75*
G02*
X69549998Y-90175000I249998J0D01*
G01*
G37*
G04 #@! TD*
G04 #@! TO.C,R14*
G36*
G01*
X71649998Y-125187500D02*
X72550002Y-125187500D01*
G75*
G02*
X72800000Y-125437498I0J-249998D01*
G01*
X72800000Y-125962502D01*
G75*
G02*
X72550002Y-126212500I-249998J0D01*
G01*
X71649998Y-126212500D01*
G75*
G02*
X71400000Y-125962502I0J249998D01*
G01*
X71400000Y-125437498D01*
G75*
G02*
X71649998Y-125187500I249998J0D01*
G01*
G37*
G36*
G01*
X71649998Y-127012500D02*
X72550002Y-127012500D01*
G75*
G02*
X72800000Y-127262498I0J-249998D01*
G01*
X72800000Y-127787502D01*
G75*
G02*
X72550002Y-128037500I-249998J0D01*
G01*
X71649998Y-128037500D01*
G75*
G02*
X71400000Y-127787502I0J249998D01*
G01*
X71400000Y-127262498D01*
G75*
G02*
X71649998Y-127012500I249998J0D01*
G01*
G37*
G04 #@! TD*
G04 #@! TO.C,R15*
G36*
G01*
X71850002Y-130412500D02*
X70949998Y-130412500D01*
G75*
G02*
X70700000Y-130162502I0J249998D01*
G01*
X70700000Y-129637498D01*
G75*
G02*
X70949998Y-129387500I249998J0D01*
G01*
X71850002Y-129387500D01*
G75*
G02*
X72100000Y-129637498I0J-249998D01*
G01*
X72100000Y-130162502D01*
G75*
G02*
X71850002Y-130412500I-249998J0D01*
G01*
G37*
G36*
G01*
X71850002Y-132237500D02*
X70949998Y-132237500D01*
G75*
G02*
X70700000Y-131987502I0J249998D01*
G01*
X70700000Y-131462498D01*
G75*
G02*
X70949998Y-131212500I249998J0D01*
G01*
X71850002Y-131212500D01*
G75*
G02*
X72100000Y-131462498I0J-249998D01*
G01*
X72100000Y-131987502D01*
G75*
G02*
X71850002Y-132237500I-249998J0D01*
G01*
G37*
G04 #@! TD*
G04 #@! TO.C,R16*
G36*
G01*
X89211998Y-122828000D02*
X90112002Y-122828000D01*
G75*
G02*
X90362000Y-123077998I0J-249998D01*
G01*
X90362000Y-123603002D01*
G75*
G02*
X90112002Y-123853000I-249998J0D01*
G01*
X89211998Y-123853000D01*
G75*
G02*
X88962000Y-123603002I0J249998D01*
G01*
X88962000Y-123077998D01*
G75*
G02*
X89211998Y-122828000I249998J0D01*
G01*
G37*
G36*
G01*
X89211998Y-121003000D02*
X90112002Y-121003000D01*
G75*
G02*
X90362000Y-121252998I0J-249998D01*
G01*
X90362000Y-121778002D01*
G75*
G02*
X90112002Y-122028000I-249998J0D01*
G01*
X89211998Y-122028000D01*
G75*
G02*
X88962000Y-121778002I0J249998D01*
G01*
X88962000Y-121252998D01*
G75*
G02*
X89211998Y-121003000I249998J0D01*
G01*
G37*
G04 #@! TD*
G04 #@! TO.C,R17*
G36*
G01*
X170049998Y-117400000D02*
X170950002Y-117400000D01*
G75*
G02*
X171200000Y-117649998I0J-249998D01*
G01*
X171200000Y-118175002D01*
G75*
G02*
X170950002Y-118425000I-249998J0D01*
G01*
X170049998Y-118425000D01*
G75*
G02*
X169800000Y-118175002I0J249998D01*
G01*
X169800000Y-117649998D01*
G75*
G02*
X170049998Y-117400000I249998J0D01*
G01*
G37*
G36*
G01*
X170049998Y-115575000D02*
X170950002Y-115575000D01*
G75*
G02*
X171200000Y-115824998I0J-249998D01*
G01*
X171200000Y-116350002D01*
G75*
G02*
X170950002Y-116600000I-249998J0D01*
G01*
X170049998Y-116600000D01*
G75*
G02*
X169800000Y-116350002I0J249998D01*
G01*
X169800000Y-115824998D01*
G75*
G02*
X170049998Y-115575000I249998J0D01*
G01*
G37*
G04 #@! TD*
G04 #@! TO.C,U1*
G36*
G01*
X96445000Y-114350000D02*
X96745000Y-114350000D01*
G75*
G02*
X96895000Y-114500000I0J-150000D01*
G01*
X96895000Y-116150000D01*
G75*
G02*
X96745000Y-116300000I-150000J0D01*
G01*
X96445000Y-116300000D01*
G75*
G02*
X96295000Y-116150000I0J150000D01*
G01*
X96295000Y-114500000D01*
G75*
G02*
X96445000Y-114350000I150000J0D01*
G01*
G37*
G36*
G01*
X97715000Y-114350000D02*
X98015000Y-114350000D01*
G75*
G02*
X98165000Y-114500000I0J-150000D01*
G01*
X98165000Y-116150000D01*
G75*
G02*
X98015000Y-116300000I-150000J0D01*
G01*
X97715000Y-116300000D01*
G75*
G02*
X97565000Y-116150000I0J150000D01*
G01*
X97565000Y-114500000D01*
G75*
G02*
X97715000Y-114350000I150000J0D01*
G01*
G37*
G36*
G01*
X98985000Y-114350000D02*
X99285000Y-114350000D01*
G75*
G02*
X99435000Y-114500000I0J-150000D01*
G01*
X99435000Y-116150000D01*
G75*
G02*
X99285000Y-116300000I-150000J0D01*
G01*
X98985000Y-116300000D01*
G75*
G02*
X98835000Y-116150000I0J150000D01*
G01*
X98835000Y-114500000D01*
G75*
G02*
X98985000Y-114350000I150000J0D01*
G01*
G37*
G36*
G01*
X100255000Y-114350000D02*
X100555000Y-114350000D01*
G75*
G02*
X100705000Y-114500000I0J-150000D01*
G01*
X100705000Y-116150000D01*
G75*
G02*
X100555000Y-116300000I-150000J0D01*
G01*
X100255000Y-116300000D01*
G75*
G02*
X100105000Y-116150000I0J150000D01*
G01*
X100105000Y-114500000D01*
G75*
G02*
X100255000Y-114350000I150000J0D01*
G01*
G37*
G36*
G01*
X100255000Y-119300000D02*
X100555000Y-119300000D01*
G75*
G02*
X100705000Y-119450000I0J-150000D01*
G01*
X100705000Y-121100000D01*
G75*
G02*
X100555000Y-121250000I-150000J0D01*
G01*
X100255000Y-121250000D01*
G75*
G02*
X100105000Y-121100000I0J150000D01*
G01*
X100105000Y-119450000D01*
G75*
G02*
X100255000Y-119300000I150000J0D01*
G01*
G37*
G36*
G01*
X98985000Y-119300000D02*
X99285000Y-119300000D01*
G75*
G02*
X99435000Y-119450000I0J-150000D01*
G01*
X99435000Y-121100000D01*
G75*
G02*
X99285000Y-121250000I-150000J0D01*
G01*
X98985000Y-121250000D01*
G75*
G02*
X98835000Y-121100000I0J150000D01*
G01*
X98835000Y-119450000D01*
G75*
G02*
X98985000Y-119300000I150000J0D01*
G01*
G37*
G36*
G01*
X97715000Y-119300000D02*
X98015000Y-119300000D01*
G75*
G02*
X98165000Y-119450000I0J-150000D01*
G01*
X98165000Y-121100000D01*
G75*
G02*
X98015000Y-121250000I-150000J0D01*
G01*
X97715000Y-121250000D01*
G75*
G02*
X97565000Y-121100000I0J150000D01*
G01*
X97565000Y-119450000D01*
G75*
G02*
X97715000Y-119300000I150000J0D01*
G01*
G37*
G36*
G01*
X96445000Y-119300000D02*
X96745000Y-119300000D01*
G75*
G02*
X96895000Y-119450000I0J-150000D01*
G01*
X96895000Y-121100000D01*
G75*
G02*
X96745000Y-121250000I-150000J0D01*
G01*
X96445000Y-121250000D01*
G75*
G02*
X96295000Y-121100000I0J150000D01*
G01*
X96295000Y-119450000D01*
G75*
G02*
X96445000Y-119300000I150000J0D01*
G01*
G37*
G04 #@! TD*
D21*
G04 #@! TO.C,Y1*
X100920000Y-107080000D03*
X96040000Y-107080000D03*
G04 #@! TD*
D10*
G04 #@! TO.C,P1*
X173990000Y-102870000D03*
G04 #@! TD*
G04 #@! TO.C,P12*
X173990000Y-144780000D03*
G04 #@! TD*
G04 #@! TO.C,P45*
X173990000Y-140462000D03*
G04 #@! TD*
G04 #@! TO.C,P46*
X169164000Y-140462000D03*
G04 #@! TD*
G04 #@! TO.C,P47*
X173990000Y-130810000D03*
G04 #@! TD*
G04 #@! TO.C,P48*
X173990000Y-135382000D03*
G04 #@! TD*
G04 #@! TO.C,P49*
X169164000Y-130810000D03*
G04 #@! TD*
G04 #@! TO.C,P50*
X169164000Y-135382000D03*
G04 #@! TD*
G04 #@! TO.C,L1*
G36*
G01*
X60292000Y-152580002D02*
X60292000Y-149679998D01*
G75*
G02*
X60541998Y-149430000I249998J0D01*
G01*
X61167002Y-149430000D01*
G75*
G02*
X61417000Y-149679998I0J-249998D01*
G01*
X61417000Y-152580002D01*
G75*
G02*
X61167002Y-152830000I-249998J0D01*
G01*
X60541998Y-152830000D01*
G75*
G02*
X60292000Y-152580002I0J249998D01*
G01*
G37*
G36*
G01*
X64567000Y-152580002D02*
X64567000Y-149679998D01*
G75*
G02*
X64816998Y-149430000I249998J0D01*
G01*
X65442002Y-149430000D01*
G75*
G02*
X65692000Y-149679998I0J-249998D01*
G01*
X65692000Y-152580002D01*
G75*
G02*
X65442002Y-152830000I-249998J0D01*
G01*
X64816998Y-152830000D01*
G75*
G02*
X64567000Y-152580002I0J249998D01*
G01*
G37*
G04 #@! TD*
G04 #@! TO.C,P14*
X167640000Y-152400000D03*
G04 #@! TD*
G04 #@! TO.C,P51*
X116840000Y-152400000D03*
G04 #@! TD*
D22*
G04 #@! TO.C,U3*
X95400000Y-94136000D03*
D23*
X78740000Y-97536000D03*
D24*
X78740000Y-95836000D03*
X78740000Y-94136000D03*
X78740000Y-92436000D03*
X78740000Y-90736000D03*
G04 #@! TD*
M02*
