G04 #@! TF.GenerationSoftware,KiCad,Pcbnew,(5.1.7)-1*
G04 #@! TF.CreationDate,2020-11-10T12:14:26-06:00*
G04 #@! TF.ProjectId,MCU breakout board,4d435520-6272-4656-916b-6f757420626f,rev?*
G04 #@! TF.SameCoordinates,Original*
G04 #@! TF.FileFunction,Soldermask,Top*
G04 #@! TF.FilePolarity,Negative*
%FSLAX46Y46*%
G04 Gerber Fmt 4.6, Leading zero omitted, Abs format (unit mm)*
G04 Created by KiCad (PCBNEW (5.1.7)-1) date 2020-11-10 12:14:26*
%MOMM*%
%LPD*%
G01*
G04 APERTURE LIST*
%ADD10R,1.700000X1.700000*%
%ADD11R,1.600000X1.600000*%
%ADD12O,1.600000X1.600000*%
%ADD13R,1.800000X0.450000*%
%ADD14R,2.200000X2.200000*%
%ADD15O,2.200000X2.200000*%
%ADD16R,1.500000X0.650000*%
%ADD17R,1.500000X0.300000*%
%ADD18R,0.300000X1.500000*%
%ADD19R,1.475000X0.450000*%
%ADD20R,2.600000X2.600000*%
%ADD21C,2.600000*%
%ADD22R,1.900000X1.500000*%
%ADD23C,1.450000*%
%ADD24R,1.350000X0.400000*%
%ADD25O,1.900000X1.200000*%
%ADD26R,1.900000X1.200000*%
%ADD27C,1.500000*%
%ADD28R,1.450000X0.300000*%
%ADD29O,6.000000X6.000000*%
%ADD30R,1.800000X1.275000*%
%ADD31O,1.800000X1.275000*%
G04 APERTURE END LIST*
G04 #@! TO.C,C16*
G36*
G01*
X119592000Y-113152000D02*
X120692000Y-113152000D01*
G75*
G02*
X120942000Y-113402000I0J-250000D01*
G01*
X120942000Y-116402000D01*
G75*
G02*
X120692000Y-116652000I-250000J0D01*
G01*
X119592000Y-116652000D01*
G75*
G02*
X119342000Y-116402000I0J250000D01*
G01*
X119342000Y-113402000D01*
G75*
G02*
X119592000Y-113152000I250000J0D01*
G01*
G37*
G36*
G01*
X119592000Y-118552000D02*
X120692000Y-118552000D01*
G75*
G02*
X120942000Y-118802000I0J-250000D01*
G01*
X120942000Y-121802000D01*
G75*
G02*
X120692000Y-122052000I-250000J0D01*
G01*
X119592000Y-122052000D01*
G75*
G02*
X119342000Y-121802000I0J250000D01*
G01*
X119342000Y-118802000D01*
G75*
G02*
X119592000Y-118552000I250000J0D01*
G01*
G37*
G04 #@! TD*
D10*
G04 #@! TO.C,P2*
X169164000Y-144780000D03*
G04 #@! TD*
D11*
G04 #@! TO.C,U2*
X65510000Y-144630000D03*
D12*
X73130000Y-137010000D03*
X65510000Y-142090000D03*
X73130000Y-139550000D03*
X65510000Y-139550000D03*
X73130000Y-142090000D03*
X65510000Y-137010000D03*
X73130000Y-144630000D03*
G04 #@! TD*
D13*
G04 #@! TO.C,IC8*
X127250000Y-93575000D03*
X127250000Y-94225000D03*
X127250000Y-94875000D03*
X127250000Y-95525000D03*
X127250000Y-96175000D03*
X127250000Y-96825000D03*
X127250000Y-97475000D03*
X127250000Y-98125000D03*
X127250000Y-98775000D03*
X127250000Y-99425000D03*
X127250000Y-100075000D03*
X127250000Y-100725000D03*
X127250000Y-101375000D03*
X127250000Y-102025000D03*
X120150000Y-102025000D03*
X120150000Y-101375000D03*
X120150000Y-100725000D03*
X120150000Y-100075000D03*
X120150000Y-99425000D03*
X120150000Y-98775000D03*
X120150000Y-98125000D03*
X120150000Y-97475000D03*
X120150000Y-96825000D03*
X120150000Y-96175000D03*
X120150000Y-95525000D03*
X120150000Y-94875000D03*
X120150000Y-94225000D03*
X120150000Y-93575000D03*
G04 #@! TD*
G04 #@! TO.C,C6*
G36*
G01*
X100576000Y-102395000D02*
X100576000Y-103345000D01*
G75*
G02*
X100326000Y-103595000I-250000J0D01*
G01*
X99826000Y-103595000D01*
G75*
G02*
X99576000Y-103345000I0J250000D01*
G01*
X99576000Y-102395000D01*
G75*
G02*
X99826000Y-102145000I250000J0D01*
G01*
X100326000Y-102145000D01*
G75*
G02*
X100576000Y-102395000I0J-250000D01*
G01*
G37*
G36*
G01*
X102476000Y-102395000D02*
X102476000Y-103345000D01*
G75*
G02*
X102226000Y-103595000I-250000J0D01*
G01*
X101726000Y-103595000D01*
G75*
G02*
X101476000Y-103345000I0J250000D01*
G01*
X101476000Y-102395000D01*
G75*
G02*
X101726000Y-102145000I250000J0D01*
G01*
X102226000Y-102145000D01*
G75*
G02*
X102476000Y-102395000I0J-250000D01*
G01*
G37*
G04 #@! TD*
G04 #@! TO.C,C7*
G36*
G01*
X94054000Y-103345000D02*
X94054000Y-102395000D01*
G75*
G02*
X94304000Y-102145000I250000J0D01*
G01*
X94804000Y-102145000D01*
G75*
G02*
X95054000Y-102395000I0J-250000D01*
G01*
X95054000Y-103345000D01*
G75*
G02*
X94804000Y-103595000I-250000J0D01*
G01*
X94304000Y-103595000D01*
G75*
G02*
X94054000Y-103345000I0J250000D01*
G01*
G37*
G36*
G01*
X95954000Y-103345000D02*
X95954000Y-102395000D01*
G75*
G02*
X96204000Y-102145000I250000J0D01*
G01*
X96704000Y-102145000D01*
G75*
G02*
X96954000Y-102395000I0J-250000D01*
G01*
X96954000Y-103345000D01*
G75*
G02*
X96704000Y-103595000I-250000J0D01*
G01*
X96204000Y-103595000D01*
G75*
G02*
X95954000Y-103345000I0J250000D01*
G01*
G37*
G04 #@! TD*
G04 #@! TO.C,C13*
G36*
G01*
X150147000Y-134816000D02*
X151097000Y-134816000D01*
G75*
G02*
X151347000Y-135066000I0J-250000D01*
G01*
X151347000Y-135566000D01*
G75*
G02*
X151097000Y-135816000I-250000J0D01*
G01*
X150147000Y-135816000D01*
G75*
G02*
X149897000Y-135566000I0J250000D01*
G01*
X149897000Y-135066000D01*
G75*
G02*
X150147000Y-134816000I250000J0D01*
G01*
G37*
G36*
G01*
X150147000Y-132916000D02*
X151097000Y-132916000D01*
G75*
G02*
X151347000Y-133166000I0J-250000D01*
G01*
X151347000Y-133666000D01*
G75*
G02*
X151097000Y-133916000I-250000J0D01*
G01*
X150147000Y-133916000D01*
G75*
G02*
X149897000Y-133666000I0J250000D01*
G01*
X149897000Y-133166000D01*
G75*
G02*
X150147000Y-132916000I250000J0D01*
G01*
G37*
G04 #@! TD*
G04 #@! TO.C,C15*
G36*
G01*
X60525000Y-107450000D02*
X61475000Y-107450000D01*
G75*
G02*
X61725000Y-107700000I0J-250000D01*
G01*
X61725000Y-108200000D01*
G75*
G02*
X61475000Y-108450000I-250000J0D01*
G01*
X60525000Y-108450000D01*
G75*
G02*
X60275000Y-108200000I0J250000D01*
G01*
X60275000Y-107700000D01*
G75*
G02*
X60525000Y-107450000I250000J0D01*
G01*
G37*
G36*
G01*
X60525000Y-105550000D02*
X61475000Y-105550000D01*
G75*
G02*
X61725000Y-105800000I0J-250000D01*
G01*
X61725000Y-106300000D01*
G75*
G02*
X61475000Y-106550000I-250000J0D01*
G01*
X60525000Y-106550000D01*
G75*
G02*
X60275000Y-106300000I0J250000D01*
G01*
X60275000Y-105800000D01*
G75*
G02*
X60525000Y-105550000I250000J0D01*
G01*
G37*
G04 #@! TD*
G04 #@! TO.C,C21*
G36*
G01*
X56825000Y-105550000D02*
X57775000Y-105550000D01*
G75*
G02*
X58025000Y-105800000I0J-250000D01*
G01*
X58025000Y-106300000D01*
G75*
G02*
X57775000Y-106550000I-250000J0D01*
G01*
X56825000Y-106550000D01*
G75*
G02*
X56575000Y-106300000I0J250000D01*
G01*
X56575000Y-105800000D01*
G75*
G02*
X56825000Y-105550000I250000J0D01*
G01*
G37*
G36*
G01*
X56825000Y-107450000D02*
X57775000Y-107450000D01*
G75*
G02*
X58025000Y-107700000I0J-250000D01*
G01*
X58025000Y-108200000D01*
G75*
G02*
X57775000Y-108450000I-250000J0D01*
G01*
X56825000Y-108450000D01*
G75*
G02*
X56575000Y-108200000I0J250000D01*
G01*
X56575000Y-107700000D01*
G75*
G02*
X56825000Y-107450000I250000J0D01*
G01*
G37*
G04 #@! TD*
D14*
G04 #@! TO.C,D1*
X55300000Y-143100000D03*
D15*
X55300000Y-132940000D03*
G04 #@! TD*
D16*
G04 #@! TO.C,IC4*
X159672000Y-131191000D03*
X159672000Y-132461000D03*
X159672000Y-133731000D03*
X159672000Y-135001000D03*
X154272000Y-135001000D03*
X154272000Y-133731000D03*
X154272000Y-132461000D03*
X154272000Y-131191000D03*
G04 #@! TD*
D17*
G04 #@! TO.C,IC5*
X72250000Y-117350000D03*
X72250000Y-117850000D03*
X72250000Y-118350000D03*
X72250000Y-118850000D03*
X72250000Y-119350000D03*
X72250000Y-119850000D03*
X72250000Y-120350000D03*
X72250000Y-120850000D03*
X72250000Y-121350000D03*
X72250000Y-121850000D03*
X72250000Y-122350000D03*
X72250000Y-122850000D03*
X72250000Y-123350000D03*
X72250000Y-123850000D03*
X72250000Y-124350000D03*
X72250000Y-124850000D03*
D18*
X74250000Y-126850000D03*
X74750000Y-126850000D03*
X75250000Y-126850000D03*
X75750000Y-126850000D03*
X76250000Y-126850000D03*
X76750000Y-126850000D03*
X77250000Y-126850000D03*
X77750000Y-126850000D03*
X78250000Y-126850000D03*
X78750000Y-126850000D03*
X79250000Y-126850000D03*
X79750000Y-126850000D03*
X80250000Y-126850000D03*
X80750000Y-126850000D03*
X81250000Y-126850000D03*
X81750000Y-126850000D03*
D17*
X83750000Y-124850000D03*
X83750000Y-124350000D03*
X83750000Y-123850000D03*
X83750000Y-123350000D03*
X83750000Y-122850000D03*
X83750000Y-122350000D03*
X83750000Y-121850000D03*
X83750000Y-121350000D03*
X83750000Y-120850000D03*
X83750000Y-120350000D03*
X83750000Y-119850000D03*
X83750000Y-119350000D03*
X83750000Y-118850000D03*
X83750000Y-118350000D03*
X83750000Y-117850000D03*
X83750000Y-117350000D03*
D18*
X81750000Y-115350000D03*
X81250000Y-115350000D03*
X80750000Y-115350000D03*
X80250000Y-115350000D03*
X79750000Y-115350000D03*
X79250000Y-115350000D03*
X78750000Y-115350000D03*
X78250000Y-115350000D03*
X77750000Y-115350000D03*
X77250000Y-115350000D03*
X76750000Y-115350000D03*
X76250000Y-115350000D03*
X75750000Y-115350000D03*
X75250000Y-115350000D03*
X74750000Y-115350000D03*
X74250000Y-115350000D03*
G04 #@! TD*
D19*
G04 #@! TO.C,IC6*
X158352000Y-120265000D03*
X158352000Y-120915000D03*
X158352000Y-121565000D03*
X158352000Y-122215000D03*
X158352000Y-122865000D03*
X158352000Y-123515000D03*
X158352000Y-124165000D03*
X158352000Y-124815000D03*
X158352000Y-125465000D03*
X158352000Y-126115000D03*
X164228000Y-126115000D03*
X164228000Y-125465000D03*
X164228000Y-124815000D03*
X164228000Y-124165000D03*
X164228000Y-123515000D03*
X164228000Y-122865000D03*
X164228000Y-122215000D03*
X164228000Y-121565000D03*
X164228000Y-120915000D03*
X164228000Y-120265000D03*
G04 #@! TD*
D13*
G04 #@! TO.C,IC7*
X124200000Y-140415000D03*
X124200000Y-139765000D03*
X124200000Y-139115000D03*
X124200000Y-138465000D03*
X124200000Y-137815000D03*
X124200000Y-137165000D03*
X124200000Y-136515000D03*
X124200000Y-135865000D03*
X124200000Y-135215000D03*
X124200000Y-134565000D03*
X124200000Y-133915000D03*
X124200000Y-133265000D03*
X124200000Y-132615000D03*
X124200000Y-131965000D03*
X117100000Y-131965000D03*
X117100000Y-132615000D03*
X117100000Y-133265000D03*
X117100000Y-133915000D03*
X117100000Y-134565000D03*
X117100000Y-135215000D03*
X117100000Y-135865000D03*
X117100000Y-136515000D03*
X117100000Y-137165000D03*
X117100000Y-137815000D03*
X117100000Y-138465000D03*
X117100000Y-139115000D03*
X117100000Y-139765000D03*
X117100000Y-140415000D03*
G04 #@! TD*
D20*
G04 #@! TO.C,J1*
X60960000Y-101600000D03*
D21*
X60960000Y-95600000D03*
X56260000Y-98600000D03*
G04 #@! TD*
D22*
G04 #@! TO.C,J2*
X53372500Y-121650000D03*
D23*
X56072500Y-118150000D03*
D24*
X56072500Y-120000000D03*
X56072500Y-119350000D03*
X56072500Y-121950000D03*
X56072500Y-121300000D03*
X56072500Y-120650000D03*
D23*
X56072500Y-123150000D03*
D22*
X53372500Y-119650000D03*
D25*
X53372500Y-117150000D03*
X53372500Y-124150000D03*
D26*
X53372500Y-123550000D03*
X53372500Y-117750000D03*
G04 #@! TD*
D10*
G04 #@! TO.C,P3*
X111760000Y-152400000D03*
G04 #@! TD*
G04 #@! TO.C,P4*
X106680000Y-152400000D03*
G04 #@! TD*
G04 #@! TO.C,P5*
X71120000Y-152400000D03*
G04 #@! TD*
G04 #@! TO.C,P6*
X76200000Y-152400000D03*
G04 #@! TD*
G04 #@! TO.C,P7*
X81280000Y-152400000D03*
G04 #@! TD*
G04 #@! TO.C,P8*
X86360000Y-152400000D03*
G04 #@! TD*
G04 #@! TO.C,P9*
X91440000Y-152400000D03*
G04 #@! TD*
G04 #@! TO.C,P10*
X96520000Y-152400000D03*
G04 #@! TD*
G04 #@! TO.C,P11*
X101600000Y-152400000D03*
G04 #@! TD*
G04 #@! TO.C,P13*
X162560000Y-152400000D03*
G04 #@! TD*
G04 #@! TO.C,P15*
X172720000Y-152400000D03*
G04 #@! TD*
G04 #@! TO.C,P16*
X172720000Y-83820000D03*
G04 #@! TD*
G04 #@! TO.C,P17*
X167640000Y-83820000D03*
G04 #@! TD*
G04 #@! TO.C,P18*
X162560000Y-83820000D03*
G04 #@! TD*
G04 #@! TO.C,P19*
X157480000Y-152400000D03*
G04 #@! TD*
G04 #@! TO.C,P20*
X157480000Y-83820000D03*
G04 #@! TD*
G04 #@! TO.C,P21*
X152400000Y-152400000D03*
G04 #@! TD*
G04 #@! TO.C,P22*
X152400000Y-83820000D03*
G04 #@! TD*
G04 #@! TO.C,P23*
X147320000Y-152400000D03*
G04 #@! TD*
G04 #@! TO.C,P24*
X142240000Y-152400000D03*
G04 #@! TD*
G04 #@! TO.C,P25*
X137160000Y-152400000D03*
G04 #@! TD*
G04 #@! TO.C,P26*
X132080000Y-152400000D03*
G04 #@! TD*
G04 #@! TO.C,P27*
X127000000Y-152400000D03*
G04 #@! TD*
G04 #@! TO.C,P28*
X121920000Y-152400000D03*
G04 #@! TD*
G04 #@! TO.C,P29*
X106680000Y-83820000D03*
G04 #@! TD*
G04 #@! TO.C,P30*
X101600000Y-83820000D03*
G04 #@! TD*
G04 #@! TO.C,P31*
X96520000Y-83820000D03*
G04 #@! TD*
G04 #@! TO.C,P32*
X91440000Y-83820000D03*
G04 #@! TD*
G04 #@! TO.C,P33*
X86360000Y-83820000D03*
G04 #@! TD*
G04 #@! TO.C,P34*
X81280000Y-83820000D03*
G04 #@! TD*
G04 #@! TO.C,P35*
X111760000Y-83820000D03*
G04 #@! TD*
G04 #@! TO.C,P36*
X76200000Y-83820000D03*
G04 #@! TD*
G04 #@! TO.C,P37*
X116840000Y-83820000D03*
G04 #@! TD*
G04 #@! TO.C,P38*
X71120000Y-83820000D03*
G04 #@! TD*
G04 #@! TO.C,P39*
X121920000Y-83820000D03*
G04 #@! TD*
G04 #@! TO.C,P40*
X127000000Y-83820000D03*
G04 #@! TD*
G04 #@! TO.C,P41*
X132080000Y-83820000D03*
G04 #@! TD*
G04 #@! TO.C,P42*
X137160000Y-83820000D03*
G04 #@! TD*
G04 #@! TO.C,P43*
X142240000Y-83820000D03*
G04 #@! TD*
G04 #@! TO.C,P44*
X147320000Y-83820000D03*
G04 #@! TD*
G04 #@! TO.C,R13*
G36*
G01*
X56035000Y-127819998D02*
X56035000Y-128720002D01*
G75*
G02*
X55785002Y-128970000I-249998J0D01*
G01*
X55259998Y-128970000D01*
G75*
G02*
X55010000Y-128720002I0J249998D01*
G01*
X55010000Y-127819998D01*
G75*
G02*
X55259998Y-127570000I249998J0D01*
G01*
X55785002Y-127570000D01*
G75*
G02*
X56035000Y-127819998I0J-249998D01*
G01*
G37*
G36*
G01*
X54210000Y-127819998D02*
X54210000Y-128720002D01*
G75*
G02*
X53960002Y-128970000I-249998J0D01*
G01*
X53434998Y-128970000D01*
G75*
G02*
X53185000Y-128720002I0J249998D01*
G01*
X53185000Y-127819998D01*
G75*
G02*
X53434998Y-127570000I249998J0D01*
G01*
X53960002Y-127570000D01*
G75*
G02*
X54210000Y-127819998I0J-249998D01*
G01*
G37*
G04 #@! TD*
G04 #@! TO.C,R18*
G36*
G01*
X65637500Y-120849998D02*
X65637500Y-121750002D01*
G75*
G02*
X65387502Y-122000000I-249998J0D01*
G01*
X64862498Y-122000000D01*
G75*
G02*
X64612500Y-121750002I0J249998D01*
G01*
X64612500Y-120849998D01*
G75*
G02*
X64862498Y-120600000I249998J0D01*
G01*
X65387502Y-120600000D01*
G75*
G02*
X65637500Y-120849998I0J-249998D01*
G01*
G37*
G36*
G01*
X63812500Y-120849998D02*
X63812500Y-121750002D01*
G75*
G02*
X63562502Y-122000000I-249998J0D01*
G01*
X63037498Y-122000000D01*
G75*
G02*
X62787500Y-121750002I0J249998D01*
G01*
X62787500Y-120849998D01*
G75*
G02*
X63037498Y-120600000I249998J0D01*
G01*
X63562502Y-120600000D01*
G75*
G02*
X63812500Y-120849998I0J-249998D01*
G01*
G37*
G04 #@! TD*
D27*
G04 #@! TO.C,Y1*
X100920000Y-107080000D03*
X96040000Y-107080000D03*
G04 #@! TD*
D28*
G04 #@! TO.C,IC2*
X160081000Y-112030000D03*
X160081000Y-112530000D03*
X160081000Y-113030000D03*
X160081000Y-113530000D03*
X160081000Y-114030000D03*
X164531000Y-114030000D03*
X164531000Y-113530000D03*
X164531000Y-113030000D03*
X164531000Y-112530000D03*
X164531000Y-112030000D03*
G04 #@! TD*
D10*
G04 #@! TO.C,P1*
X173990000Y-102870000D03*
G04 #@! TD*
G04 #@! TO.C,P12*
X173990000Y-144780000D03*
G04 #@! TD*
G04 #@! TO.C,P45*
X173990000Y-140462000D03*
G04 #@! TD*
G04 #@! TO.C,P46*
X169164000Y-140462000D03*
G04 #@! TD*
G04 #@! TO.C,P47*
X173990000Y-130810000D03*
G04 #@! TD*
G04 #@! TO.C,P48*
X173990000Y-135382000D03*
G04 #@! TD*
G04 #@! TO.C,P49*
X169164000Y-130810000D03*
G04 #@! TD*
G04 #@! TO.C,P50*
X169164000Y-135382000D03*
G04 #@! TD*
G04 #@! TO.C,P14*
X167640000Y-152400000D03*
G04 #@! TD*
G04 #@! TO.C,P51*
X116840000Y-152400000D03*
G04 #@! TD*
D29*
G04 #@! TO.C,U3*
X95400000Y-94136000D03*
D30*
X78740000Y-97536000D03*
D31*
X78740000Y-95836000D03*
X78740000Y-94136000D03*
X78740000Y-92436000D03*
X78740000Y-90736000D03*
G04 #@! TD*
M02*
