M48
; DRILL file {KiCad (5.1.7)-1} date 11/10/20 13:01:19
; FORMAT={-:-/ absolute / inch / decimal}
; #@! TF.CreationDate,2020-11-10T13:01:19-06:00
; #@! TF.GenerationSoftware,Kicad,Pcbnew,(5.1.7)-1
FMAT,2
INCH
T1C0.0157
T2C0.0236
T3C0.0315
T4C0.0335
T5C0.0394
T6C0.0433
T7C0.0630
T8C0.1378
%
G90
G05
T1
X2.2913Y-4.6732
X2.2913Y-4.9764
X2.4449Y-4.7165
X2.5866Y-4.9173
X2.7067Y-5.0767
X2.7205Y-4.8819
X2.7559Y-4.8228
X2.7677Y-4.9449
X2.77Y-4.55
X2.9055Y-5.1142
X2.95Y-4.62
X2.99Y-4.9
X2.995Y-5.135
X3.0Y-4.62
X3.02Y-4.46
X3.03Y-4.92
X3.16Y-4.69
X3.23Y-5.105
X3.374Y-4.8346
X3.4Y-4.74
X3.4189Y-5.5339
X3.445Y-4.845
X3.5325Y-4.7175
X3.56Y-5.655
X3.598Y-5.488
X3.87Y-4.0
X3.905Y-5.12
X3.915Y-4.83
X4.0459Y-4.6841
X4.4252Y-5.0472
X4.4252Y-5.1417
X4.51Y-5.25
X4.575Y-4.51
X4.65Y-4.85
X4.99Y-5.3
X4.9921Y-5.2205
X4.9961Y-5.0591
X5.0984Y-3.9646
X5.0984Y-4.0472
X6.17Y-5.29
X6.252Y-4.563
X6.28Y-5.375
X6.35Y-4.83
X6.385Y-4.909
X6.435Y-5.375
X6.5276Y-4.8583
X6.5513Y-4.7087
X6.5591Y-4.5984
X6.563Y-4.7598
X6.6181Y-4.9567
X6.6664Y-4.7136
T3
X2.5791Y-5.3941
X2.5791Y-5.4941
X2.5791Y-5.5941
X2.5791Y-5.6941
X2.8791Y-5.3941
X2.8791Y-5.4941
X2.8791Y-5.5941
X2.8791Y-5.6941
X3.7811Y-4.2157
X3.9732Y-4.2157
T4
X2.2076Y-4.6516
X2.2076Y-4.8484
T5
X6.85Y-5.7
X4.0Y-3.3
X4.6Y-3.3
X6.6Y-3.3
X5.8Y-6.0
X4.2Y-6.0
X4.2Y-3.3
X2.8Y-3.3
X6.2Y-3.3
X3.6Y-3.3
X3.4Y-6.0
X6.66Y-5.7
X5.2Y-3.3
X6.85Y-5.33
X5.4Y-6.0
X3.0Y-3.3
X3.8Y-6.0
X5.2Y-6.0
X6.4Y-3.3
X5.8Y-3.3
X6.66Y-5.53
X6.85Y-5.53
X6.0Y-6.0
X3.8Y-3.3
X4.6Y-6.0
X2.8Y-6.0
X5.0Y-6.0
X4.0Y-6.0
X4.8Y-3.3
X6.85Y-4.05
X6.0Y-3.3
X6.8Y-6.0
X4.4Y-3.3
X3.2Y-6.0
X5.6Y-3.3
X6.66Y-5.33
X5.0Y-3.3
X6.85Y-5.15
X6.66Y-5.15
X5.6Y-6.0
X6.4Y-6.0
X3.2Y-3.3
X6.8Y-3.3
X3.6Y-6.0
X5.4Y-3.3
X6.6Y-6.0
X4.8Y-6.0
X4.4Y-6.0
X3.4Y-3.3
X6.2Y-6.0
X3.0Y-6.0
T6
X3.1Y-3.5723
X3.1Y-3.6392
X3.1Y-3.7061
X3.1Y-3.7731
X3.1Y-3.84
X2.1772Y-5.2339
X2.1772Y-5.6339
T7
X2.215Y-3.8819
X2.4Y-3.7638
X2.4Y-4.0
T8
X3.7559Y-3.7061
T2
G00X2.0875Y-4.6122
M15
G01X2.1151Y-4.6122
M16
G05
G00X2.1151Y-4.8878
M15
G01X2.0875Y-4.8878
M16
G05
T0
M30
