G04 #@! TF.GenerationSoftware,KiCad,Pcbnew,(5.1.7)-1*
G04 #@! TF.CreationDate,2020-11-10T13:01:16-06:00*
G04 #@! TF.ProjectId,MCU breakout board,4d435520-6272-4656-916b-6f757420626f,rev?*
G04 #@! TF.SameCoordinates,Original*
G04 #@! TF.FileFunction,Soldermask,Bot*
G04 #@! TF.FilePolarity,Negative*
%FSLAX46Y46*%
G04 Gerber Fmt 4.6, Leading zero omitted, Abs format (unit mm)*
G04 Created by KiCad (PCBNEW (5.1.7)-1) date 2020-11-10 13:01:16*
%MOMM*%
%LPD*%
G01*
G04 APERTURE LIST*
%ADD10O,1.952400X1.652400*%
%ADD11O,6.152400X6.152400*%
%ADD12O,1.752400X1.752400*%
%ADD13O,2.352400X2.352400*%
%ADD14C,2.752400*%
%ADD15C,1.602400*%
%ADD16O,2.052400X1.352400*%
%ADD17C,1.652400*%
G04 APERTURE END LIST*
D10*
G04 #@! TO.C,U3*
X78740000Y-90736000D03*
X78740000Y-92436000D03*
X78740000Y-94136000D03*
X78740000Y-95836000D03*
G36*
G01*
X79640000Y-98362200D02*
X77840000Y-98362200D01*
G75*
G02*
X77763800Y-98286000I0J76200D01*
G01*
X77763800Y-96786000D01*
G75*
G02*
X77840000Y-96709800I76200J0D01*
G01*
X79640000Y-96709800D01*
G75*
G02*
X79716200Y-96786000I0J-76200D01*
G01*
X79716200Y-98286000D01*
G75*
G02*
X79640000Y-98362200I-76200J0D01*
G01*
G37*
D11*
X95400000Y-94136000D03*
G04 #@! TD*
G04 #@! TO.C,P2*
G36*
G01*
X170014000Y-145706200D02*
X168314000Y-145706200D01*
G75*
G02*
X168237800Y-145630000I0J76200D01*
G01*
X168237800Y-143930000D01*
G75*
G02*
X168314000Y-143853800I76200J0D01*
G01*
X170014000Y-143853800D01*
G75*
G02*
X170090200Y-143930000I0J-76200D01*
G01*
X170090200Y-145630000D01*
G75*
G02*
X170014000Y-145706200I-76200J0D01*
G01*
G37*
G04 #@! TD*
G04 #@! TO.C,U2*
G36*
G01*
X64633800Y-145430000D02*
X64633800Y-143830000D01*
G75*
G02*
X64710000Y-143753800I76200J0D01*
G01*
X66310000Y-143753800D01*
G75*
G02*
X66386200Y-143830000I0J-76200D01*
G01*
X66386200Y-145430000D01*
G75*
G02*
X66310000Y-145506200I-76200J0D01*
G01*
X64710000Y-145506200D01*
G75*
G02*
X64633800Y-145430000I0J76200D01*
G01*
G37*
D12*
X73130000Y-137010000D03*
X65510000Y-142090000D03*
X73130000Y-139550000D03*
X65510000Y-139550000D03*
X73130000Y-142090000D03*
X65510000Y-137010000D03*
X73130000Y-144630000D03*
G04 #@! TD*
G04 #@! TO.C,C1*
G36*
G01*
X79613100Y-120816200D02*
X78586900Y-120816200D01*
G75*
G02*
X78298800Y-120528100I0J288100D01*
G01*
X78298800Y-119951900D01*
G75*
G02*
X78586900Y-119663800I288100J0D01*
G01*
X79613100Y-119663800D01*
G75*
G02*
X79901200Y-119951900I0J-288100D01*
G01*
X79901200Y-120528100D01*
G75*
G02*
X79613100Y-120816200I-288100J0D01*
G01*
G37*
G36*
G01*
X79613100Y-122716200D02*
X78586900Y-122716200D01*
G75*
G02*
X78298800Y-122428100I0J288100D01*
G01*
X78298800Y-121851900D01*
G75*
G02*
X78586900Y-121563800I288100J0D01*
G01*
X79613100Y-121563800D01*
G75*
G02*
X79901200Y-121851900I0J-288100D01*
G01*
X79901200Y-122428100D01*
G75*
G02*
X79613100Y-122716200I-288100J0D01*
G01*
G37*
G04 #@! TD*
G04 #@! TO.C,C2*
G36*
G01*
X82013100Y-120826200D02*
X80986900Y-120826200D01*
G75*
G02*
X80698800Y-120538100I0J288100D01*
G01*
X80698800Y-119961900D01*
G75*
G02*
X80986900Y-119673800I288100J0D01*
G01*
X82013100Y-119673800D01*
G75*
G02*
X82301200Y-119961900I0J-288100D01*
G01*
X82301200Y-120538100D01*
G75*
G02*
X82013100Y-120826200I-288100J0D01*
G01*
G37*
G36*
G01*
X82013100Y-122726200D02*
X80986900Y-122726200D01*
G75*
G02*
X80698800Y-122438100I0J288100D01*
G01*
X80698800Y-121861900D01*
G75*
G02*
X80986900Y-121573800I288100J0D01*
G01*
X82013100Y-121573800D01*
G75*
G02*
X82301200Y-121861900I0J-288100D01*
G01*
X82301200Y-122438100D01*
G75*
G02*
X82013100Y-122726200I-288100J0D01*
G01*
G37*
G04 #@! TD*
G04 #@! TO.C,C3*
G36*
G01*
X171648100Y-122326200D02*
X170621900Y-122326200D01*
G75*
G02*
X170333800Y-122038100I0J288100D01*
G01*
X170333800Y-121461900D01*
G75*
G02*
X170621900Y-121173800I288100J0D01*
G01*
X171648100Y-121173800D01*
G75*
G02*
X171936200Y-121461900I0J-288100D01*
G01*
X171936200Y-122038100D01*
G75*
G02*
X171648100Y-122326200I-288100J0D01*
G01*
G37*
G36*
G01*
X171648100Y-120426200D02*
X170621900Y-120426200D01*
G75*
G02*
X170333800Y-120138100I0J288100D01*
G01*
X170333800Y-119561900D01*
G75*
G02*
X170621900Y-119273800I288100J0D01*
G01*
X171648100Y-119273800D01*
G75*
G02*
X171936200Y-119561900I0J-288100D01*
G01*
X171936200Y-120138100D01*
G75*
G02*
X171648100Y-120426200I-288100J0D01*
G01*
G37*
G04 #@! TD*
G04 #@! TO.C,C4*
G36*
G01*
X77213100Y-122716200D02*
X76186900Y-122716200D01*
G75*
G02*
X75898800Y-122428100I0J288100D01*
G01*
X75898800Y-121851900D01*
G75*
G02*
X76186900Y-121563800I288100J0D01*
G01*
X77213100Y-121563800D01*
G75*
G02*
X77501200Y-121851900I0J-288100D01*
G01*
X77501200Y-122428100D01*
G75*
G02*
X77213100Y-122716200I-288100J0D01*
G01*
G37*
G36*
G01*
X77213100Y-120816200D02*
X76186900Y-120816200D01*
G75*
G02*
X75898800Y-120528100I0J288100D01*
G01*
X75898800Y-119951900D01*
G75*
G02*
X76186900Y-119663800I288100J0D01*
G01*
X77213100Y-119663800D01*
G75*
G02*
X77501200Y-119951900I0J-288100D01*
G01*
X77501200Y-120528100D01*
G75*
G02*
X77213100Y-120816200I-288100J0D01*
G01*
G37*
G04 #@! TD*
G04 #@! TO.C,C5*
G36*
G01*
X74913100Y-120816200D02*
X73886900Y-120816200D01*
G75*
G02*
X73598800Y-120528100I0J288100D01*
G01*
X73598800Y-119951900D01*
G75*
G02*
X73886900Y-119663800I288100J0D01*
G01*
X74913100Y-119663800D01*
G75*
G02*
X75201200Y-119951900I0J-288100D01*
G01*
X75201200Y-120528100D01*
G75*
G02*
X74913100Y-120816200I-288100J0D01*
G01*
G37*
G36*
G01*
X74913100Y-122716200D02*
X73886900Y-122716200D01*
G75*
G02*
X73598800Y-122428100I0J288100D01*
G01*
X73598800Y-121851900D01*
G75*
G02*
X73886900Y-121563800I288100J0D01*
G01*
X74913100Y-121563800D01*
G75*
G02*
X75201200Y-121851900I0J-288100D01*
G01*
X75201200Y-122428100D01*
G75*
G02*
X74913100Y-122716200I-288100J0D01*
G01*
G37*
G04 #@! TD*
G04 #@! TO.C,C8*
G36*
G01*
X103888200Y-122168900D02*
X103888200Y-123195100D01*
G75*
G02*
X103600100Y-123483200I-288100J0D01*
G01*
X103023900Y-123483200D01*
G75*
G02*
X102735800Y-123195100I0J288100D01*
G01*
X102735800Y-122168900D01*
G75*
G02*
X103023900Y-121880800I288100J0D01*
G01*
X103600100Y-121880800D01*
G75*
G02*
X103888200Y-122168900I0J-288100D01*
G01*
G37*
G36*
G01*
X101988200Y-122168900D02*
X101988200Y-123195100D01*
G75*
G02*
X101700100Y-123483200I-288100J0D01*
G01*
X101123900Y-123483200D01*
G75*
G02*
X100835800Y-123195100I0J288100D01*
G01*
X100835800Y-122168900D01*
G75*
G02*
X101123900Y-121880800I288100J0D01*
G01*
X101700100Y-121880800D01*
G75*
G02*
X101988200Y-122168900I0J-288100D01*
G01*
G37*
G04 #@! TD*
G04 #@! TO.C,C9*
G36*
G01*
X78786900Y-139573800D02*
X79813100Y-139573800D01*
G75*
G02*
X80101200Y-139861900I0J-288100D01*
G01*
X80101200Y-140438100D01*
G75*
G02*
X79813100Y-140726200I-288100J0D01*
G01*
X78786900Y-140726200D01*
G75*
G02*
X78498800Y-140438100I0J288100D01*
G01*
X78498800Y-139861900D01*
G75*
G02*
X78786900Y-139573800I288100J0D01*
G01*
G37*
G36*
G01*
X78786900Y-141473800D02*
X79813100Y-141473800D01*
G75*
G02*
X80101200Y-141761900I0J-288100D01*
G01*
X80101200Y-142338100D01*
G75*
G02*
X79813100Y-142626200I-288100J0D01*
G01*
X78786900Y-142626200D01*
G75*
G02*
X78498800Y-142338100I0J288100D01*
G01*
X78498800Y-141761900D01*
G75*
G02*
X78786900Y-141473800I288100J0D01*
G01*
G37*
G04 #@! TD*
G04 #@! TO.C,C10*
G36*
G01*
X172206900Y-115443800D02*
X173233100Y-115443800D01*
G75*
G02*
X173521200Y-115731900I0J-288100D01*
G01*
X173521200Y-116308100D01*
G75*
G02*
X173233100Y-116596200I-288100J0D01*
G01*
X172206900Y-116596200D01*
G75*
G02*
X171918800Y-116308100I0J288100D01*
G01*
X171918800Y-115731900D01*
G75*
G02*
X172206900Y-115443800I288100J0D01*
G01*
G37*
G36*
G01*
X172206900Y-117343800D02*
X173233100Y-117343800D01*
G75*
G02*
X173521200Y-117631900I0J-288100D01*
G01*
X173521200Y-118208100D01*
G75*
G02*
X173233100Y-118496200I-288100J0D01*
G01*
X172206900Y-118496200D01*
G75*
G02*
X171918800Y-118208100I0J288100D01*
G01*
X171918800Y-117631900D01*
G75*
G02*
X172206900Y-117343800I288100J0D01*
G01*
G37*
G04 #@! TD*
G04 #@! TO.C,C11*
G36*
G01*
X78256929Y-130898800D02*
X80543071Y-130898800D01*
G75*
G02*
X80826200Y-131181929I0J-283129D01*
G01*
X80826200Y-131918071D01*
G75*
G02*
X80543071Y-132201200I-283129J0D01*
G01*
X78256929Y-132201200D01*
G75*
G02*
X77973800Y-131918071I0J283129D01*
G01*
X77973800Y-131181929D01*
G75*
G02*
X78256929Y-130898800I283129J0D01*
G01*
G37*
G36*
G01*
X78256929Y-133848800D02*
X80543071Y-133848800D01*
G75*
G02*
X80826200Y-134131929I0J-283129D01*
G01*
X80826200Y-134868071D01*
G75*
G02*
X80543071Y-135151200I-283129J0D01*
G01*
X78256929Y-135151200D01*
G75*
G02*
X77973800Y-134868071I0J283129D01*
G01*
X77973800Y-134131929D01*
G75*
G02*
X78256929Y-133848800I283129J0D01*
G01*
G37*
G04 #@! TD*
G04 #@! TO.C,C12*
G36*
G01*
X62086900Y-138423800D02*
X63113100Y-138423800D01*
G75*
G02*
X63401200Y-138711900I0J-288100D01*
G01*
X63401200Y-139288100D01*
G75*
G02*
X63113100Y-139576200I-288100J0D01*
G01*
X62086900Y-139576200D01*
G75*
G02*
X61798800Y-139288100I0J288100D01*
G01*
X61798800Y-138711900D01*
G75*
G02*
X62086900Y-138423800I288100J0D01*
G01*
G37*
G36*
G01*
X62086900Y-136523800D02*
X63113100Y-136523800D01*
G75*
G02*
X63401200Y-136811900I0J-288100D01*
G01*
X63401200Y-137388100D01*
G75*
G02*
X63113100Y-137676200I-288100J0D01*
G01*
X62086900Y-137676200D01*
G75*
G02*
X61798800Y-137388100I0J288100D01*
G01*
X61798800Y-136811900D01*
G75*
G02*
X62086900Y-136523800I288100J0D01*
G01*
G37*
G04 #@! TD*
G04 #@! TO.C,C14*
G36*
G01*
X74486900Y-91773800D02*
X75513100Y-91773800D01*
G75*
G02*
X75801200Y-92061900I0J-288100D01*
G01*
X75801200Y-92638100D01*
G75*
G02*
X75513100Y-92926200I-288100J0D01*
G01*
X74486900Y-92926200D01*
G75*
G02*
X74198800Y-92638100I0J288100D01*
G01*
X74198800Y-92061900D01*
G75*
G02*
X74486900Y-91773800I288100J0D01*
G01*
G37*
G36*
G01*
X74486900Y-93673800D02*
X75513100Y-93673800D01*
G75*
G02*
X75801200Y-93961900I0J-288100D01*
G01*
X75801200Y-94538100D01*
G75*
G02*
X75513100Y-94826200I-288100J0D01*
G01*
X74486900Y-94826200D01*
G75*
G02*
X74198800Y-94538100I0J288100D01*
G01*
X74198800Y-93961900D01*
G75*
G02*
X74486900Y-93673800I288100J0D01*
G01*
G37*
G04 #@! TD*
G04 #@! TO.C,C17*
G36*
G01*
X97853800Y-133863100D02*
X97853800Y-132836900D01*
G75*
G02*
X98141900Y-132548800I288100J0D01*
G01*
X98718100Y-132548800D01*
G75*
G02*
X99006200Y-132836900I0J-288100D01*
G01*
X99006200Y-133863100D01*
G75*
G02*
X98718100Y-134151200I-288100J0D01*
G01*
X98141900Y-134151200D01*
G75*
G02*
X97853800Y-133863100I0J288100D01*
G01*
G37*
G36*
G01*
X99753800Y-133863100D02*
X99753800Y-132836900D01*
G75*
G02*
X100041900Y-132548800I288100J0D01*
G01*
X100618100Y-132548800D01*
G75*
G02*
X100906200Y-132836900I0J-288100D01*
G01*
X100906200Y-133863100D01*
G75*
G02*
X100618100Y-134151200I-288100J0D01*
G01*
X100041900Y-134151200D01*
G75*
G02*
X99753800Y-133863100I0J288100D01*
G01*
G37*
G04 #@! TD*
G04 #@! TO.C,C18*
G36*
G01*
X99753800Y-136513100D02*
X99753800Y-135486900D01*
G75*
G02*
X100041900Y-135198800I288100J0D01*
G01*
X100618100Y-135198800D01*
G75*
G02*
X100906200Y-135486900I0J-288100D01*
G01*
X100906200Y-136513100D01*
G75*
G02*
X100618100Y-136801200I-288100J0D01*
G01*
X100041900Y-136801200D01*
G75*
G02*
X99753800Y-136513100I0J288100D01*
G01*
G37*
G36*
G01*
X97853800Y-136513100D02*
X97853800Y-135486900D01*
G75*
G02*
X98141900Y-135198800I288100J0D01*
G01*
X98718100Y-135198800D01*
G75*
G02*
X99006200Y-135486900I0J-288100D01*
G01*
X99006200Y-136513100D01*
G75*
G02*
X98718100Y-136801200I-288100J0D01*
G01*
X98141900Y-136801200D01*
G75*
G02*
X97853800Y-136513100I0J288100D01*
G01*
G37*
G04 #@! TD*
G04 #@! TO.C,C19*
G36*
G01*
X97923800Y-139313100D02*
X97923800Y-138286900D01*
G75*
G02*
X98211900Y-137998800I288100J0D01*
G01*
X98788100Y-137998800D01*
G75*
G02*
X99076200Y-138286900I0J-288100D01*
G01*
X99076200Y-139313100D01*
G75*
G02*
X98788100Y-139601200I-288100J0D01*
G01*
X98211900Y-139601200D01*
G75*
G02*
X97923800Y-139313100I0J288100D01*
G01*
G37*
G36*
G01*
X99823800Y-139313100D02*
X99823800Y-138286900D01*
G75*
G02*
X100111900Y-137998800I288100J0D01*
G01*
X100688100Y-137998800D01*
G75*
G02*
X100976200Y-138286900I0J-288100D01*
G01*
X100976200Y-139313100D01*
G75*
G02*
X100688100Y-139601200I-288100J0D01*
G01*
X100111900Y-139601200D01*
G75*
G02*
X99823800Y-139313100I0J288100D01*
G01*
G37*
G04 #@! TD*
G04 #@! TO.C,C20*
G36*
G01*
X99823800Y-142013100D02*
X99823800Y-140986900D01*
G75*
G02*
X100111900Y-140698800I288100J0D01*
G01*
X100688100Y-140698800D01*
G75*
G02*
X100976200Y-140986900I0J-288100D01*
G01*
X100976200Y-142013100D01*
G75*
G02*
X100688100Y-142301200I-288100J0D01*
G01*
X100111900Y-142301200D01*
G75*
G02*
X99823800Y-142013100I0J288100D01*
G01*
G37*
G36*
G01*
X97923800Y-142013100D02*
X97923800Y-140986900D01*
G75*
G02*
X98211900Y-140698800I288100J0D01*
G01*
X98788100Y-140698800D01*
G75*
G02*
X99076200Y-140986900I0J-288100D01*
G01*
X99076200Y-142013100D01*
G75*
G02*
X98788100Y-142301200I-288100J0D01*
G01*
X98211900Y-142301200D01*
G75*
G02*
X97923800Y-142013100I0J288100D01*
G01*
G37*
G04 #@! TD*
G04 #@! TO.C,D1*
G36*
G01*
X56400000Y-144276200D02*
X54200000Y-144276200D01*
G75*
G02*
X54123800Y-144200000I0J76200D01*
G01*
X54123800Y-142000000D01*
G75*
G02*
X54200000Y-141923800I76200J0D01*
G01*
X56400000Y-141923800D01*
G75*
G02*
X56476200Y-142000000I0J-76200D01*
G01*
X56476200Y-144200000D01*
G75*
G02*
X56400000Y-144276200I-76200J0D01*
G01*
G37*
D13*
X55300000Y-132940000D03*
G04 #@! TD*
G04 #@! TO.C,IC1*
G36*
G01*
X159635500Y-118883800D02*
X161060500Y-118883800D01*
G75*
G02*
X161136700Y-118960000I0J-76200D01*
G01*
X161136700Y-119260000D01*
G75*
G02*
X161060500Y-119336200I-76200J0D01*
G01*
X159635500Y-119336200D01*
G75*
G02*
X159559300Y-119260000I0J76200D01*
G01*
X159559300Y-118960000D01*
G75*
G02*
X159635500Y-118883800I76200J0D01*
G01*
G37*
G36*
G01*
X159635500Y-118383800D02*
X161060500Y-118383800D01*
G75*
G02*
X161136700Y-118460000I0J-76200D01*
G01*
X161136700Y-118760000D01*
G75*
G02*
X161060500Y-118836200I-76200J0D01*
G01*
X159635500Y-118836200D01*
G75*
G02*
X159559300Y-118760000I0J76200D01*
G01*
X159559300Y-118460000D01*
G75*
G02*
X159635500Y-118383800I76200J0D01*
G01*
G37*
G36*
G01*
X159635500Y-117883800D02*
X161060500Y-117883800D01*
G75*
G02*
X161136700Y-117960000I0J-76200D01*
G01*
X161136700Y-118260000D01*
G75*
G02*
X161060500Y-118336200I-76200J0D01*
G01*
X159635500Y-118336200D01*
G75*
G02*
X159559300Y-118260000I0J76200D01*
G01*
X159559300Y-117960000D01*
G75*
G02*
X159635500Y-117883800I76200J0D01*
G01*
G37*
G36*
G01*
X159635500Y-117383800D02*
X161060500Y-117383800D01*
G75*
G02*
X161136700Y-117460000I0J-76200D01*
G01*
X161136700Y-117760000D01*
G75*
G02*
X161060500Y-117836200I-76200J0D01*
G01*
X159635500Y-117836200D01*
G75*
G02*
X159559300Y-117760000I0J76200D01*
G01*
X159559300Y-117460000D01*
G75*
G02*
X159635500Y-117383800I76200J0D01*
G01*
G37*
G36*
G01*
X159635500Y-116883800D02*
X161060500Y-116883800D01*
G75*
G02*
X161136700Y-116960000I0J-76200D01*
G01*
X161136700Y-117260000D01*
G75*
G02*
X161060500Y-117336200I-76200J0D01*
G01*
X159635500Y-117336200D01*
G75*
G02*
X159559300Y-117260000I0J76200D01*
G01*
X159559300Y-116960000D01*
G75*
G02*
X159635500Y-116883800I76200J0D01*
G01*
G37*
G36*
G01*
X164059500Y-116883800D02*
X165484500Y-116883800D01*
G75*
G02*
X165560700Y-116960000I0J-76200D01*
G01*
X165560700Y-117260000D01*
G75*
G02*
X165484500Y-117336200I-76200J0D01*
G01*
X164059500Y-117336200D01*
G75*
G02*
X163983300Y-117260000I0J76200D01*
G01*
X163983300Y-116960000D01*
G75*
G02*
X164059500Y-116883800I76200J0D01*
G01*
G37*
G36*
G01*
X164059500Y-117383800D02*
X165484500Y-117383800D01*
G75*
G02*
X165560700Y-117460000I0J-76200D01*
G01*
X165560700Y-117760000D01*
G75*
G02*
X165484500Y-117836200I-76200J0D01*
G01*
X164059500Y-117836200D01*
G75*
G02*
X163983300Y-117760000I0J76200D01*
G01*
X163983300Y-117460000D01*
G75*
G02*
X164059500Y-117383800I76200J0D01*
G01*
G37*
G36*
G01*
X164059500Y-117883800D02*
X165484500Y-117883800D01*
G75*
G02*
X165560700Y-117960000I0J-76200D01*
G01*
X165560700Y-118260000D01*
G75*
G02*
X165484500Y-118336200I-76200J0D01*
G01*
X164059500Y-118336200D01*
G75*
G02*
X163983300Y-118260000I0J76200D01*
G01*
X163983300Y-117960000D01*
G75*
G02*
X164059500Y-117883800I76200J0D01*
G01*
G37*
G36*
G01*
X164059500Y-118383800D02*
X165484500Y-118383800D01*
G75*
G02*
X165560700Y-118460000I0J-76200D01*
G01*
X165560700Y-118760000D01*
G75*
G02*
X165484500Y-118836200I-76200J0D01*
G01*
X164059500Y-118836200D01*
G75*
G02*
X163983300Y-118760000I0J76200D01*
G01*
X163983300Y-118460000D01*
G75*
G02*
X164059500Y-118383800I76200J0D01*
G01*
G37*
G36*
G01*
X164059500Y-118883800D02*
X165484500Y-118883800D01*
G75*
G02*
X165560700Y-118960000I0J-76200D01*
G01*
X165560700Y-119260000D01*
G75*
G02*
X165484500Y-119336200I-76200J0D01*
G01*
X164059500Y-119336200D01*
G75*
G02*
X163983300Y-119260000I0J76200D01*
G01*
X163983300Y-118960000D01*
G75*
G02*
X164059500Y-118883800I76200J0D01*
G01*
G37*
G36*
G01*
X161643800Y-119050000D02*
X161643800Y-117170000D01*
G75*
G02*
X161720000Y-117093800I76200J0D01*
G01*
X163400000Y-117093800D01*
G75*
G02*
X163476200Y-117170000I0J-76200D01*
G01*
X163476200Y-119050000D01*
G75*
G02*
X163400000Y-119126200I-76200J0D01*
G01*
X161720000Y-119126200D01*
G75*
G02*
X161643800Y-119050000I0J76200D01*
G01*
G37*
G04 #@! TD*
G04 #@! TO.C,J1*
G36*
G01*
X62336200Y-100300000D02*
X62336200Y-102900000D01*
G75*
G02*
X62260000Y-102976200I-76200J0D01*
G01*
X59660000Y-102976200D01*
G75*
G02*
X59583800Y-102900000I0J76200D01*
G01*
X59583800Y-100300000D01*
G75*
G02*
X59660000Y-100223800I76200J0D01*
G01*
X62260000Y-100223800D01*
G75*
G02*
X62336200Y-100300000I0J-76200D01*
G01*
G37*
D14*
X60960000Y-95600000D03*
X56260000Y-98600000D03*
G04 #@! TD*
D15*
G04 #@! TO.C,J2*
X56072500Y-118150000D03*
X56072500Y-123150000D03*
D16*
X53372500Y-117150000D03*
X53372500Y-124150000D03*
G04 #@! TD*
G04 #@! TO.C,P3*
G36*
G01*
X110833800Y-153250000D02*
X110833800Y-151550000D01*
G75*
G02*
X110910000Y-151473800I76200J0D01*
G01*
X112610000Y-151473800D01*
G75*
G02*
X112686200Y-151550000I0J-76200D01*
G01*
X112686200Y-153250000D01*
G75*
G02*
X112610000Y-153326200I-76200J0D01*
G01*
X110910000Y-153326200D01*
G75*
G02*
X110833800Y-153250000I0J76200D01*
G01*
G37*
G04 #@! TD*
G04 #@! TO.C,P4*
G36*
G01*
X105753800Y-153250000D02*
X105753800Y-151550000D01*
G75*
G02*
X105830000Y-151473800I76200J0D01*
G01*
X107530000Y-151473800D01*
G75*
G02*
X107606200Y-151550000I0J-76200D01*
G01*
X107606200Y-153250000D01*
G75*
G02*
X107530000Y-153326200I-76200J0D01*
G01*
X105830000Y-153326200D01*
G75*
G02*
X105753800Y-153250000I0J76200D01*
G01*
G37*
G04 #@! TD*
G04 #@! TO.C,P5*
G36*
G01*
X70193800Y-153250000D02*
X70193800Y-151550000D01*
G75*
G02*
X70270000Y-151473800I76200J0D01*
G01*
X71970000Y-151473800D01*
G75*
G02*
X72046200Y-151550000I0J-76200D01*
G01*
X72046200Y-153250000D01*
G75*
G02*
X71970000Y-153326200I-76200J0D01*
G01*
X70270000Y-153326200D01*
G75*
G02*
X70193800Y-153250000I0J76200D01*
G01*
G37*
G04 #@! TD*
G04 #@! TO.C,P6*
G36*
G01*
X75273800Y-153250000D02*
X75273800Y-151550000D01*
G75*
G02*
X75350000Y-151473800I76200J0D01*
G01*
X77050000Y-151473800D01*
G75*
G02*
X77126200Y-151550000I0J-76200D01*
G01*
X77126200Y-153250000D01*
G75*
G02*
X77050000Y-153326200I-76200J0D01*
G01*
X75350000Y-153326200D01*
G75*
G02*
X75273800Y-153250000I0J76200D01*
G01*
G37*
G04 #@! TD*
G04 #@! TO.C,P7*
G36*
G01*
X80353800Y-153250000D02*
X80353800Y-151550000D01*
G75*
G02*
X80430000Y-151473800I76200J0D01*
G01*
X82130000Y-151473800D01*
G75*
G02*
X82206200Y-151550000I0J-76200D01*
G01*
X82206200Y-153250000D01*
G75*
G02*
X82130000Y-153326200I-76200J0D01*
G01*
X80430000Y-153326200D01*
G75*
G02*
X80353800Y-153250000I0J76200D01*
G01*
G37*
G04 #@! TD*
G04 #@! TO.C,P8*
G36*
G01*
X85433800Y-153250000D02*
X85433800Y-151550000D01*
G75*
G02*
X85510000Y-151473800I76200J0D01*
G01*
X87210000Y-151473800D01*
G75*
G02*
X87286200Y-151550000I0J-76200D01*
G01*
X87286200Y-153250000D01*
G75*
G02*
X87210000Y-153326200I-76200J0D01*
G01*
X85510000Y-153326200D01*
G75*
G02*
X85433800Y-153250000I0J76200D01*
G01*
G37*
G04 #@! TD*
G04 #@! TO.C,P9*
G36*
G01*
X90513800Y-153250000D02*
X90513800Y-151550000D01*
G75*
G02*
X90590000Y-151473800I76200J0D01*
G01*
X92290000Y-151473800D01*
G75*
G02*
X92366200Y-151550000I0J-76200D01*
G01*
X92366200Y-153250000D01*
G75*
G02*
X92290000Y-153326200I-76200J0D01*
G01*
X90590000Y-153326200D01*
G75*
G02*
X90513800Y-153250000I0J76200D01*
G01*
G37*
G04 #@! TD*
G04 #@! TO.C,P10*
G36*
G01*
X95593800Y-153250000D02*
X95593800Y-151550000D01*
G75*
G02*
X95670000Y-151473800I76200J0D01*
G01*
X97370000Y-151473800D01*
G75*
G02*
X97446200Y-151550000I0J-76200D01*
G01*
X97446200Y-153250000D01*
G75*
G02*
X97370000Y-153326200I-76200J0D01*
G01*
X95670000Y-153326200D01*
G75*
G02*
X95593800Y-153250000I0J76200D01*
G01*
G37*
G04 #@! TD*
G04 #@! TO.C,P11*
G36*
G01*
X100673800Y-153250000D02*
X100673800Y-151550000D01*
G75*
G02*
X100750000Y-151473800I76200J0D01*
G01*
X102450000Y-151473800D01*
G75*
G02*
X102526200Y-151550000I0J-76200D01*
G01*
X102526200Y-153250000D01*
G75*
G02*
X102450000Y-153326200I-76200J0D01*
G01*
X100750000Y-153326200D01*
G75*
G02*
X100673800Y-153250000I0J76200D01*
G01*
G37*
G04 #@! TD*
G04 #@! TO.C,P13*
G36*
G01*
X161633800Y-153250000D02*
X161633800Y-151550000D01*
G75*
G02*
X161710000Y-151473800I76200J0D01*
G01*
X163410000Y-151473800D01*
G75*
G02*
X163486200Y-151550000I0J-76200D01*
G01*
X163486200Y-153250000D01*
G75*
G02*
X163410000Y-153326200I-76200J0D01*
G01*
X161710000Y-153326200D01*
G75*
G02*
X161633800Y-153250000I0J76200D01*
G01*
G37*
G04 #@! TD*
G04 #@! TO.C,P15*
G36*
G01*
X171793800Y-153250000D02*
X171793800Y-151550000D01*
G75*
G02*
X171870000Y-151473800I76200J0D01*
G01*
X173570000Y-151473800D01*
G75*
G02*
X173646200Y-151550000I0J-76200D01*
G01*
X173646200Y-153250000D01*
G75*
G02*
X173570000Y-153326200I-76200J0D01*
G01*
X171870000Y-153326200D01*
G75*
G02*
X171793800Y-153250000I0J76200D01*
G01*
G37*
G04 #@! TD*
G04 #@! TO.C,P16*
G36*
G01*
X171793800Y-84670000D02*
X171793800Y-82970000D01*
G75*
G02*
X171870000Y-82893800I76200J0D01*
G01*
X173570000Y-82893800D01*
G75*
G02*
X173646200Y-82970000I0J-76200D01*
G01*
X173646200Y-84670000D01*
G75*
G02*
X173570000Y-84746200I-76200J0D01*
G01*
X171870000Y-84746200D01*
G75*
G02*
X171793800Y-84670000I0J76200D01*
G01*
G37*
G04 #@! TD*
G04 #@! TO.C,P17*
G36*
G01*
X166713800Y-84670000D02*
X166713800Y-82970000D01*
G75*
G02*
X166790000Y-82893800I76200J0D01*
G01*
X168490000Y-82893800D01*
G75*
G02*
X168566200Y-82970000I0J-76200D01*
G01*
X168566200Y-84670000D01*
G75*
G02*
X168490000Y-84746200I-76200J0D01*
G01*
X166790000Y-84746200D01*
G75*
G02*
X166713800Y-84670000I0J76200D01*
G01*
G37*
G04 #@! TD*
G04 #@! TO.C,P18*
G36*
G01*
X161633800Y-84670000D02*
X161633800Y-82970000D01*
G75*
G02*
X161710000Y-82893800I76200J0D01*
G01*
X163410000Y-82893800D01*
G75*
G02*
X163486200Y-82970000I0J-76200D01*
G01*
X163486200Y-84670000D01*
G75*
G02*
X163410000Y-84746200I-76200J0D01*
G01*
X161710000Y-84746200D01*
G75*
G02*
X161633800Y-84670000I0J76200D01*
G01*
G37*
G04 #@! TD*
G04 #@! TO.C,P19*
G36*
G01*
X156553800Y-153250000D02*
X156553800Y-151550000D01*
G75*
G02*
X156630000Y-151473800I76200J0D01*
G01*
X158330000Y-151473800D01*
G75*
G02*
X158406200Y-151550000I0J-76200D01*
G01*
X158406200Y-153250000D01*
G75*
G02*
X158330000Y-153326200I-76200J0D01*
G01*
X156630000Y-153326200D01*
G75*
G02*
X156553800Y-153250000I0J76200D01*
G01*
G37*
G04 #@! TD*
G04 #@! TO.C,P20*
G36*
G01*
X156553800Y-84670000D02*
X156553800Y-82970000D01*
G75*
G02*
X156630000Y-82893800I76200J0D01*
G01*
X158330000Y-82893800D01*
G75*
G02*
X158406200Y-82970000I0J-76200D01*
G01*
X158406200Y-84670000D01*
G75*
G02*
X158330000Y-84746200I-76200J0D01*
G01*
X156630000Y-84746200D01*
G75*
G02*
X156553800Y-84670000I0J76200D01*
G01*
G37*
G04 #@! TD*
G04 #@! TO.C,P21*
G36*
G01*
X151473800Y-153250000D02*
X151473800Y-151550000D01*
G75*
G02*
X151550000Y-151473800I76200J0D01*
G01*
X153250000Y-151473800D01*
G75*
G02*
X153326200Y-151550000I0J-76200D01*
G01*
X153326200Y-153250000D01*
G75*
G02*
X153250000Y-153326200I-76200J0D01*
G01*
X151550000Y-153326200D01*
G75*
G02*
X151473800Y-153250000I0J76200D01*
G01*
G37*
G04 #@! TD*
G04 #@! TO.C,P22*
G36*
G01*
X151473800Y-84670000D02*
X151473800Y-82970000D01*
G75*
G02*
X151550000Y-82893800I76200J0D01*
G01*
X153250000Y-82893800D01*
G75*
G02*
X153326200Y-82970000I0J-76200D01*
G01*
X153326200Y-84670000D01*
G75*
G02*
X153250000Y-84746200I-76200J0D01*
G01*
X151550000Y-84746200D01*
G75*
G02*
X151473800Y-84670000I0J76200D01*
G01*
G37*
G04 #@! TD*
G04 #@! TO.C,P23*
G36*
G01*
X146393800Y-153250000D02*
X146393800Y-151550000D01*
G75*
G02*
X146470000Y-151473800I76200J0D01*
G01*
X148170000Y-151473800D01*
G75*
G02*
X148246200Y-151550000I0J-76200D01*
G01*
X148246200Y-153250000D01*
G75*
G02*
X148170000Y-153326200I-76200J0D01*
G01*
X146470000Y-153326200D01*
G75*
G02*
X146393800Y-153250000I0J76200D01*
G01*
G37*
G04 #@! TD*
G04 #@! TO.C,P24*
G36*
G01*
X141313800Y-153250000D02*
X141313800Y-151550000D01*
G75*
G02*
X141390000Y-151473800I76200J0D01*
G01*
X143090000Y-151473800D01*
G75*
G02*
X143166200Y-151550000I0J-76200D01*
G01*
X143166200Y-153250000D01*
G75*
G02*
X143090000Y-153326200I-76200J0D01*
G01*
X141390000Y-153326200D01*
G75*
G02*
X141313800Y-153250000I0J76200D01*
G01*
G37*
G04 #@! TD*
G04 #@! TO.C,P25*
G36*
G01*
X136233800Y-153250000D02*
X136233800Y-151550000D01*
G75*
G02*
X136310000Y-151473800I76200J0D01*
G01*
X138010000Y-151473800D01*
G75*
G02*
X138086200Y-151550000I0J-76200D01*
G01*
X138086200Y-153250000D01*
G75*
G02*
X138010000Y-153326200I-76200J0D01*
G01*
X136310000Y-153326200D01*
G75*
G02*
X136233800Y-153250000I0J76200D01*
G01*
G37*
G04 #@! TD*
G04 #@! TO.C,P26*
G36*
G01*
X131153800Y-153250000D02*
X131153800Y-151550000D01*
G75*
G02*
X131230000Y-151473800I76200J0D01*
G01*
X132930000Y-151473800D01*
G75*
G02*
X133006200Y-151550000I0J-76200D01*
G01*
X133006200Y-153250000D01*
G75*
G02*
X132930000Y-153326200I-76200J0D01*
G01*
X131230000Y-153326200D01*
G75*
G02*
X131153800Y-153250000I0J76200D01*
G01*
G37*
G04 #@! TD*
G04 #@! TO.C,P27*
G36*
G01*
X126073800Y-153250000D02*
X126073800Y-151550000D01*
G75*
G02*
X126150000Y-151473800I76200J0D01*
G01*
X127850000Y-151473800D01*
G75*
G02*
X127926200Y-151550000I0J-76200D01*
G01*
X127926200Y-153250000D01*
G75*
G02*
X127850000Y-153326200I-76200J0D01*
G01*
X126150000Y-153326200D01*
G75*
G02*
X126073800Y-153250000I0J76200D01*
G01*
G37*
G04 #@! TD*
G04 #@! TO.C,P28*
G36*
G01*
X120993800Y-153250000D02*
X120993800Y-151550000D01*
G75*
G02*
X121070000Y-151473800I76200J0D01*
G01*
X122770000Y-151473800D01*
G75*
G02*
X122846200Y-151550000I0J-76200D01*
G01*
X122846200Y-153250000D01*
G75*
G02*
X122770000Y-153326200I-76200J0D01*
G01*
X121070000Y-153326200D01*
G75*
G02*
X120993800Y-153250000I0J76200D01*
G01*
G37*
G04 #@! TD*
G04 #@! TO.C,P29*
G36*
G01*
X105753800Y-84670000D02*
X105753800Y-82970000D01*
G75*
G02*
X105830000Y-82893800I76200J0D01*
G01*
X107530000Y-82893800D01*
G75*
G02*
X107606200Y-82970000I0J-76200D01*
G01*
X107606200Y-84670000D01*
G75*
G02*
X107530000Y-84746200I-76200J0D01*
G01*
X105830000Y-84746200D01*
G75*
G02*
X105753800Y-84670000I0J76200D01*
G01*
G37*
G04 #@! TD*
G04 #@! TO.C,P30*
G36*
G01*
X100673800Y-84670000D02*
X100673800Y-82970000D01*
G75*
G02*
X100750000Y-82893800I76200J0D01*
G01*
X102450000Y-82893800D01*
G75*
G02*
X102526200Y-82970000I0J-76200D01*
G01*
X102526200Y-84670000D01*
G75*
G02*
X102450000Y-84746200I-76200J0D01*
G01*
X100750000Y-84746200D01*
G75*
G02*
X100673800Y-84670000I0J76200D01*
G01*
G37*
G04 #@! TD*
G04 #@! TO.C,P31*
G36*
G01*
X95593800Y-84670000D02*
X95593800Y-82970000D01*
G75*
G02*
X95670000Y-82893800I76200J0D01*
G01*
X97370000Y-82893800D01*
G75*
G02*
X97446200Y-82970000I0J-76200D01*
G01*
X97446200Y-84670000D01*
G75*
G02*
X97370000Y-84746200I-76200J0D01*
G01*
X95670000Y-84746200D01*
G75*
G02*
X95593800Y-84670000I0J76200D01*
G01*
G37*
G04 #@! TD*
G04 #@! TO.C,P32*
G36*
G01*
X90513800Y-84670000D02*
X90513800Y-82970000D01*
G75*
G02*
X90590000Y-82893800I76200J0D01*
G01*
X92290000Y-82893800D01*
G75*
G02*
X92366200Y-82970000I0J-76200D01*
G01*
X92366200Y-84670000D01*
G75*
G02*
X92290000Y-84746200I-76200J0D01*
G01*
X90590000Y-84746200D01*
G75*
G02*
X90513800Y-84670000I0J76200D01*
G01*
G37*
G04 #@! TD*
G04 #@! TO.C,P33*
G36*
G01*
X85433800Y-84670000D02*
X85433800Y-82970000D01*
G75*
G02*
X85510000Y-82893800I76200J0D01*
G01*
X87210000Y-82893800D01*
G75*
G02*
X87286200Y-82970000I0J-76200D01*
G01*
X87286200Y-84670000D01*
G75*
G02*
X87210000Y-84746200I-76200J0D01*
G01*
X85510000Y-84746200D01*
G75*
G02*
X85433800Y-84670000I0J76200D01*
G01*
G37*
G04 #@! TD*
G04 #@! TO.C,P34*
G36*
G01*
X80353800Y-84670000D02*
X80353800Y-82970000D01*
G75*
G02*
X80430000Y-82893800I76200J0D01*
G01*
X82130000Y-82893800D01*
G75*
G02*
X82206200Y-82970000I0J-76200D01*
G01*
X82206200Y-84670000D01*
G75*
G02*
X82130000Y-84746200I-76200J0D01*
G01*
X80430000Y-84746200D01*
G75*
G02*
X80353800Y-84670000I0J76200D01*
G01*
G37*
G04 #@! TD*
G04 #@! TO.C,P35*
G36*
G01*
X110833800Y-84670000D02*
X110833800Y-82970000D01*
G75*
G02*
X110910000Y-82893800I76200J0D01*
G01*
X112610000Y-82893800D01*
G75*
G02*
X112686200Y-82970000I0J-76200D01*
G01*
X112686200Y-84670000D01*
G75*
G02*
X112610000Y-84746200I-76200J0D01*
G01*
X110910000Y-84746200D01*
G75*
G02*
X110833800Y-84670000I0J76200D01*
G01*
G37*
G04 #@! TD*
G04 #@! TO.C,P36*
G36*
G01*
X75273800Y-84670000D02*
X75273800Y-82970000D01*
G75*
G02*
X75350000Y-82893800I76200J0D01*
G01*
X77050000Y-82893800D01*
G75*
G02*
X77126200Y-82970000I0J-76200D01*
G01*
X77126200Y-84670000D01*
G75*
G02*
X77050000Y-84746200I-76200J0D01*
G01*
X75350000Y-84746200D01*
G75*
G02*
X75273800Y-84670000I0J76200D01*
G01*
G37*
G04 #@! TD*
G04 #@! TO.C,P37*
G36*
G01*
X115913800Y-84670000D02*
X115913800Y-82970000D01*
G75*
G02*
X115990000Y-82893800I76200J0D01*
G01*
X117690000Y-82893800D01*
G75*
G02*
X117766200Y-82970000I0J-76200D01*
G01*
X117766200Y-84670000D01*
G75*
G02*
X117690000Y-84746200I-76200J0D01*
G01*
X115990000Y-84746200D01*
G75*
G02*
X115913800Y-84670000I0J76200D01*
G01*
G37*
G04 #@! TD*
G04 #@! TO.C,P38*
G36*
G01*
X70193800Y-84670000D02*
X70193800Y-82970000D01*
G75*
G02*
X70270000Y-82893800I76200J0D01*
G01*
X71970000Y-82893800D01*
G75*
G02*
X72046200Y-82970000I0J-76200D01*
G01*
X72046200Y-84670000D01*
G75*
G02*
X71970000Y-84746200I-76200J0D01*
G01*
X70270000Y-84746200D01*
G75*
G02*
X70193800Y-84670000I0J76200D01*
G01*
G37*
G04 #@! TD*
G04 #@! TO.C,P39*
G36*
G01*
X120993800Y-84670000D02*
X120993800Y-82970000D01*
G75*
G02*
X121070000Y-82893800I76200J0D01*
G01*
X122770000Y-82893800D01*
G75*
G02*
X122846200Y-82970000I0J-76200D01*
G01*
X122846200Y-84670000D01*
G75*
G02*
X122770000Y-84746200I-76200J0D01*
G01*
X121070000Y-84746200D01*
G75*
G02*
X120993800Y-84670000I0J76200D01*
G01*
G37*
G04 #@! TD*
G04 #@! TO.C,P40*
G36*
G01*
X126073800Y-84670000D02*
X126073800Y-82970000D01*
G75*
G02*
X126150000Y-82893800I76200J0D01*
G01*
X127850000Y-82893800D01*
G75*
G02*
X127926200Y-82970000I0J-76200D01*
G01*
X127926200Y-84670000D01*
G75*
G02*
X127850000Y-84746200I-76200J0D01*
G01*
X126150000Y-84746200D01*
G75*
G02*
X126073800Y-84670000I0J76200D01*
G01*
G37*
G04 #@! TD*
G04 #@! TO.C,P41*
G36*
G01*
X131153800Y-84670000D02*
X131153800Y-82970000D01*
G75*
G02*
X131230000Y-82893800I76200J0D01*
G01*
X132930000Y-82893800D01*
G75*
G02*
X133006200Y-82970000I0J-76200D01*
G01*
X133006200Y-84670000D01*
G75*
G02*
X132930000Y-84746200I-76200J0D01*
G01*
X131230000Y-84746200D01*
G75*
G02*
X131153800Y-84670000I0J76200D01*
G01*
G37*
G04 #@! TD*
G04 #@! TO.C,P42*
G36*
G01*
X136233800Y-84670000D02*
X136233800Y-82970000D01*
G75*
G02*
X136310000Y-82893800I76200J0D01*
G01*
X138010000Y-82893800D01*
G75*
G02*
X138086200Y-82970000I0J-76200D01*
G01*
X138086200Y-84670000D01*
G75*
G02*
X138010000Y-84746200I-76200J0D01*
G01*
X136310000Y-84746200D01*
G75*
G02*
X136233800Y-84670000I0J76200D01*
G01*
G37*
G04 #@! TD*
G04 #@! TO.C,P43*
G36*
G01*
X141313800Y-84670000D02*
X141313800Y-82970000D01*
G75*
G02*
X141390000Y-82893800I76200J0D01*
G01*
X143090000Y-82893800D01*
G75*
G02*
X143166200Y-82970000I0J-76200D01*
G01*
X143166200Y-84670000D01*
G75*
G02*
X143090000Y-84746200I-76200J0D01*
G01*
X141390000Y-84746200D01*
G75*
G02*
X141313800Y-84670000I0J76200D01*
G01*
G37*
G04 #@! TD*
G04 #@! TO.C,P44*
G36*
G01*
X146393800Y-84670000D02*
X146393800Y-82970000D01*
G75*
G02*
X146470000Y-82893800I76200J0D01*
G01*
X148170000Y-82893800D01*
G75*
G02*
X148246200Y-82970000I0J-76200D01*
G01*
X148246200Y-84670000D01*
G75*
G02*
X148170000Y-84746200I-76200J0D01*
G01*
X146470000Y-84746200D01*
G75*
G02*
X146393800Y-84670000I0J76200D01*
G01*
G37*
G04 #@! TD*
G04 #@! TO.C,R1*
G36*
G01*
X93810968Y-118423800D02*
X94789032Y-118423800D01*
G75*
G02*
X95076200Y-118710968I0J-287168D01*
G01*
X95076200Y-119314032D01*
G75*
G02*
X94789032Y-119601200I-287168J0D01*
G01*
X93810968Y-119601200D01*
G75*
G02*
X93523800Y-119314032I0J287168D01*
G01*
X93523800Y-118710968D01*
G75*
G02*
X93810968Y-118423800I287168J0D01*
G01*
G37*
G36*
G01*
X93810968Y-116598800D02*
X94789032Y-116598800D01*
G75*
G02*
X95076200Y-116885968I0J-287168D01*
G01*
X95076200Y-117489032D01*
G75*
G02*
X94789032Y-117776200I-287168J0D01*
G01*
X93810968Y-117776200D01*
G75*
G02*
X93523800Y-117489032I0J287168D01*
G01*
X93523800Y-116885968D01*
G75*
G02*
X93810968Y-116598800I287168J0D01*
G01*
G37*
G04 #@! TD*
G04 #@! TO.C,R3*
G36*
G01*
X172865968Y-119296300D02*
X173844032Y-119296300D01*
G75*
G02*
X174131200Y-119583468I0J-287168D01*
G01*
X174131200Y-120186532D01*
G75*
G02*
X173844032Y-120473700I-287168J0D01*
G01*
X172865968Y-120473700D01*
G75*
G02*
X172578800Y-120186532I0J287168D01*
G01*
X172578800Y-119583468D01*
G75*
G02*
X172865968Y-119296300I287168J0D01*
G01*
G37*
G36*
G01*
X172865968Y-121121300D02*
X173844032Y-121121300D01*
G75*
G02*
X174131200Y-121408468I0J-287168D01*
G01*
X174131200Y-122011532D01*
G75*
G02*
X173844032Y-122298700I-287168J0D01*
G01*
X172865968Y-122298700D01*
G75*
G02*
X172578800Y-122011532I0J287168D01*
G01*
X172578800Y-121408468D01*
G75*
G02*
X172865968Y-121121300I287168J0D01*
G01*
G37*
G04 #@! TD*
G04 #@! TO.C,R4*
G36*
G01*
X76789032Y-142601200D02*
X75810968Y-142601200D01*
G75*
G02*
X75523800Y-142314032I0J287168D01*
G01*
X75523800Y-141710968D01*
G75*
G02*
X75810968Y-141423800I287168J0D01*
G01*
X76789032Y-141423800D01*
G75*
G02*
X77076200Y-141710968I0J-287168D01*
G01*
X77076200Y-142314032D01*
G75*
G02*
X76789032Y-142601200I-287168J0D01*
G01*
G37*
G36*
G01*
X76789032Y-140776200D02*
X75810968Y-140776200D01*
G75*
G02*
X75523800Y-140489032I0J287168D01*
G01*
X75523800Y-139885968D01*
G75*
G02*
X75810968Y-139598800I287168J0D01*
G01*
X76789032Y-139598800D01*
G75*
G02*
X77076200Y-139885968I0J-287168D01*
G01*
X77076200Y-140489032D01*
G75*
G02*
X76789032Y-140776200I-287168J0D01*
G01*
G37*
G04 #@! TD*
G04 #@! TO.C,R5*
G36*
G01*
X104610968Y-118386300D02*
X105589032Y-118386300D01*
G75*
G02*
X105876200Y-118673468I0J-287168D01*
G01*
X105876200Y-119276532D01*
G75*
G02*
X105589032Y-119563700I-287168J0D01*
G01*
X104610968Y-119563700D01*
G75*
G02*
X104323800Y-119276532I0J287168D01*
G01*
X104323800Y-118673468D01*
G75*
G02*
X104610968Y-118386300I287168J0D01*
G01*
G37*
G36*
G01*
X104610968Y-120211300D02*
X105589032Y-120211300D01*
G75*
G02*
X105876200Y-120498468I0J-287168D01*
G01*
X105876200Y-121101532D01*
G75*
G02*
X105589032Y-121388700I-287168J0D01*
G01*
X104610968Y-121388700D01*
G75*
G02*
X104323800Y-121101532I0J287168D01*
G01*
X104323800Y-120498468D01*
G75*
G02*
X104610968Y-120211300I287168J0D01*
G01*
G37*
G04 #@! TD*
G04 #@! TO.C,R6*
G36*
G01*
X91510968Y-118423800D02*
X92489032Y-118423800D01*
G75*
G02*
X92776200Y-118710968I0J-287168D01*
G01*
X92776200Y-119314032D01*
G75*
G02*
X92489032Y-119601200I-287168J0D01*
G01*
X91510968Y-119601200D01*
G75*
G02*
X91223800Y-119314032I0J287168D01*
G01*
X91223800Y-118710968D01*
G75*
G02*
X91510968Y-118423800I287168J0D01*
G01*
G37*
G36*
G01*
X91510968Y-116598800D02*
X92489032Y-116598800D01*
G75*
G02*
X92776200Y-116885968I0J-287168D01*
G01*
X92776200Y-117489032D01*
G75*
G02*
X92489032Y-117776200I-287168J0D01*
G01*
X91510968Y-117776200D01*
G75*
G02*
X91223800Y-117489032I0J287168D01*
G01*
X91223800Y-116885968D01*
G75*
G02*
X91510968Y-116598800I287168J0D01*
G01*
G37*
G04 #@! TD*
G04 #@! TO.C,R7*
G36*
G01*
X93199032Y-138661200D02*
X92220968Y-138661200D01*
G75*
G02*
X91933800Y-138374032I0J287168D01*
G01*
X91933800Y-137770968D01*
G75*
G02*
X92220968Y-137483800I287168J0D01*
G01*
X93199032Y-137483800D01*
G75*
G02*
X93486200Y-137770968I0J-287168D01*
G01*
X93486200Y-138374032D01*
G75*
G02*
X93199032Y-138661200I-287168J0D01*
G01*
G37*
G36*
G01*
X93199032Y-136836200D02*
X92220968Y-136836200D01*
G75*
G02*
X91933800Y-136549032I0J287168D01*
G01*
X91933800Y-135945968D01*
G75*
G02*
X92220968Y-135658800I287168J0D01*
G01*
X93199032Y-135658800D01*
G75*
G02*
X93486200Y-135945968I0J-287168D01*
G01*
X93486200Y-136549032D01*
G75*
G02*
X93199032Y-136836200I-287168J0D01*
G01*
G37*
G04 #@! TD*
G04 #@! TO.C,R8*
G36*
G01*
X104610968Y-116436300D02*
X105589032Y-116436300D01*
G75*
G02*
X105876200Y-116723468I0J-287168D01*
G01*
X105876200Y-117326532D01*
G75*
G02*
X105589032Y-117613700I-287168J0D01*
G01*
X104610968Y-117613700D01*
G75*
G02*
X104323800Y-117326532I0J287168D01*
G01*
X104323800Y-116723468D01*
G75*
G02*
X104610968Y-116436300I287168J0D01*
G01*
G37*
G36*
G01*
X104610968Y-114611300D02*
X105589032Y-114611300D01*
G75*
G02*
X105876200Y-114898468I0J-287168D01*
G01*
X105876200Y-115501532D01*
G75*
G02*
X105589032Y-115788700I-287168J0D01*
G01*
X104610968Y-115788700D01*
G75*
G02*
X104323800Y-115501532I0J287168D01*
G01*
X104323800Y-114898468D01*
G75*
G02*
X104610968Y-114611300I287168J0D01*
G01*
G37*
G04 #@! TD*
G04 #@! TO.C,R9*
G36*
G01*
X87810968Y-137523800D02*
X88789032Y-137523800D01*
G75*
G02*
X89076200Y-137810968I0J-287168D01*
G01*
X89076200Y-138414032D01*
G75*
G02*
X88789032Y-138701200I-287168J0D01*
G01*
X87810968Y-138701200D01*
G75*
G02*
X87523800Y-138414032I0J287168D01*
G01*
X87523800Y-137810968D01*
G75*
G02*
X87810968Y-137523800I287168J0D01*
G01*
G37*
G36*
G01*
X87810968Y-135698800D02*
X88789032Y-135698800D01*
G75*
G02*
X89076200Y-135985968I0J-287168D01*
G01*
X89076200Y-136589032D01*
G75*
G02*
X88789032Y-136876200I-287168J0D01*
G01*
X87810968Y-136876200D01*
G75*
G02*
X87523800Y-136589032I0J287168D01*
G01*
X87523800Y-135985968D01*
G75*
G02*
X87810968Y-135698800I287168J0D01*
G01*
G37*
G04 #@! TD*
G04 #@! TO.C,R10*
G36*
G01*
X72789032Y-93101200D02*
X71810968Y-93101200D01*
G75*
G02*
X71523800Y-92814032I0J287168D01*
G01*
X71523800Y-92210968D01*
G75*
G02*
X71810968Y-91923800I287168J0D01*
G01*
X72789032Y-91923800D01*
G75*
G02*
X73076200Y-92210968I0J-287168D01*
G01*
X73076200Y-92814032D01*
G75*
G02*
X72789032Y-93101200I-287168J0D01*
G01*
G37*
G36*
G01*
X72789032Y-91276200D02*
X71810968Y-91276200D01*
G75*
G02*
X71523800Y-90989032I0J287168D01*
G01*
X71523800Y-90385968D01*
G75*
G02*
X71810968Y-90098800I287168J0D01*
G01*
X72789032Y-90098800D01*
G75*
G02*
X73076200Y-90385968I0J-287168D01*
G01*
X73076200Y-90989032D01*
G75*
G02*
X72789032Y-91276200I-287168J0D01*
G01*
G37*
G04 #@! TD*
G04 #@! TO.C,R11*
G36*
G01*
X66810968Y-124311300D02*
X67789032Y-124311300D01*
G75*
G02*
X68076200Y-124598468I0J-287168D01*
G01*
X68076200Y-125201532D01*
G75*
G02*
X67789032Y-125488700I-287168J0D01*
G01*
X66810968Y-125488700D01*
G75*
G02*
X66523800Y-125201532I0J287168D01*
G01*
X66523800Y-124598468D01*
G75*
G02*
X66810968Y-124311300I287168J0D01*
G01*
G37*
G36*
G01*
X66810968Y-126136300D02*
X67789032Y-126136300D01*
G75*
G02*
X68076200Y-126423468I0J-287168D01*
G01*
X68076200Y-127026532D01*
G75*
G02*
X67789032Y-127313700I-287168J0D01*
G01*
X66810968Y-127313700D01*
G75*
G02*
X66523800Y-127026532I0J287168D01*
G01*
X66523800Y-126423468D01*
G75*
G02*
X66810968Y-126136300I287168J0D01*
G01*
G37*
G04 #@! TD*
G04 #@! TO.C,R12*
G36*
G01*
X69510968Y-91923800D02*
X70489032Y-91923800D01*
G75*
G02*
X70776200Y-92210968I0J-287168D01*
G01*
X70776200Y-92814032D01*
G75*
G02*
X70489032Y-93101200I-287168J0D01*
G01*
X69510968Y-93101200D01*
G75*
G02*
X69223800Y-92814032I0J287168D01*
G01*
X69223800Y-92210968D01*
G75*
G02*
X69510968Y-91923800I287168J0D01*
G01*
G37*
G36*
G01*
X69510968Y-90098800D02*
X70489032Y-90098800D01*
G75*
G02*
X70776200Y-90385968I0J-287168D01*
G01*
X70776200Y-90989032D01*
G75*
G02*
X70489032Y-91276200I-287168J0D01*
G01*
X69510968Y-91276200D01*
G75*
G02*
X69223800Y-90989032I0J287168D01*
G01*
X69223800Y-90385968D01*
G75*
G02*
X69510968Y-90098800I287168J0D01*
G01*
G37*
G04 #@! TD*
G04 #@! TO.C,R14*
G36*
G01*
X71610968Y-125111300D02*
X72589032Y-125111300D01*
G75*
G02*
X72876200Y-125398468I0J-287168D01*
G01*
X72876200Y-126001532D01*
G75*
G02*
X72589032Y-126288700I-287168J0D01*
G01*
X71610968Y-126288700D01*
G75*
G02*
X71323800Y-126001532I0J287168D01*
G01*
X71323800Y-125398468D01*
G75*
G02*
X71610968Y-125111300I287168J0D01*
G01*
G37*
G36*
G01*
X71610968Y-126936300D02*
X72589032Y-126936300D01*
G75*
G02*
X72876200Y-127223468I0J-287168D01*
G01*
X72876200Y-127826532D01*
G75*
G02*
X72589032Y-128113700I-287168J0D01*
G01*
X71610968Y-128113700D01*
G75*
G02*
X71323800Y-127826532I0J287168D01*
G01*
X71323800Y-127223468D01*
G75*
G02*
X71610968Y-126936300I287168J0D01*
G01*
G37*
G04 #@! TD*
G04 #@! TO.C,R15*
G36*
G01*
X71889032Y-130488700D02*
X70910968Y-130488700D01*
G75*
G02*
X70623800Y-130201532I0J287168D01*
G01*
X70623800Y-129598468D01*
G75*
G02*
X70910968Y-129311300I287168J0D01*
G01*
X71889032Y-129311300D01*
G75*
G02*
X72176200Y-129598468I0J-287168D01*
G01*
X72176200Y-130201532D01*
G75*
G02*
X71889032Y-130488700I-287168J0D01*
G01*
G37*
G36*
G01*
X71889032Y-132313700D02*
X70910968Y-132313700D01*
G75*
G02*
X70623800Y-132026532I0J287168D01*
G01*
X70623800Y-131423468D01*
G75*
G02*
X70910968Y-131136300I287168J0D01*
G01*
X71889032Y-131136300D01*
G75*
G02*
X72176200Y-131423468I0J-287168D01*
G01*
X72176200Y-132026532D01*
G75*
G02*
X71889032Y-132313700I-287168J0D01*
G01*
G37*
G04 #@! TD*
G04 #@! TO.C,R16*
G36*
G01*
X89172968Y-122751800D02*
X90151032Y-122751800D01*
G75*
G02*
X90438200Y-123038968I0J-287168D01*
G01*
X90438200Y-123642032D01*
G75*
G02*
X90151032Y-123929200I-287168J0D01*
G01*
X89172968Y-123929200D01*
G75*
G02*
X88885800Y-123642032I0J287168D01*
G01*
X88885800Y-123038968D01*
G75*
G02*
X89172968Y-122751800I287168J0D01*
G01*
G37*
G36*
G01*
X89172968Y-120926800D02*
X90151032Y-120926800D01*
G75*
G02*
X90438200Y-121213968I0J-287168D01*
G01*
X90438200Y-121817032D01*
G75*
G02*
X90151032Y-122104200I-287168J0D01*
G01*
X89172968Y-122104200D01*
G75*
G02*
X88885800Y-121817032I0J287168D01*
G01*
X88885800Y-121213968D01*
G75*
G02*
X89172968Y-120926800I287168J0D01*
G01*
G37*
G04 #@! TD*
G04 #@! TO.C,R17*
G36*
G01*
X170010968Y-117323800D02*
X170989032Y-117323800D01*
G75*
G02*
X171276200Y-117610968I0J-287168D01*
G01*
X171276200Y-118214032D01*
G75*
G02*
X170989032Y-118501200I-287168J0D01*
G01*
X170010968Y-118501200D01*
G75*
G02*
X169723800Y-118214032I0J287168D01*
G01*
X169723800Y-117610968D01*
G75*
G02*
X170010968Y-117323800I287168J0D01*
G01*
G37*
G36*
G01*
X170010968Y-115498800D02*
X170989032Y-115498800D01*
G75*
G02*
X171276200Y-115785968I0J-287168D01*
G01*
X171276200Y-116389032D01*
G75*
G02*
X170989032Y-116676200I-287168J0D01*
G01*
X170010968Y-116676200D01*
G75*
G02*
X169723800Y-116389032I0J287168D01*
G01*
X169723800Y-115785968D01*
G75*
G02*
X170010968Y-115498800I287168J0D01*
G01*
G37*
G04 #@! TD*
G04 #@! TO.C,U1*
G36*
G01*
X96406900Y-114273800D02*
X96783100Y-114273800D01*
G75*
G02*
X96971200Y-114461900I0J-188100D01*
G01*
X96971200Y-116188100D01*
G75*
G02*
X96783100Y-116376200I-188100J0D01*
G01*
X96406900Y-116376200D01*
G75*
G02*
X96218800Y-116188100I0J188100D01*
G01*
X96218800Y-114461900D01*
G75*
G02*
X96406900Y-114273800I188100J0D01*
G01*
G37*
G36*
G01*
X97676900Y-114273800D02*
X98053100Y-114273800D01*
G75*
G02*
X98241200Y-114461900I0J-188100D01*
G01*
X98241200Y-116188100D01*
G75*
G02*
X98053100Y-116376200I-188100J0D01*
G01*
X97676900Y-116376200D01*
G75*
G02*
X97488800Y-116188100I0J188100D01*
G01*
X97488800Y-114461900D01*
G75*
G02*
X97676900Y-114273800I188100J0D01*
G01*
G37*
G36*
G01*
X98946900Y-114273800D02*
X99323100Y-114273800D01*
G75*
G02*
X99511200Y-114461900I0J-188100D01*
G01*
X99511200Y-116188100D01*
G75*
G02*
X99323100Y-116376200I-188100J0D01*
G01*
X98946900Y-116376200D01*
G75*
G02*
X98758800Y-116188100I0J188100D01*
G01*
X98758800Y-114461900D01*
G75*
G02*
X98946900Y-114273800I188100J0D01*
G01*
G37*
G36*
G01*
X100216900Y-114273800D02*
X100593100Y-114273800D01*
G75*
G02*
X100781200Y-114461900I0J-188100D01*
G01*
X100781200Y-116188100D01*
G75*
G02*
X100593100Y-116376200I-188100J0D01*
G01*
X100216900Y-116376200D01*
G75*
G02*
X100028800Y-116188100I0J188100D01*
G01*
X100028800Y-114461900D01*
G75*
G02*
X100216900Y-114273800I188100J0D01*
G01*
G37*
G36*
G01*
X100216900Y-119223800D02*
X100593100Y-119223800D01*
G75*
G02*
X100781200Y-119411900I0J-188100D01*
G01*
X100781200Y-121138100D01*
G75*
G02*
X100593100Y-121326200I-188100J0D01*
G01*
X100216900Y-121326200D01*
G75*
G02*
X100028800Y-121138100I0J188100D01*
G01*
X100028800Y-119411900D01*
G75*
G02*
X100216900Y-119223800I188100J0D01*
G01*
G37*
G36*
G01*
X98946900Y-119223800D02*
X99323100Y-119223800D01*
G75*
G02*
X99511200Y-119411900I0J-188100D01*
G01*
X99511200Y-121138100D01*
G75*
G02*
X99323100Y-121326200I-188100J0D01*
G01*
X98946900Y-121326200D01*
G75*
G02*
X98758800Y-121138100I0J188100D01*
G01*
X98758800Y-119411900D01*
G75*
G02*
X98946900Y-119223800I188100J0D01*
G01*
G37*
G36*
G01*
X97676900Y-119223800D02*
X98053100Y-119223800D01*
G75*
G02*
X98241200Y-119411900I0J-188100D01*
G01*
X98241200Y-121138100D01*
G75*
G02*
X98053100Y-121326200I-188100J0D01*
G01*
X97676900Y-121326200D01*
G75*
G02*
X97488800Y-121138100I0J188100D01*
G01*
X97488800Y-119411900D01*
G75*
G02*
X97676900Y-119223800I188100J0D01*
G01*
G37*
G36*
G01*
X96406900Y-119223800D02*
X96783100Y-119223800D01*
G75*
G02*
X96971200Y-119411900I0J-188100D01*
G01*
X96971200Y-121138100D01*
G75*
G02*
X96783100Y-121326200I-188100J0D01*
G01*
X96406900Y-121326200D01*
G75*
G02*
X96218800Y-121138100I0J188100D01*
G01*
X96218800Y-119411900D01*
G75*
G02*
X96406900Y-119223800I188100J0D01*
G01*
G37*
G04 #@! TD*
D17*
G04 #@! TO.C,Y1*
X100920000Y-107080000D03*
X96040000Y-107080000D03*
G04 #@! TD*
G04 #@! TO.C,P1*
G36*
G01*
X173063800Y-103720000D02*
X173063800Y-102020000D01*
G75*
G02*
X173140000Y-101943800I76200J0D01*
G01*
X174840000Y-101943800D01*
G75*
G02*
X174916200Y-102020000I0J-76200D01*
G01*
X174916200Y-103720000D01*
G75*
G02*
X174840000Y-103796200I-76200J0D01*
G01*
X173140000Y-103796200D01*
G75*
G02*
X173063800Y-103720000I0J76200D01*
G01*
G37*
G04 #@! TD*
G04 #@! TO.C,P12*
G36*
G01*
X174840000Y-145706200D02*
X173140000Y-145706200D01*
G75*
G02*
X173063800Y-145630000I0J76200D01*
G01*
X173063800Y-143930000D01*
G75*
G02*
X173140000Y-143853800I76200J0D01*
G01*
X174840000Y-143853800D01*
G75*
G02*
X174916200Y-143930000I0J-76200D01*
G01*
X174916200Y-145630000D01*
G75*
G02*
X174840000Y-145706200I-76200J0D01*
G01*
G37*
G04 #@! TD*
G04 #@! TO.C,P45*
G36*
G01*
X174840000Y-141388200D02*
X173140000Y-141388200D01*
G75*
G02*
X173063800Y-141312000I0J76200D01*
G01*
X173063800Y-139612000D01*
G75*
G02*
X173140000Y-139535800I76200J0D01*
G01*
X174840000Y-139535800D01*
G75*
G02*
X174916200Y-139612000I0J-76200D01*
G01*
X174916200Y-141312000D01*
G75*
G02*
X174840000Y-141388200I-76200J0D01*
G01*
G37*
G04 #@! TD*
G04 #@! TO.C,P46*
G36*
G01*
X170014000Y-141388200D02*
X168314000Y-141388200D01*
G75*
G02*
X168237800Y-141312000I0J76200D01*
G01*
X168237800Y-139612000D01*
G75*
G02*
X168314000Y-139535800I76200J0D01*
G01*
X170014000Y-139535800D01*
G75*
G02*
X170090200Y-139612000I0J-76200D01*
G01*
X170090200Y-141312000D01*
G75*
G02*
X170014000Y-141388200I-76200J0D01*
G01*
G37*
G04 #@! TD*
G04 #@! TO.C,P47*
G36*
G01*
X174840000Y-131736200D02*
X173140000Y-131736200D01*
G75*
G02*
X173063800Y-131660000I0J76200D01*
G01*
X173063800Y-129960000D01*
G75*
G02*
X173140000Y-129883800I76200J0D01*
G01*
X174840000Y-129883800D01*
G75*
G02*
X174916200Y-129960000I0J-76200D01*
G01*
X174916200Y-131660000D01*
G75*
G02*
X174840000Y-131736200I-76200J0D01*
G01*
G37*
G04 #@! TD*
G04 #@! TO.C,P48*
G36*
G01*
X174840000Y-136308200D02*
X173140000Y-136308200D01*
G75*
G02*
X173063800Y-136232000I0J76200D01*
G01*
X173063800Y-134532000D01*
G75*
G02*
X173140000Y-134455800I76200J0D01*
G01*
X174840000Y-134455800D01*
G75*
G02*
X174916200Y-134532000I0J-76200D01*
G01*
X174916200Y-136232000D01*
G75*
G02*
X174840000Y-136308200I-76200J0D01*
G01*
G37*
G04 #@! TD*
G04 #@! TO.C,P49*
G36*
G01*
X170014000Y-131736200D02*
X168314000Y-131736200D01*
G75*
G02*
X168237800Y-131660000I0J76200D01*
G01*
X168237800Y-129960000D01*
G75*
G02*
X168314000Y-129883800I76200J0D01*
G01*
X170014000Y-129883800D01*
G75*
G02*
X170090200Y-129960000I0J-76200D01*
G01*
X170090200Y-131660000D01*
G75*
G02*
X170014000Y-131736200I-76200J0D01*
G01*
G37*
G04 #@! TD*
G04 #@! TO.C,P50*
G36*
G01*
X170014000Y-136308200D02*
X168314000Y-136308200D01*
G75*
G02*
X168237800Y-136232000I0J76200D01*
G01*
X168237800Y-134532000D01*
G75*
G02*
X168314000Y-134455800I76200J0D01*
G01*
X170014000Y-134455800D01*
G75*
G02*
X170090200Y-134532000I0J-76200D01*
G01*
X170090200Y-136232000D01*
G75*
G02*
X170014000Y-136308200I-76200J0D01*
G01*
G37*
G04 #@! TD*
G04 #@! TO.C,L1*
G36*
G01*
X60215800Y-152622337D02*
X60215800Y-149637663D01*
G75*
G02*
X60499663Y-149353800I283863J0D01*
G01*
X61209337Y-149353800D01*
G75*
G02*
X61493200Y-149637663I0J-283863D01*
G01*
X61493200Y-152622337D01*
G75*
G02*
X61209337Y-152906200I-283863J0D01*
G01*
X60499663Y-152906200D01*
G75*
G02*
X60215800Y-152622337I0J283863D01*
G01*
G37*
G36*
G01*
X64490800Y-152622337D02*
X64490800Y-149637663D01*
G75*
G02*
X64774663Y-149353800I283863J0D01*
G01*
X65484337Y-149353800D01*
G75*
G02*
X65768200Y-149637663I0J-283863D01*
G01*
X65768200Y-152622337D01*
G75*
G02*
X65484337Y-152906200I-283863J0D01*
G01*
X64774663Y-152906200D01*
G75*
G02*
X64490800Y-152622337I0J283863D01*
G01*
G37*
G04 #@! TD*
G04 #@! TO.C,P14*
G36*
G01*
X166713800Y-153250000D02*
X166713800Y-151550000D01*
G75*
G02*
X166790000Y-151473800I76200J0D01*
G01*
X168490000Y-151473800D01*
G75*
G02*
X168566200Y-151550000I0J-76200D01*
G01*
X168566200Y-153250000D01*
G75*
G02*
X168490000Y-153326200I-76200J0D01*
G01*
X166790000Y-153326200D01*
G75*
G02*
X166713800Y-153250000I0J76200D01*
G01*
G37*
G04 #@! TD*
G04 #@! TO.C,P51*
G36*
G01*
X115913800Y-153250000D02*
X115913800Y-151550000D01*
G75*
G02*
X115990000Y-151473800I76200J0D01*
G01*
X117690000Y-151473800D01*
G75*
G02*
X117766200Y-151550000I0J-76200D01*
G01*
X117766200Y-153250000D01*
G75*
G02*
X117690000Y-153326200I-76200J0D01*
G01*
X115990000Y-153326200D01*
G75*
G02*
X115913800Y-153250000I0J76200D01*
G01*
G37*
G04 #@! TD*
M02*
