%TF.GenerationSoftware,KiCad,Pcbnew,(5.1.7)-1*%
%TF.CreationDate,2020-11-09T16:27:10-06:00*%
%TF.ProjectId,MCU breakout board,4d435520-6272-4656-916b-6f757420626f,rev?*%
%TF.SameCoordinates,Original*%
%TF.FileFunction,Paste,Top*%
%TF.FilePolarity,Positive*%
%FSLAX46Y46*%
G04 Gerber Fmt 4.6, Leading zero omitted, Abs format (unit mm)*
G04 Created by KiCad (PCBNEW (5.1.7)-1) date 2020-11-09 16:27:10*
%MOMM*%
%LPD*%
G01*
G04 APERTURE LIST*
%ADD10R,1.800000X0.450000*%
%ADD11R,1.500000X0.650000*%
%ADD12R,1.500000X0.300000*%
%ADD13R,0.300000X1.500000*%
%ADD14R,1.475000X0.450000*%
%ADD15R,1.900000X1.500000*%
%ADD16R,1.350000X0.400000*%
%ADD17R,1.450000X0.300000*%
G04 APERTURE END LIST*
%TO.C,C16*%
G36*
G01*
X119592000Y-113152000D02*
X120692000Y-113152000D01*
G75*
G02*
X120942000Y-113402000I0J-250000D01*
G01*
X120942000Y-116402000D01*
G75*
G02*
X120692000Y-116652000I-250000J0D01*
G01*
X119592000Y-116652000D01*
G75*
G02*
X119342000Y-116402000I0J250000D01*
G01*
X119342000Y-113402000D01*
G75*
G02*
X119592000Y-113152000I250000J0D01*
G01*
G37*
G36*
G01*
X119592000Y-118552000D02*
X120692000Y-118552000D01*
G75*
G02*
X120942000Y-118802000I0J-250000D01*
G01*
X120942000Y-121802000D01*
G75*
G02*
X120692000Y-122052000I-250000J0D01*
G01*
X119592000Y-122052000D01*
G75*
G02*
X119342000Y-121802000I0J250000D01*
G01*
X119342000Y-118802000D01*
G75*
G02*
X119592000Y-118552000I250000J0D01*
G01*
G37*
%TD*%
D10*
%TO.C,IC8*%
X127250000Y-93575000D03*
X127250000Y-94225000D03*
X127250000Y-94875000D03*
X127250000Y-95525000D03*
X127250000Y-96175000D03*
X127250000Y-96825000D03*
X127250000Y-97475000D03*
X127250000Y-98125000D03*
X127250000Y-98775000D03*
X127250000Y-99425000D03*
X127250000Y-100075000D03*
X127250000Y-100725000D03*
X127250000Y-101375000D03*
X127250000Y-102025000D03*
X120150000Y-102025000D03*
X120150000Y-101375000D03*
X120150000Y-100725000D03*
X120150000Y-100075000D03*
X120150000Y-99425000D03*
X120150000Y-98775000D03*
X120150000Y-98125000D03*
X120150000Y-97475000D03*
X120150000Y-96825000D03*
X120150000Y-96175000D03*
X120150000Y-95525000D03*
X120150000Y-94875000D03*
X120150000Y-94225000D03*
X120150000Y-93575000D03*
%TD*%
%TO.C,C6*%
G36*
G01*
X100576000Y-102395000D02*
X100576000Y-103345000D01*
G75*
G02*
X100326000Y-103595000I-250000J0D01*
G01*
X99826000Y-103595000D01*
G75*
G02*
X99576000Y-103345000I0J250000D01*
G01*
X99576000Y-102395000D01*
G75*
G02*
X99826000Y-102145000I250000J0D01*
G01*
X100326000Y-102145000D01*
G75*
G02*
X100576000Y-102395000I0J-250000D01*
G01*
G37*
G36*
G01*
X102476000Y-102395000D02*
X102476000Y-103345000D01*
G75*
G02*
X102226000Y-103595000I-250000J0D01*
G01*
X101726000Y-103595000D01*
G75*
G02*
X101476000Y-103345000I0J250000D01*
G01*
X101476000Y-102395000D01*
G75*
G02*
X101726000Y-102145000I250000J0D01*
G01*
X102226000Y-102145000D01*
G75*
G02*
X102476000Y-102395000I0J-250000D01*
G01*
G37*
%TD*%
%TO.C,C7*%
G36*
G01*
X94054000Y-103345000D02*
X94054000Y-102395000D01*
G75*
G02*
X94304000Y-102145000I250000J0D01*
G01*
X94804000Y-102145000D01*
G75*
G02*
X95054000Y-102395000I0J-250000D01*
G01*
X95054000Y-103345000D01*
G75*
G02*
X94804000Y-103595000I-250000J0D01*
G01*
X94304000Y-103595000D01*
G75*
G02*
X94054000Y-103345000I0J250000D01*
G01*
G37*
G36*
G01*
X95954000Y-103345000D02*
X95954000Y-102395000D01*
G75*
G02*
X96204000Y-102145000I250000J0D01*
G01*
X96704000Y-102145000D01*
G75*
G02*
X96954000Y-102395000I0J-250000D01*
G01*
X96954000Y-103345000D01*
G75*
G02*
X96704000Y-103595000I-250000J0D01*
G01*
X96204000Y-103595000D01*
G75*
G02*
X95954000Y-103345000I0J250000D01*
G01*
G37*
%TD*%
%TO.C,C13*%
G36*
G01*
X150147000Y-134816000D02*
X151097000Y-134816000D01*
G75*
G02*
X151347000Y-135066000I0J-250000D01*
G01*
X151347000Y-135566000D01*
G75*
G02*
X151097000Y-135816000I-250000J0D01*
G01*
X150147000Y-135816000D01*
G75*
G02*
X149897000Y-135566000I0J250000D01*
G01*
X149897000Y-135066000D01*
G75*
G02*
X150147000Y-134816000I250000J0D01*
G01*
G37*
G36*
G01*
X150147000Y-132916000D02*
X151097000Y-132916000D01*
G75*
G02*
X151347000Y-133166000I0J-250000D01*
G01*
X151347000Y-133666000D01*
G75*
G02*
X151097000Y-133916000I-250000J0D01*
G01*
X150147000Y-133916000D01*
G75*
G02*
X149897000Y-133666000I0J250000D01*
G01*
X149897000Y-133166000D01*
G75*
G02*
X150147000Y-132916000I250000J0D01*
G01*
G37*
%TD*%
%TO.C,C15*%
G36*
G01*
X60525000Y-107450000D02*
X61475000Y-107450000D01*
G75*
G02*
X61725000Y-107700000I0J-250000D01*
G01*
X61725000Y-108200000D01*
G75*
G02*
X61475000Y-108450000I-250000J0D01*
G01*
X60525000Y-108450000D01*
G75*
G02*
X60275000Y-108200000I0J250000D01*
G01*
X60275000Y-107700000D01*
G75*
G02*
X60525000Y-107450000I250000J0D01*
G01*
G37*
G36*
G01*
X60525000Y-105550000D02*
X61475000Y-105550000D01*
G75*
G02*
X61725000Y-105800000I0J-250000D01*
G01*
X61725000Y-106300000D01*
G75*
G02*
X61475000Y-106550000I-250000J0D01*
G01*
X60525000Y-106550000D01*
G75*
G02*
X60275000Y-106300000I0J250000D01*
G01*
X60275000Y-105800000D01*
G75*
G02*
X60525000Y-105550000I250000J0D01*
G01*
G37*
%TD*%
%TO.C,C21*%
G36*
G01*
X56825000Y-105550000D02*
X57775000Y-105550000D01*
G75*
G02*
X58025000Y-105800000I0J-250000D01*
G01*
X58025000Y-106300000D01*
G75*
G02*
X57775000Y-106550000I-250000J0D01*
G01*
X56825000Y-106550000D01*
G75*
G02*
X56575000Y-106300000I0J250000D01*
G01*
X56575000Y-105800000D01*
G75*
G02*
X56825000Y-105550000I250000J0D01*
G01*
G37*
G36*
G01*
X56825000Y-107450000D02*
X57775000Y-107450000D01*
G75*
G02*
X58025000Y-107700000I0J-250000D01*
G01*
X58025000Y-108200000D01*
G75*
G02*
X57775000Y-108450000I-250000J0D01*
G01*
X56825000Y-108450000D01*
G75*
G02*
X56575000Y-108200000I0J250000D01*
G01*
X56575000Y-107700000D01*
G75*
G02*
X56825000Y-107450000I250000J0D01*
G01*
G37*
%TD*%
D11*
%TO.C,IC4*%
X159672000Y-131191000D03*
X159672000Y-132461000D03*
X159672000Y-133731000D03*
X159672000Y-135001000D03*
X154272000Y-135001000D03*
X154272000Y-133731000D03*
X154272000Y-132461000D03*
X154272000Y-131191000D03*
%TD*%
D12*
%TO.C,IC5*%
X72250000Y-117350000D03*
X72250000Y-117850000D03*
X72250000Y-118350000D03*
X72250000Y-118850000D03*
X72250000Y-119350000D03*
X72250000Y-119850000D03*
X72250000Y-120350000D03*
X72250000Y-120850000D03*
X72250000Y-121350000D03*
X72250000Y-121850000D03*
X72250000Y-122350000D03*
X72250000Y-122850000D03*
X72250000Y-123350000D03*
X72250000Y-123850000D03*
X72250000Y-124350000D03*
X72250000Y-124850000D03*
D13*
X74250000Y-126850000D03*
X74750000Y-126850000D03*
X75250000Y-126850000D03*
X75750000Y-126850000D03*
X76250000Y-126850000D03*
X76750000Y-126850000D03*
X77250000Y-126850000D03*
X77750000Y-126850000D03*
X78250000Y-126850000D03*
X78750000Y-126850000D03*
X79250000Y-126850000D03*
X79750000Y-126850000D03*
X80250000Y-126850000D03*
X80750000Y-126850000D03*
X81250000Y-126850000D03*
X81750000Y-126850000D03*
D12*
X83750000Y-124850000D03*
X83750000Y-124350000D03*
X83750000Y-123850000D03*
X83750000Y-123350000D03*
X83750000Y-122850000D03*
X83750000Y-122350000D03*
X83750000Y-121850000D03*
X83750000Y-121350000D03*
X83750000Y-120850000D03*
X83750000Y-120350000D03*
X83750000Y-119850000D03*
X83750000Y-119350000D03*
X83750000Y-118850000D03*
X83750000Y-118350000D03*
X83750000Y-117850000D03*
X83750000Y-117350000D03*
D13*
X81750000Y-115350000D03*
X81250000Y-115350000D03*
X80750000Y-115350000D03*
X80250000Y-115350000D03*
X79750000Y-115350000D03*
X79250000Y-115350000D03*
X78750000Y-115350000D03*
X78250000Y-115350000D03*
X77750000Y-115350000D03*
X77250000Y-115350000D03*
X76750000Y-115350000D03*
X76250000Y-115350000D03*
X75750000Y-115350000D03*
X75250000Y-115350000D03*
X74750000Y-115350000D03*
X74250000Y-115350000D03*
%TD*%
D14*
%TO.C,IC6*%
X158352000Y-120265000D03*
X158352000Y-120915000D03*
X158352000Y-121565000D03*
X158352000Y-122215000D03*
X158352000Y-122865000D03*
X158352000Y-123515000D03*
X158352000Y-124165000D03*
X158352000Y-124815000D03*
X158352000Y-125465000D03*
X158352000Y-126115000D03*
X164228000Y-126115000D03*
X164228000Y-125465000D03*
X164228000Y-124815000D03*
X164228000Y-124165000D03*
X164228000Y-123515000D03*
X164228000Y-122865000D03*
X164228000Y-122215000D03*
X164228000Y-121565000D03*
X164228000Y-120915000D03*
X164228000Y-120265000D03*
%TD*%
D10*
%TO.C,IC7*%
X124200000Y-140415000D03*
X124200000Y-139765000D03*
X124200000Y-139115000D03*
X124200000Y-138465000D03*
X124200000Y-137815000D03*
X124200000Y-137165000D03*
X124200000Y-136515000D03*
X124200000Y-135865000D03*
X124200000Y-135215000D03*
X124200000Y-134565000D03*
X124200000Y-133915000D03*
X124200000Y-133265000D03*
X124200000Y-132615000D03*
X124200000Y-131965000D03*
X117100000Y-131965000D03*
X117100000Y-132615000D03*
X117100000Y-133265000D03*
X117100000Y-133915000D03*
X117100000Y-134565000D03*
X117100000Y-135215000D03*
X117100000Y-135865000D03*
X117100000Y-136515000D03*
X117100000Y-137165000D03*
X117100000Y-137815000D03*
X117100000Y-138465000D03*
X117100000Y-139115000D03*
X117100000Y-139765000D03*
X117100000Y-140415000D03*
%TD*%
D15*
%TO.C,J2*%
X53372500Y-121650000D03*
D16*
X56072500Y-120000000D03*
X56072500Y-119350000D03*
X56072500Y-121950000D03*
X56072500Y-121300000D03*
X56072500Y-120650000D03*
D15*
X53372500Y-119650000D03*
%TD*%
%TO.C,R13*%
G36*
G01*
X56035000Y-127819999D02*
X56035000Y-128720001D01*
G75*
G02*
X55785001Y-128970000I-249999J0D01*
G01*
X55259999Y-128970000D01*
G75*
G02*
X55010000Y-128720001I0J249999D01*
G01*
X55010000Y-127819999D01*
G75*
G02*
X55259999Y-127570000I249999J0D01*
G01*
X55785001Y-127570000D01*
G75*
G02*
X56035000Y-127819999I0J-249999D01*
G01*
G37*
G36*
G01*
X54210000Y-127819999D02*
X54210000Y-128720001D01*
G75*
G02*
X53960001Y-128970000I-249999J0D01*
G01*
X53434999Y-128970000D01*
G75*
G02*
X53185000Y-128720001I0J249999D01*
G01*
X53185000Y-127819999D01*
G75*
G02*
X53434999Y-127570000I249999J0D01*
G01*
X53960001Y-127570000D01*
G75*
G02*
X54210000Y-127819999I0J-249999D01*
G01*
G37*
%TD*%
%TO.C,R18*%
G36*
G01*
X65637500Y-120849999D02*
X65637500Y-121750001D01*
G75*
G02*
X65387501Y-122000000I-249999J0D01*
G01*
X64862499Y-122000000D01*
G75*
G02*
X64612500Y-121750001I0J249999D01*
G01*
X64612500Y-120849999D01*
G75*
G02*
X64862499Y-120600000I249999J0D01*
G01*
X65387501Y-120600000D01*
G75*
G02*
X65637500Y-120849999I0J-249999D01*
G01*
G37*
G36*
G01*
X63812500Y-120849999D02*
X63812500Y-121750001D01*
G75*
G02*
X63562501Y-122000000I-249999J0D01*
G01*
X63037499Y-122000000D01*
G75*
G02*
X62787500Y-121750001I0J249999D01*
G01*
X62787500Y-120849999D01*
G75*
G02*
X63037499Y-120600000I249999J0D01*
G01*
X63562501Y-120600000D01*
G75*
G02*
X63812500Y-120849999I0J-249999D01*
G01*
G37*
%TD*%
D17*
%TO.C,IC2*%
X160081000Y-112030000D03*
X160081000Y-112530000D03*
X160081000Y-113030000D03*
X160081000Y-113530000D03*
X160081000Y-114030000D03*
X164531000Y-114030000D03*
X164531000Y-113530000D03*
X164531000Y-113030000D03*
X164531000Y-112530000D03*
X164531000Y-112030000D03*
%TD*%
M02*
