%TF.GenerationSoftware,KiCad,Pcbnew,(5.1.7)-1*%
%TF.CreationDate,2020-11-09T16:27:31-06:00*%
%TF.ProjectId,MCU breakout board,4d435520-6272-4656-916b-6f757420626f,rev?*%
%TF.SameCoordinates,Original*%
%TF.FileFunction,Plated,1,2,PTH,Mixed*%
%TF.FilePolarity,Positive*%
%FSLAX46Y46*%
G04 Gerber Fmt 4.6, Leading zero omitted, Abs format (unit mm)*
G04 Created by KiCad (PCBNEW (5.1.7)-1) date 2020-11-09 16:27:31*
%MOMM*%
%LPD*%
G01*
G04 APERTURE LIST*
%TA.AperFunction,ViaDrill*%
%ADD10C,0.400000*%
%TD*%
G04 aperture for slot hole*
%TA.AperFunction,ComponentDrill*%
%ADD11C,0.600000*%
%TD*%
%TA.AperFunction,ComponentDrill*%
%ADD12C,0.800000*%
%TD*%
%TA.AperFunction,ComponentDrill*%
%ADD13C,0.850000*%
%TD*%
%TA.AperFunction,ComponentDrill*%
%ADD14C,1.000000*%
%TD*%
%TA.AperFunction,ComponentDrill*%
%ADD15C,1.100000*%
%TD*%
%TA.AperFunction,ComponentDrill*%
%ADD16C,1.600000*%
%TD*%
%TA.AperFunction,ComponentDrill*%
%ADD17C,3.500000*%
%TD*%
G04 APERTURE END LIST*
D10*
X58200000Y-118700000D03*
X58200000Y-126400000D03*
X62100000Y-119800000D03*
X65700000Y-124900000D03*
X68751000Y-128949000D03*
X69100000Y-124000000D03*
X70000000Y-122500000D03*
X70300000Y-125600000D03*
X70358000Y-115570000D03*
X73800000Y-129900000D03*
X74930000Y-117348000D03*
X75946000Y-124460000D03*
X76073000Y-130429000D03*
X76200000Y-117348000D03*
X76708000Y-113284000D03*
X76962000Y-124968000D03*
X80264000Y-119126000D03*
X82042000Y-129667000D03*
X85700000Y-122800000D03*
X86360000Y-120396000D03*
X86839500Y-140560500D03*
X87503000Y-123063000D03*
X89725500Y-119824500D03*
X90424000Y-143637000D03*
X91388250Y-139394250D03*
X98298000Y-101600000D03*
X99187000Y-130048000D03*
X99441000Y-122682000D03*
X102767010Y-118974990D03*
X112400000Y-128200000D03*
X112400000Y-130600000D03*
X114554000Y-133350000D03*
X116205000Y-114554000D03*
X118110000Y-123190000D03*
X126746000Y-134620000D03*
X126800000Y-132600000D03*
X126900000Y-128500000D03*
X129500000Y-100700000D03*
X129500000Y-102800000D03*
X156718000Y-134366000D03*
X158800000Y-115900000D03*
X159512000Y-136525000D03*
X161290000Y-122682000D03*
X162179000Y-124688600D03*
X163449000Y-136525000D03*
X165800000Y-123400000D03*
X166402000Y-119602000D03*
X166600000Y-116800000D03*
X166700000Y-120900000D03*
X168100000Y-125900000D03*
X169327011Y-119724989D03*
D11*
%TO.C,J2*%
X53722500Y-117150000D02*
X53022500Y-117150000D01*
X53022500Y-124150000D02*
X53722500Y-124150000D01*
D12*
%TO.C,Y1*%
X96040000Y-107080000D03*
X100920000Y-107080000D03*
%TO.C,U2*%
X65510000Y-137010000D03*
X65510000Y-139550000D03*
X65510000Y-142090000D03*
X65510000Y-144630000D03*
X73130000Y-137010000D03*
X73130000Y-139550000D03*
X73130000Y-142090000D03*
X73130000Y-144630000D03*
D13*
%TO.C,J2*%
X56072500Y-118150000D03*
X56072500Y-123150000D03*
D14*
%TO.C,P32*%
X91440000Y-83820000D03*
%TO.C,P28*%
X121920000Y-152400000D03*
%TO.C,P50*%
X169164000Y-135382000D03*
%TO.C,P17*%
X167640000Y-83820000D03*
%TO.C,P13*%
X162560000Y-152400000D03*
%TO.C,P45*%
X173990000Y-140462000D03*
%TO.C,P47*%
X173990000Y-130810000D03*
%TO.C,P29*%
X106680000Y-83820000D03*
%TO.C,P42*%
X137160000Y-83820000D03*
%TO.C,P30*%
X101600000Y-83820000D03*
%TO.C,P26*%
X132080000Y-152400000D03*
%TO.C,P6*%
X76200000Y-152400000D03*
%TO.C,P27*%
X127000000Y-152400000D03*
%TO.C,P41*%
X132080000Y-83820000D03*
%TO.C,P44*%
X147320000Y-83820000D03*
%TO.C,P24*%
X142240000Y-152400000D03*
%TO.C,P5*%
X71120000Y-152400000D03*
%TO.C,P46*%
X169164000Y-140462000D03*
%TO.C,P9*%
X91440000Y-152400000D03*
%TO.C,P34*%
X81280000Y-83820000D03*
%TO.C,P43*%
X142240000Y-83820000D03*
%TO.C,P22*%
X152400000Y-83820000D03*
%TO.C,P19*%
X157480000Y-152400000D03*
%TO.C,P23*%
X147320000Y-152400000D03*
%TO.C,P37*%
X116840000Y-83820000D03*
%TO.C,P40*%
X127000000Y-83820000D03*
%TO.C,P20*%
X157480000Y-83820000D03*
%TO.C,P18*%
X162560000Y-83820000D03*
%TO.C,P7*%
X81280000Y-152400000D03*
%TO.C,P14*%
X167640000Y-152400000D03*
%TO.C,P11*%
X101600000Y-152400000D03*
%TO.C,P25*%
X137160000Y-152400000D03*
%TO.C,P31*%
X96520000Y-83820000D03*
%TO.C,P33*%
X86360000Y-83820000D03*
%TO.C,P38*%
X71120000Y-83820000D03*
%TO.C,P51*%
X116840000Y-152400000D03*
%TO.C,P10*%
X96520000Y-152400000D03*
%TO.C,P16*%
X172720000Y-83820000D03*
%TO.C,P48*%
X173990000Y-135382000D03*
%TO.C,P8*%
X86360000Y-152400000D03*
%TO.C,P12*%
X173990000Y-144780000D03*
%TO.C,P49*%
X169164000Y-130810000D03*
%TO.C,P39*%
X121920000Y-83820000D03*
%TO.C,P35*%
X111760000Y-83820000D03*
%TO.C,P36*%
X76200000Y-83820000D03*
%TO.C,P1*%
X173990000Y-102870000D03*
%TO.C,P15*%
X172720000Y-152400000D03*
%TO.C,P4*%
X106680000Y-152400000D03*
%TO.C,P3*%
X111760000Y-152400000D03*
%TO.C,P2*%
X169164000Y-144780000D03*
%TO.C,P21*%
X152400000Y-152400000D03*
D15*
%TO.C,U3*%
X78740000Y-90736000D03*
X78740000Y-92436000D03*
X78740000Y-94136000D03*
X78740000Y-95836000D03*
X78740000Y-97536000D03*
%TO.C,D1*%
X55300000Y-132940000D03*
X55300000Y-143100000D03*
D16*
%TO.C,J1*%
X56260000Y-98600000D03*
X60960000Y-95600000D03*
X60960000Y-101600000D03*
D17*
%TO.C,U3*%
X95400000Y-94136000D03*
M02*
